<svg width="75" height="75" viewBox="0 0 75 75" fill="none" xmlns="http://www.w3.org/2000/svg">
<g clip-path="url(#clip0_2178_152)">
<path d="M15.1154 14.6319C14.6865 14.2027 13.9909 14.2028 13.5618 14.6317L10.7887 17.4045L9.60587 16.2217C9.17682 15.7927 8.48116 15.7926 8.05226 16.2218C7.62321 16.6508 7.62321 17.3465 8.05226 17.7754L10.0119 19.7351C10.2264 19.9495 10.5076 20.0569 10.7887 20.0569C11.0698 20.0569 11.3511 19.9497 11.5655 19.7352L15.1154 16.1855C15.5445 15.7564 15.5445 15.0608 15.1154 14.6319Z" fill="#9D9863"/>
<path d="M14.3741 26.0354H8.79321C7.59819 26.0354 6.62598 27.0077 6.62598 28.2027V33.7835C6.62598 34.9785 7.59819 35.9509 8.79321 35.9509H14.374C15.5691 35.9509 16.5413 34.9785 16.5413 33.7835V28.2027C16.5413 27.0077 15.5691 26.0354 14.3741 26.0354ZM14.3441 33.7536H8.82324V28.2328H14.3441V33.7536Z" fill="#9D9863"/>
<path d="M14.3741 41.4554H8.79321C7.59819 41.4554 6.62598 42.4278 6.62598 43.6228V49.2036C6.62598 50.3986 7.59819 51.371 8.79321 51.371H14.374C15.5691 51.371 16.5413 50.3986 16.5413 49.2036V43.6228C16.5413 42.4278 15.5691 41.4554 14.3741 41.4554ZM14.3441 49.1735H8.82324V43.6527H14.3441V49.1735Z" fill="#9D9863"/>
<path d="M14.3741 57.2035H8.79321C7.59819 57.2035 6.62598 58.1759 6.62598 59.3709V64.9516C6.62598 66.1466 7.59819 67.119 8.79321 67.119H14.374C15.5691 67.119 16.5413 66.1466 16.5413 64.9516V59.3709C16.5413 58.1757 15.5691 57.2035 14.3741 57.2035ZM14.3441 64.9216H8.82324V59.4008H14.3441V64.9216Z" fill="#9D9863"/>
<path d="M73.1975 29.3873C72.5908 29.3873 72.0989 29.8791 72.0989 30.486V71.3193C72.0989 72.1373 71.4336 72.8026 70.6156 72.8026H31.2793C30.4615 72.8026 29.796 72.1373 29.796 71.3193V16.3695C29.796 15.5515 30.4614 14.8862 31.2793 14.8862H70.6153C71.4331 14.8862 72.0986 15.5515 72.0986 16.3695V25.9816C72.0987 26.5885 72.5905 27.0802 73.1974 27.0802C73.8041 27.0802 74.296 26.5885 74.296 25.9816V16.3695C74.296 14.3401 72.645 12.6889 70.6154 12.6889H64.7277V6.48822C64.7277 2.91093 61.8176 0.000439452 58.2394 0H58.239H8.11097C4.02685 0 0.703857 3.32284 0.703857 7.40697V68.4344C0.703857 72.012 3.6145 74.9225 7.19193 74.9225H24.7804C25.3872 74.9225 25.8791 74.4308 25.8791 73.8239C25.8791 73.217 25.3872 72.7253 24.7804 72.7253H7.19222C4.82621 72.7253 2.90141 70.8003 2.90141 68.4344V7.40697C2.90112 4.53427 5.23827 2.19726 8.11097 2.19726H53.3779C52.3663 3.34189 51.7505 4.84408 51.7505 6.48822V9.52044C51.7505 10.1273 52.2424 10.6191 52.8491 10.6191C53.4559 10.6191 53.9478 10.1273 53.9478 9.52044V6.48822C53.9478 4.12221 55.8727 2.19726 58.2396 2.19726C60.6056 2.19726 62.5304 4.12221 62.5304 6.48822V12.6889H31.2795C29.2501 12.6889 27.5989 14.3399 27.5989 16.3695V17.13H21.891C21.2843 17.13 20.7924 17.6217 20.7924 18.2286C20.7924 18.8355 21.2843 19.3273 21.891 19.3273H27.5989V29.8945H21.891C21.2843 29.8945 20.7924 30.3862 20.7924 30.9931C20.7924 31.6 21.2843 32.0917 21.891 32.0917H27.5989V45.3146H21.891C21.2843 45.3146 20.7924 45.8063 20.7924 46.4132C20.7924 47.0201 21.2843 47.5118 21.891 47.5118H27.5989V61.0626H21.891C21.2843 61.0626 20.7924 61.5544 20.7924 62.1613C20.7924 62.7681 21.2843 63.2599 21.891 63.2599H27.5989V71.3194C27.5989 73.3488 29.2499 75 31.2795 75H70.6156C72.645 75 74.2962 73.349 74.2962 71.3194V30.486C74.2962 29.8791 73.8043 29.3873 73.1975 29.3873Z" fill="#9D9863"/>
<path d="M67.2446 16.6236H34.2732C32.8309 16.6236 31.6577 17.7969 31.6577 19.2391V27.4486C31.6577 28.8909 32.8311 30.0641 34.2732 30.0641H67.2443C68.6866 30.0641 69.8597 28.8908 69.8597 27.4486V19.2391H69.8599C69.8599 17.7968 68.6866 16.6236 67.2446 16.6236ZM67.2446 27.8668H34.2732C34.0425 27.8668 33.855 27.6792 33.855 27.4486V19.2391C33.855 19.0085 34.0426 18.8209 34.2732 18.8209H67.2443C67.475 18.8209 67.6625 19.0085 67.6625 19.2391V27.4486H67.6626C67.6626 27.6792 67.475 27.8668 67.2446 27.8668Z" fill="#9D9863"/>
<path d="M37.4972 32.2571H33.8815C32.6553 32.2571 31.6577 33.2547 31.6577 34.4809V38.0117C31.6577 39.238 32.6553 40.2355 33.8815 40.2355H37.4972C38.7234 40.2355 39.7209 39.238 39.7209 38.0117V34.4809C39.7208 33.2547 38.7234 32.2571 37.4972 32.2571ZM37.5235 38.0116C37.5235 38.0262 37.5117 38.0381 37.497 38.0381H33.8813C33.8667 38.0381 33.8548 38.0262 33.8548 38.0116V34.4809C33.8548 34.4662 33.8667 34.4544 33.8813 34.4544H37.497C37.5117 34.4544 37.5235 34.4662 37.5235 34.4809V38.0116Z" fill="#9D9863"/>
<path d="M47.5433 32.2571H43.9276C42.7014 32.2571 41.7039 33.2547 41.7039 34.4809V38.0117C41.7039 39.238 42.7014 40.2355 43.9276 40.2355H47.5433C48.7695 40.2355 49.7671 39.238 49.7671 38.0117V34.4809C49.7672 33.2547 48.7697 32.2571 47.5433 32.2571ZM47.57 38.0116C47.57 38.0262 47.5581 38.0381 47.5434 38.0381H43.9276C43.913 38.0381 43.9011 38.0262 43.9011 38.0116V34.4809C43.9011 34.4662 43.913 34.4544 43.9276 34.4544H47.5433C47.5579 34.4544 47.5698 34.4662 47.5698 34.4809V38.0116H47.57Z" fill="#9D9863"/>
<path d="M57.5897 32.2571H53.974C52.7478 32.2571 51.7502 33.2547 51.7502 34.4809V38.0117C51.7502 39.238 52.7478 40.2355 53.974 40.2355H57.5897C58.8159 40.2355 59.8135 39.238 59.8135 38.0117V34.4809C59.8136 33.2547 58.816 32.2571 57.5897 32.2571ZM57.6163 38.0116C57.6163 38.0262 57.6045 38.0381 57.5898 38.0381H53.9742C53.9595 38.0381 53.9476 38.0262 53.9476 38.0116V34.4809C53.9476 34.4662 53.9595 34.4544 53.9742 34.4544H57.5898C57.6045 34.4544 57.6163 34.4662 57.6163 34.4809V38.0116Z" fill="#9D9863"/>
<path d="M67.6363 32.2571H64.0206C62.7944 32.2571 61.7969 33.2547 61.7969 34.4809V38.0117C61.7969 39.238 62.7944 40.2355 64.0206 40.2355H67.6363C68.8625 40.2355 69.8601 39.238 69.8601 38.0117V34.4809C69.8599 33.2547 68.8625 32.2571 67.6363 32.2571ZM67.6627 38.0116C67.6627 38.0262 67.6508 38.0381 67.6362 38.0381H64.0205C64.0059 38.0381 63.994 38.0262 63.994 38.0116V34.4809C63.994 34.4662 64.0059 34.4544 64.0205 34.4544H67.6362C67.6508 34.4544 67.6627 34.4662 67.6627 34.4809V38.0116Z" fill="#9D9863"/>
<path d="M37.4972 42.424H33.8815C32.6553 42.424 31.6577 43.4215 31.6577 44.6478V48.1786C31.6577 49.4048 32.6553 50.4024 33.8815 50.4024H37.4972C38.7234 50.4024 39.7209 49.4048 39.7209 48.1786V44.6478C39.7208 43.4215 38.7234 42.424 37.4972 42.424ZM37.5235 48.1785C37.5235 48.1931 37.5117 48.205 37.497 48.205H33.8813C33.8667 48.205 33.8548 48.1931 33.8548 48.1785V44.6476C33.8548 44.633 33.8667 44.6211 33.8813 44.6211H37.497C37.5117 44.6211 37.5235 44.633 37.5235 44.6476V48.1785Z" fill="#9D9863"/>
<path d="M47.5433 42.424H43.9276C42.7014 42.424 41.7039 43.4215 41.7039 44.6478V48.1786C41.7039 49.4048 42.7014 50.4024 43.9276 50.4024H47.5433C48.7695 50.4024 49.7671 49.4048 49.7671 48.1786V44.6478C49.7672 43.4215 48.7697 42.424 47.5433 42.424ZM47.57 48.1785C47.57 48.1931 47.5581 48.205 47.5434 48.205H43.9276C43.913 48.205 43.9011 48.1931 43.9011 48.1785V44.6476C43.9011 44.633 43.913 44.6211 43.9276 44.6211H47.5433C47.5579 44.6211 47.5698 44.633 47.5698 44.6476V48.1785H47.57Z" fill="#9D9863"/>
<path d="M57.5897 42.424H53.974C52.7478 42.424 51.7502 43.4215 51.7502 44.6478V48.1786C51.7502 49.4048 52.7478 50.4024 53.974 50.4024H57.5897C58.8159 50.4024 59.8135 49.4048 59.8135 48.1786V44.6478C59.8136 43.4215 58.816 42.424 57.5897 42.424ZM57.6163 48.1785C57.6163 48.1931 57.6045 48.205 57.5898 48.205H53.9742C53.9595 48.205 53.9476 48.1931 53.9476 48.1785V44.6476C53.9476 44.633 53.9595 44.6211 53.9742 44.6211H57.5898C57.6045 44.6211 57.6163 44.633 57.6163 44.6476V48.1785Z" fill="#9D9863"/>
<path d="M67.6363 42.424H64.0206C62.7944 42.424 61.7969 43.4215 61.7969 44.6478V48.1786C61.7969 49.4048 62.7944 50.4024 64.0206 50.4024H67.6363C68.8625 50.4024 69.8601 49.4048 69.8601 48.1786V44.6478C69.8599 43.4215 68.8625 42.424 67.6363 42.424ZM67.6627 48.1785C67.6627 48.1931 67.6508 48.205 67.6362 48.205H64.0205C64.0059 48.205 63.994 48.1931 63.994 48.1785V44.6476C63.994 44.633 64.0059 44.6211 64.0205 44.6211H67.6362C67.6508 44.6211 67.6627 44.633 67.6627 44.6476V48.1785Z" fill="#9D9863"/>
<path d="M37.4972 52.5909H33.8815C32.6553 52.5909 31.6577 53.5884 31.6577 54.8147V58.3455C31.6577 59.5717 32.6553 60.5693 33.8815 60.5693H37.4972C38.7234 60.5693 39.7209 59.5717 39.7209 58.3455V54.8147C39.7208 53.5884 38.7234 52.5909 37.4972 52.5909ZM37.5235 58.3455C37.5235 58.3602 37.5117 58.372 37.497 58.372H33.8813C33.8667 58.372 33.8548 58.3602 33.8548 58.3455V54.8147C33.8548 54.8 33.8667 54.7881 33.8813 54.7881H37.497C37.5117 54.7881 37.5235 54.8 37.5235 54.8147V58.3455Z" fill="#9D9863"/>
<path d="M47.5433 52.5909H43.9276C42.7014 52.5909 41.7039 53.5884 41.7039 54.8147V58.3455C41.7039 59.5717 42.7014 60.5693 43.9276 60.5693H47.5433C48.7695 60.5693 49.7671 59.5717 49.7671 58.3455V54.8147C49.7672 53.5884 48.7697 52.5909 47.5433 52.5909ZM47.57 58.3455C47.57 58.3602 47.5581 58.372 47.5434 58.372H43.9276C43.913 58.372 43.9011 58.3602 43.9011 58.3455V54.8147C43.9011 54.8 43.913 54.7881 43.9276 54.7881H47.5433C47.5579 54.7881 47.5698 54.8 47.5698 54.8147V58.3455H47.57Z" fill="#9D9863"/>
<path d="M57.5897 52.5909H53.974C52.7478 52.5909 51.7502 53.5884 51.7502 54.8147V58.3455C51.7502 59.5717 52.7478 60.5693 53.974 60.5693H57.5897C58.8159 60.5693 59.8135 59.5717 59.8135 58.3455V54.8147C59.8136 53.5884 58.816 52.5909 57.5897 52.5909ZM57.6163 58.3455C57.6163 58.3602 57.6045 58.372 57.5898 58.372H53.9742C53.9595 58.372 53.9476 58.3602 53.9476 58.3455V54.8147C53.9476 54.8 53.9595 54.7881 53.9742 54.7881H57.5898C57.6045 54.7881 57.6163 54.8 57.6163 54.8147V58.3455Z" fill="#9D9863"/>
<path d="M67.6363 52.5909H64.0206C62.7944 52.5909 61.7969 53.5884 61.7969 54.8147V67.9001C61.7969 69.1263 62.7944 70.1239 64.0206 70.1239H67.6363C68.8625 70.1239 69.8601 69.1263 69.8601 67.9001V54.8147C69.8599 53.5884 68.8625 52.5909 67.6363 52.5909ZM67.6627 67.9001C67.6627 67.9147 67.6508 67.9266 67.6362 67.9266H64.0205C64.0059 67.9266 63.994 67.9147 63.994 67.9001V54.8147C63.994 54.8 64.0059 54.7881 64.0205 54.7881H67.6362C67.6508 54.7881 67.6627 54.8 67.6627 54.8147V67.9001Z" fill="#9D9863"/>
<path d="M37.4974 62.1456H33.8817C32.6555 62.1456 31.658 63.1431 31.658 64.3693V67.9002C31.658 69.1264 32.6555 70.124 33.8817 70.124H37.4974C38.7236 70.124 39.7212 69.1264 39.7212 67.9002V64.3693C39.7209 63.1431 38.7235 62.1456 37.4974 62.1456ZM37.5236 67.9001C37.5236 67.9147 37.5118 67.9266 37.4971 67.9266H33.8814C33.8668 67.9266 33.8549 67.9147 33.8549 67.9001V64.3692C33.8549 64.3546 33.8668 64.3427 33.8814 64.3427H37.4971C37.5118 64.3427 37.5236 64.3546 37.5236 64.3692V67.9001Z" fill="#9D9863"/>
<path d="M47.5435 62.1456H43.9279C42.7017 62.1456 41.7041 63.1431 41.7041 64.3693V67.9002C41.7041 69.1264 42.7017 70.124 43.9279 70.124H47.5435C48.7698 70.124 49.7673 69.1264 49.7673 67.9002V64.3693C49.7672 63.1431 48.7696 62.1456 47.5435 62.1456ZM47.5699 67.9001C47.5699 67.9147 47.558 67.9266 47.5434 67.9266H43.9276C43.9129 67.9266 43.9011 67.9147 43.9011 67.9001V64.3692C43.9011 64.3546 43.9129 64.3427 43.9276 64.3427H47.5433C47.5579 64.3427 47.5698 64.3546 47.5698 64.3692V67.9001H47.5699Z" fill="#9D9863"/>
<path d="M57.5899 62.1456H53.9743C52.748 62.1456 51.7505 63.1431 51.7505 64.3693V67.9002C51.7505 69.1264 52.748 70.124 53.9743 70.124H57.5899C58.8162 70.124 59.8137 69.1264 59.8137 67.9002V64.3693C59.8136 63.1431 58.816 62.1456 57.5899 62.1456ZM57.6163 67.9001C57.6163 67.9147 57.6044 67.9266 57.5898 67.9266H53.9741C53.9595 67.9266 53.9476 67.9147 53.9476 67.9001V64.3692C53.9476 64.3546 53.9595 64.3427 53.9741 64.3427H57.5898C57.6044 64.3427 57.6163 64.3546 57.6163 64.3692V67.9001Z" fill="#9D9863"/>
</g>
<defs>
<clipPath id="clip0_2178_152">
<rect width="75" height="75" fill="white"/>
</clipPath>
</defs>
</svg>
