<svg width="75" height="75" viewBox="0 0 75 75" fill="none" xmlns="http://www.w3.org/2000/svg">
<g clip-path="url(#clip0_2178_230)">
<path d="M47.6159 22.0313C47.6159 21.3409 47.0563 20.7813 46.3659 20.7813H11.4063C10.717 20.7813 10.1563 20.2205 10.1563 19.5313V10.7813C10.1563 10.092 10.717 9.53125 11.4063 9.53125H47.6563C48.3455 9.53125 48.9063 10.092 48.9063 10.7813V16.9305C48.9063 17.6208 49.4659 18.1805 50.1563 18.1805C50.8466 18.1805 51.4063 17.6208 51.4063 16.9305V10.7813C51.4063 8.71359 49.7239 7.03125 47.6563 7.03125H11.4063C9.33859 7.03125 7.65625 8.71359 7.65625 10.7813V19.5313C7.65625 21.5989 9.33859 23.2813 11.4063 23.2813H46.3659C47.0563 23.2813 47.6159 22.7216 47.6159 22.0313Z" fill="#9D9863"/>
<path d="M19.6875 30.9558C19.6875 29.1364 18.2073 27.6562 16.388 27.6562H10.9558C9.13641 27.6562 7.65625 29.1364 7.65625 30.9558V34.8255C7.65625 36.6448 9.13641 38.125 10.9558 38.125H16.388C18.2073 38.125 19.6875 36.6448 19.6875 34.8255V30.9558ZM17.1875 34.8255C17.1875 35.2664 16.8289 35.625 16.388 35.625H10.9558C10.5148 35.625 10.1563 35.2664 10.1563 34.8255V30.9558C10.1563 30.5148 10.5148 30.1562 10.9558 30.1562H16.388C16.8289 30.1562 17.1875 30.5148 17.1875 30.9558V34.8255Z" fill="#9D9863"/>
<path d="M35.4688 30.9558C35.4688 29.1364 33.9886 27.6562 32.1692 27.6562H26.737C24.9177 27.6562 23.4375 29.1364 23.4375 30.9558V34.8255C23.4375 36.6448 24.9177 38.125 26.737 38.125H32.1692C33.9886 38.125 35.4688 36.6448 35.4688 34.8255V30.9558ZM32.9688 34.8255C32.9688 35.2664 32.6102 35.625 32.1692 35.625H26.737C26.2961 35.625 25.9375 35.2664 25.9375 34.8255V30.9558C25.9375 30.5148 26.2961 30.1562 26.737 30.1562H32.1692C32.6102 30.1562 32.9688 30.5148 32.9688 30.9558V34.8255Z" fill="#9D9863"/>
<path d="M48.1067 27.6562H42.6745C40.8552 27.6562 39.375 29.1364 39.375 30.9558V34.8255C39.375 36.6448 40.8552 38.125 42.6745 38.125H48.1067C49.9263 38.125 51.4063 36.6448 51.4063 34.8255V30.9558C51.4063 29.1364 49.9261 27.6562 48.1067 27.6562ZM48.9063 34.8255C48.9063 35.2664 48.5475 35.625 48.1067 35.625H42.6745C42.2338 35.625 41.875 35.2664 41.875 34.8255V30.9558C41.875 30.5148 42.2338 30.1562 42.6745 30.1562H48.1067C48.5475 30.1562 48.9063 30.5148 48.9063 30.9558V34.8255Z" fill="#9D9863"/>
<path d="M19.6875 45.9558C19.6875 44.1364 18.2073 42.6562 16.388 42.6562H10.9558C9.13641 42.6562 7.65625 44.1364 7.65625 45.9558V49.8255C7.65625 51.6448 9.13641 53.125 10.9558 53.125H16.388C18.2073 53.125 19.6875 51.6448 19.6875 49.8255V45.9558ZM17.1875 49.8255C17.1875 50.2664 16.8289 50.625 16.388 50.625H10.9558C10.5148 50.625 10.1563 50.2664 10.1563 49.8255V45.9558C10.1563 45.5148 10.5148 45.1562 10.9558 45.1562H16.388C16.8289 45.1562 17.1875 45.5148 17.1875 45.9558V49.8255Z" fill="#9D9863"/>
<path d="M35.4688 45.9558C35.4688 44.1364 33.9886 42.6562 32.1692 42.6562H26.737C24.9177 42.6562 23.4375 44.1364 23.4375 45.9558V49.8255C23.4375 51.6448 24.9177 53.125 26.737 53.125H32.1692C33.9886 53.125 35.4688 51.6448 35.4688 49.8255V45.9558ZM32.9688 49.8255C32.9688 50.2664 32.6102 50.625 32.1692 50.625H26.737C26.2961 50.625 25.9375 50.2664 25.9375 49.8255V45.9558C25.9375 45.5148 26.2961 45.1562 26.737 45.1562H32.1692C32.6102 45.1562 32.9688 45.5148 32.9688 45.9558V49.8255Z" fill="#9D9863"/>
<path d="M16.388 57.6562H10.9558C9.13641 57.6562 7.65625 59.1364 7.65625 60.9558V64.8255C7.65625 66.6448 9.13641 68.125 10.9558 68.125H16.388C18.2073 68.125 19.6875 66.6448 19.6875 64.8255V60.9558C19.6875 59.1364 18.2073 57.6562 16.388 57.6562ZM17.1875 64.8255C17.1875 65.2664 16.8289 65.625 16.388 65.625H10.9558C10.5148 65.625 10.1563 65.2664 10.1563 64.8255V60.9558C10.1563 60.5148 10.5148 60.1562 10.9558 60.1562H16.388C16.8289 60.1562 17.1875 60.5148 17.1875 60.9558V64.8255Z" fill="#9D9863"/>
<path d="M32.1692 57.6562H26.737C24.9177 57.6562 23.4375 59.1364 23.4375 60.9558V64.8255C23.4375 66.6448 24.9177 68.125 26.737 68.125H32.1692C33.9886 68.125 35.4688 66.6448 35.4688 64.8255V60.9558C35.4688 59.1364 33.9886 57.6562 32.1692 57.6562ZM32.9688 64.8255C32.9688 65.2664 32.6102 65.625 32.1692 65.625H26.737C26.2961 65.625 25.9375 65.2664 25.9375 64.8255V60.9558C25.9375 60.5148 26.2961 60.1562 26.737 60.1562H32.1692C32.6102 60.1562 32.9688 60.5148 32.9688 60.9558V64.8255Z" fill="#9D9863"/>
<path d="M58.4375 47.3438C58.4375 46.6534 57.8778 46.0938 57.1875 46.0938C56.4971 46.0938 55.9375 46.6534 55.9375 47.3438V48.9148C53.2789 49.3877 51.2803 51.3352 51.2803 53.66C51.2803 57.3319 54.5495 58.0014 56.9367 58.4902C59.7261 59.0614 60.5945 59.4642 60.5945 60.8711C60.5945 62.148 59.0343 63.2267 57.1873 63.2267C55.9257 63.2267 54.7676 62.7334 54.1648 61.9395C53.7473 61.3897 52.9631 61.2823 52.4134 61.6997C51.8634 62.1172 51.7562 62.9013 52.1736 63.4511C53.0311 64.5806 54.3871 65.3472 55.9373 65.6173V67.1875C55.9373 67.8778 56.497 68.4375 57.1873 68.4375C57.8776 68.4375 58.4373 67.8778 58.4373 67.1875V65.6164C61.0959 65.1436 63.0945 63.1961 63.0945 60.8712C63.0945 57.1994 59.8253 56.5298 57.4381 56.0411C54.6487 55.4698 53.7803 55.067 53.7803 53.6602C53.7803 52.3833 55.3404 51.3045 57.1875 51.3045C58.449 51.3045 59.6071 51.7978 60.21 52.5917C60.6276 53.1416 61.4118 53.2489 61.9614 52.8316C62.5114 52.4141 62.6186 51.63 62.2012 51.0802C61.3437 49.9506 59.9876 49.1841 58.4375 48.9139V47.3438Z" fill="#9D9863"/>
<path d="M65.1892 41.2694C64.573 40.9591 63.8211 41.2069 63.5105 41.8236C63.2 42.4402 63.4483 43.1917 64.0647 43.5022C69.2677 46.1225 72.5 51.3664 72.5 57.1875C72.5 65.6309 65.6308 72.5 57.1875 72.5C48.7442 72.5 41.875 65.6309 41.875 57.1875C41.875 48.7441 48.7442 41.875 57.1875 41.875C57.7178 41.875 58.0427 41.9531 58.4487 41.7119C58.8191 41.4927 59.0466 41.1002 59.0616 40.683C59.063 40.6444 59.0625 6.32922 59.0625 6.25C59.0625 2.80375 56.2588 0 52.8125 0H6.25C2.80375 0 0 2.80375 0 6.25V68.75C0 72.1963 2.80375 75 6.25 75H41.487C42.1773 75 42.737 74.4403 42.737 73.75C42.737 73.0597 42.1773 72.5 41.487 72.5H6.25C4.18234 72.5 2.5 70.8177 2.5 68.75V6.25C2.5 4.18234 4.18234 2.5 6.25 2.5H52.8125C54.8802 2.5 56.5625 4.18234 56.5625 6.25V39.3872C47.0291 39.7177 39.375 47.5748 39.375 57.1875C39.375 67.0094 47.3658 75 57.1875 75C67.0092 75 75 67.0094 75 57.1875C75 50.4164 71.2406 44.3169 65.1892 41.2694Z" fill="#9D9863"/>
<path d="M43.75 18.75C44.4403 18.75 45 18.1903 45 17.5V12.8125C45 12.1222 44.4403 11.5625 43.75 11.5625H42.5C41.8097 11.5625 41.25 12.1222 41.25 12.8125C41.25 13.5028 41.8097 14.0625 42.5 14.0625V17.5C42.5 18.1903 43.0597 18.75 43.75 18.75Z" fill="#9D9863"/>
</g>
<defs>
<clipPath id="clip0_2178_230">
<rect width="75" height="75" fill="white"/>
</clipPath>
</defs>
</svg>
