<svg width="87" height="18" viewBox="0 0 87 18" fill="none" xmlns="http://www.w3.org/2000/svg">
<path d="M15.3851 5.36734L10.84 4.94579L9.03451 0.753371C8.90809 0.459814 8.49188 0.459814 8.36549 0.753371L6.56004 4.94576L2.01492 5.36734C1.69666 5.39684 1.56806 5.79269 1.80816 6.00363L5.23746 9.01621L4.23387 13.4692C4.16359 13.781 4.50034 14.0256 4.77514 13.8624L8.7 11.5319L12.6249 13.8624C12.8997 14.0256 13.2364 13.781 13.1661 13.4692L12.1625 9.01621L15.5918 6.00363C15.8319 5.79269 15.7033 5.39684 15.3851 5.36734Z" fill="#FF8450"/>
<path d="M9.69102 2.27791L9.03448 0.753371C8.90806 0.459814 8.49185 0.459814 8.36546 0.753371L6.56 4.94576L2.01492 5.36734C1.69666 5.39684 1.56806 5.79269 1.80816 6.00363L5.23746 9.01621L4.23387 13.4692C4.16359 13.781 4.50034 14.0256 4.77514 13.8624L5.29751 13.5523C6.15389 8.00871 8.56141 3.93934 9.69102 2.27791Z" fill="#FF8450"/>
<path d="M32.785 5.36734L28.2399 4.94579L26.4344 0.753371C26.308 0.459814 25.8918 0.459814 25.7654 0.753371L23.9599 4.94576L19.4148 5.36734C19.0966 5.39684 18.968 5.79269 19.2081 6.00363L22.6374 9.01621L21.6338 13.4692C21.5635 13.781 21.9002 14.0256 22.175 13.8624L26.0999 11.5319L30.0248 13.8624C30.2996 14.0256 30.6363 13.781 30.566 13.4692L29.5624 9.01621L32.9917 6.00363C33.2318 5.79269 33.1032 5.39684 32.785 5.36734Z" fill="#FF8450"/>
<path d="M27.0909 2.27791L26.4344 0.753371C26.308 0.459814 25.8917 0.459814 25.7654 0.753371L23.9599 4.94576L19.4148 5.36734C19.0966 5.39684 18.968 5.79269 19.2081 6.00363L22.6374 9.01621L21.6338 13.4692C21.5635 13.781 21.9002 14.0256 22.175 13.8624L22.6974 13.5523C23.5538 8.00871 25.9613 3.93934 27.0909 2.27791Z" fill="#FF8450"/>
<path d="M50.1851 5.36734L45.64 4.94579L43.8346 0.753371C43.7081 0.459814 43.2919 0.459814 43.1655 0.753371L41.3601 4.94576L36.815 5.36734C36.4967 5.39684 36.3681 5.79269 36.6082 6.00363L40.0375 9.01621L39.0339 13.4692C38.9636 13.781 39.3004 14.0256 39.5752 13.8624L43.5001 11.5319L47.4249 13.8624C47.6997 14.0256 48.0364 13.781 47.9662 13.4692L46.9626 9.01621L50.3919 6.00363C50.632 5.79269 50.5034 5.39684 50.1851 5.36734Z" fill="#FF8450"/>
<path d="M44.4911 2.27791L43.8345 0.753371C43.7081 0.459814 43.2919 0.459814 43.1655 0.753371L41.3601 4.94576L36.815 5.36734C36.4967 5.39684 36.3681 5.79269 36.6082 6.00363L40.0375 9.01621L39.0339 13.4692C38.9636 13.781 39.3004 14.0256 39.5752 13.8624L40.0976 13.5523C40.9539 8.00871 43.3615 3.93934 44.4911 2.27791Z" fill="#FF8450"/>
<path d="M67.585 5.36734L63.0399 4.94579L61.2345 0.753371C61.108 0.459814 60.6918 0.459814 60.5654 0.753371L58.76 4.94576L54.2149 5.36734C53.8966 5.39684 53.768 5.79269 54.0081 6.00363L57.4374 9.01621L56.4338 13.4692C56.3635 13.781 56.7003 14.0256 56.9751 13.8624L60.9 11.5319L64.8248 13.8624C65.0996 14.0256 65.4363 13.781 65.3661 13.4692L64.3625 9.01621L67.7918 6.00363C68.0319 5.79269 67.9033 5.39684 67.585 5.36734Z" fill="#FF8450"/>
<path d="M61.891 2.27791L61.2344 0.753371C61.108 0.459814 60.6918 0.459814 60.5654 0.753371L58.76 4.94576L54.2149 5.36734C53.8966 5.39684 53.768 5.79269 54.0081 6.00363L57.4374 9.01621L56.4338 13.4692C56.3635 13.781 56.7003 14.0256 56.9751 13.8624L57.4975 13.5523C58.3538 8.00871 60.7614 3.93934 61.891 2.27791Z" fill="#FF8450"/>
<path d="M84.9852 5.36734L80.4401 4.94579L78.6346 0.753371C78.5082 0.459814 78.092 0.459814 77.9656 0.753371L76.1601 4.94576L71.615 5.36734C71.2968 5.39684 71.1682 5.79269 71.4083 6.00363L74.8376 9.01621L73.834 13.4692C73.7637 13.781 74.1004 14.0256 74.3752 13.8624L78.3001 11.5319L82.225 13.8624C82.4998 14.0256 82.8365 13.781 82.7662 13.4692L81.7626 9.01621L85.1919 6.00363C85.432 5.79269 85.3034 5.39684 84.9852 5.36734Z" fill="#FF8450"/>
<path d="M79.2911 2.27791L78.6346 0.753371C78.5082 0.459814 78.0919 0.459814 77.9656 0.753371L76.1601 4.94576L71.615 5.36734C71.2968 5.39684 71.1682 5.79269 71.4083 6.00363L74.8376 9.01621L73.834 13.4692C73.7637 13.781 74.1004 14.0256 74.3752 13.8624L74.8976 13.5523C75.754 8.00871 78.1615 3.93934 79.2911 2.27791Z" fill="#FF8450"/>
</svg>
