<svg width="130" height="15" viewBox="0 0 130 15" fill="none" xmlns="http://www.w3.org/2000/svg">
<path d="M24.3682 10.4893L27.3008 2.04688H28.7295L25.0449 12H24.0264L24.3682 10.4893ZM21.627 2.04688L24.5322 10.4893L24.8945 12H23.876L20.1982 2.04688H21.627ZM32.6465 12.1367C32.1315 12.1367 31.6644 12.0501 31.2451 11.877C30.8304 11.6992 30.4727 11.4508 30.1719 11.1318C29.8757 10.8128 29.6478 10.4346 29.4883 9.99707C29.3288 9.55957 29.249 9.08105 29.249 8.56152V8.27441C29.249 7.67285 29.3379 7.13737 29.5156 6.66797C29.6934 6.19401 29.9349 5.79297 30.2402 5.46484C30.5456 5.13672 30.8919 4.88835 31.2793 4.71973C31.6667 4.55111 32.0677 4.4668 32.4824 4.4668C33.0111 4.4668 33.4668 4.55794 33.8496 4.74023C34.237 4.92253 34.5537 5.17773 34.7998 5.50586C35.0459 5.82943 35.2282 6.21224 35.3467 6.6543C35.4652 7.0918 35.5244 7.57031 35.5244 8.08984V8.65723H30.001V7.625H34.2598V7.5293C34.2415 7.20117 34.1732 6.88216 34.0547 6.57227C33.9408 6.26237 33.7585 6.00716 33.5078 5.80664C33.2572 5.60612 32.9154 5.50586 32.4824 5.50586C32.1953 5.50586 31.931 5.56738 31.6895 5.69043C31.4479 5.80892 31.2406 5.98665 31.0674 6.22363C30.8942 6.46061 30.7598 6.75 30.6641 7.0918C30.5684 7.43359 30.5205 7.8278 30.5205 8.27441V8.56152C30.5205 8.91243 30.5684 9.24284 30.6641 9.55273C30.7643 9.85807 30.9079 10.127 31.0947 10.3594C31.2861 10.5918 31.5163 10.7741 31.7852 10.9062C32.0586 11.0384 32.3685 11.1045 32.7148 11.1045C33.1615 11.1045 33.5397 11.0133 33.8496 10.8311C34.1595 10.6488 34.4307 10.4049 34.6631 10.0996L35.4287 10.708C35.2692 10.9495 35.0664 11.1797 34.8203 11.3984C34.5742 11.6172 34.2712 11.7949 33.9111 11.9316C33.5557 12.0684 33.1341 12.1367 32.6465 12.1367ZM38.2656 5.76562V12H37.001V4.60352H38.2314L38.2656 5.76562ZM40.5762 4.5625L40.5693 5.73828C40.4645 5.71549 40.3643 5.70182 40.2686 5.69727C40.1774 5.68815 40.0726 5.68359 39.9541 5.68359C39.6624 5.68359 39.4049 5.72917 39.1816 5.82031C38.9583 5.91146 38.7692 6.03906 38.6143 6.20312C38.4593 6.36719 38.3363 6.56315 38.2451 6.79102C38.1585 7.01432 38.1016 7.26042 38.0742 7.5293L37.7188 7.73438C37.7188 7.28776 37.762 6.86849 37.8486 6.47656C37.9398 6.08464 38.0788 5.73828 38.2656 5.4375C38.4525 5.13216 38.6895 4.89518 38.9766 4.72656C39.2682 4.55339 39.6146 4.4668 40.0156 4.4668C40.1068 4.4668 40.2116 4.47819 40.3301 4.50098C40.4486 4.51921 40.5306 4.53971 40.5762 4.5625ZM43.1191 4.60352V12H41.8477V4.60352H43.1191ZM41.752 2.6416C41.752 2.43652 41.8135 2.26335 41.9365 2.12207C42.0641 1.98079 42.251 1.91016 42.4971 1.91016C42.7386 1.91016 42.9232 1.98079 43.0508 2.12207C43.1829 2.26335 43.249 2.43652 43.249 2.6416C43.249 2.83757 43.1829 3.00618 43.0508 3.14746C42.9232 3.28418 42.7386 3.35254 42.4971 3.35254C42.251 3.35254 42.0641 3.28418 41.9365 3.14746C41.8135 3.00618 41.752 2.83757 41.752 2.6416ZM46.8379 12H45.5732V3.96094C45.5732 3.40039 45.6826 2.92643 45.9014 2.53906C46.1201 2.15169 46.4323 1.85775 46.8379 1.65723C47.2435 1.45671 47.7243 1.35645 48.2803 1.35645C48.6084 1.35645 48.9297 1.39746 49.2441 1.47949C49.5586 1.55697 49.8822 1.65495 50.2148 1.77344L50.0029 2.83984C49.7933 2.75781 49.5495 2.68034 49.2715 2.60742C48.998 2.52995 48.6973 2.49121 48.3691 2.49121C47.8268 2.49121 47.4349 2.61426 47.1934 2.86035C46.9564 3.10189 46.8379 3.46875 46.8379 3.96094V12ZM48.3486 4.60352V5.57422H44.4043V4.60352H48.3486ZM50.8369 4.60352V12H49.5723V4.60352H50.8369ZM55.9844 12.1367C55.4694 12.1367 55.0023 12.0501 54.583 11.877C54.1683 11.6992 53.8105 11.4508 53.5098 11.1318C53.2135 10.8128 52.9857 10.4346 52.8262 9.99707C52.6667 9.55957 52.5869 9.08105 52.5869 8.56152V8.27441C52.5869 7.67285 52.6758 7.13737 52.8535 6.66797C53.0312 6.19401 53.2728 5.79297 53.5781 5.46484C53.8835 5.13672 54.2298 4.88835 54.6172 4.71973C55.0046 4.55111 55.4056 4.4668 55.8203 4.4668C56.349 4.4668 56.8047 4.55794 57.1875 4.74023C57.5749 4.92253 57.8916 5.17773 58.1377 5.50586C58.3838 5.82943 58.5661 6.21224 58.6846 6.6543C58.8031 7.0918 58.8623 7.57031 58.8623 8.08984V8.65723H53.3389V7.625H57.5977V7.5293C57.5794 7.20117 57.5111 6.88216 57.3926 6.57227C57.2786 6.26237 57.0964 6.00716 56.8457 5.80664C56.5951 5.60612 56.2533 5.50586 55.8203 5.50586C55.5332 5.50586 55.2689 5.56738 55.0273 5.69043C54.7858 5.80892 54.5785 5.98665 54.4053 6.22363C54.2321 6.46061 54.0977 6.75 54.002 7.0918C53.9062 7.43359 53.8584 7.8278 53.8584 8.27441V8.56152C53.8584 8.91243 53.9062 9.24284 54.002 9.55273C54.1022 9.85807 54.2458 10.127 54.4326 10.3594C54.624 10.5918 54.8542 10.7741 55.123 10.9062C55.3965 11.0384 55.7064 11.1045 56.0527 11.1045C56.4993 11.1045 56.8776 11.0133 57.1875 10.8311C57.4974 10.6488 57.7686 10.4049 58.001 10.0996L58.7666 10.708C58.6071 10.9495 58.4043 11.1797 58.1582 11.3984C57.9121 11.6172 57.609 11.7949 57.249 11.9316C56.8936 12.0684 56.472 12.1367 55.9844 12.1367ZM65.001 10.5645V1.5H66.2725V12H65.1104L65.001 10.5645ZM60.0244 8.38379V8.24023C60.0244 7.67513 60.0928 7.16243 60.2295 6.70215C60.3708 6.2373 60.569 5.83854 60.8242 5.50586C61.084 5.17318 61.3916 4.91797 61.7471 4.74023C62.1071 4.55794 62.5081 4.4668 62.9502 4.4668C63.415 4.4668 63.8206 4.54883 64.167 4.71289C64.5179 4.8724 64.8141 5.1071 65.0557 5.41699C65.3018 5.72233 65.4954 6.09147 65.6367 6.52441C65.778 6.95736 65.876 7.44727 65.9307 7.99414V8.62305C65.8805 9.16536 65.7826 9.65299 65.6367 10.0859C65.4954 10.5189 65.3018 10.888 65.0557 11.1934C64.8141 11.4987 64.5179 11.7334 64.167 11.8975C63.8161 12.057 63.4059 12.1367 62.9365 12.1367C62.5036 12.1367 62.1071 12.0433 61.7471 11.8564C61.3916 11.6696 61.084 11.4076 60.8242 11.0703C60.569 10.7331 60.3708 10.3366 60.2295 9.88086C60.0928 9.42057 60.0244 8.92155 60.0244 8.38379ZM61.2959 8.24023V8.38379C61.2959 8.75293 61.3324 9.09928 61.4053 9.42285C61.4827 9.74642 61.6012 10.0312 61.7607 10.2773C61.9202 10.5234 62.123 10.7171 62.3691 10.8584C62.6152 10.9951 62.9092 11.0635 63.251 11.0635C63.6702 11.0635 64.0143 10.9746 64.2832 10.7969C64.5566 10.6191 64.7754 10.3844 64.9395 10.0928C65.1035 9.80111 65.2311 9.48438 65.3223 9.14258V7.49512C65.2676 7.24447 65.1878 7.00293 65.083 6.77051C64.9827 6.53353 64.8506 6.32389 64.6865 6.1416C64.527 5.95475 64.3288 5.80664 64.0918 5.69727C63.8594 5.58789 63.5837 5.5332 63.2646 5.5332C62.9183 5.5332 62.6198 5.60612 62.3691 5.75195C62.123 5.89323 61.9202 6.08919 61.7607 6.33984C61.6012 6.58594 61.4827 6.87305 61.4053 7.20117C61.3324 7.52474 61.2959 7.87109 61.2959 8.24023ZM74.6738 11.0977C74.9746 11.0977 75.2526 11.0361 75.5078 10.9131C75.763 10.79 75.9727 10.6214 76.1367 10.4072C76.3008 10.1885 76.3942 9.9401 76.417 9.66211H77.6201C77.5973 10.0996 77.4492 10.5075 77.1758 10.8857C76.9069 11.2594 76.5537 11.5625 76.1162 11.7949C75.6787 12.0228 75.1979 12.1367 74.6738 12.1367C74.1178 12.1367 73.6325 12.0387 73.2178 11.8428C72.8076 11.6468 72.4658 11.3779 72.1924 11.0361C71.9235 10.6943 71.7207 10.3024 71.584 9.86035C71.4518 9.41374 71.3857 8.94206 71.3857 8.44531V8.1582C71.3857 7.66146 71.4518 7.19206 71.584 6.75C71.7207 6.30339 71.9235 5.90918 72.1924 5.56738C72.4658 5.22559 72.8076 4.95671 73.2178 4.76074C73.6325 4.56478 74.1178 4.4668 74.6738 4.4668C75.2526 4.4668 75.7585 4.58529 76.1914 4.82227C76.6243 5.05469 76.9639 5.3737 77.21 5.7793C77.4606 6.18034 77.5973 6.63607 77.6201 7.14648H76.417C76.3942 6.84115 76.3076 6.56543 76.1572 6.31934C76.0114 6.07324 75.8109 5.87728 75.5557 5.73145C75.305 5.58105 75.0111 5.50586 74.6738 5.50586C74.2865 5.50586 73.9606 5.58333 73.6963 5.73828C73.4365 5.88867 73.2292 6.09375 73.0742 6.35352C72.9238 6.60872 72.8145 6.89355 72.7461 7.20801C72.6823 7.5179 72.6504 7.83464 72.6504 8.1582V8.44531C72.6504 8.76888 72.6823 9.08789 72.7461 9.40234C72.8099 9.7168 72.917 10.0016 73.0674 10.2568C73.2223 10.512 73.4297 10.7171 73.6895 10.8721C73.9538 11.0225 74.2819 11.0977 74.6738 11.0977ZM83.5674 10.291V4.60352H84.8389V12H83.6289L83.5674 10.291ZM83.8066 8.73242L84.333 8.71875C84.333 9.21094 84.2806 9.66667 84.1758 10.0859C84.0755 10.5007 83.9115 10.8607 83.6836 11.166C83.4557 11.4714 83.1572 11.7106 82.7881 11.8838C82.4189 12.0524 81.9701 12.1367 81.4414 12.1367C81.0814 12.1367 80.751 12.0843 80.4502 11.9795C80.154 11.8747 79.8988 11.7129 79.6846 11.4941C79.4704 11.2754 79.304 10.9906 79.1855 10.6396C79.0716 10.2887 79.0146 9.86719 79.0146 9.375V4.60352H80.2793V9.38867C80.2793 9.72135 80.3158 9.99707 80.3887 10.2158C80.4661 10.43 80.5687 10.6009 80.6963 10.7285C80.8285 10.8516 80.9743 10.9382 81.1338 10.9883C81.2979 11.0384 81.4665 11.0635 81.6396 11.0635C82.1774 11.0635 82.6035 10.9609 82.918 10.7559C83.2324 10.5462 83.458 10.266 83.5947 9.91504C83.736 9.55957 83.8066 9.16536 83.8066 8.73242ZM91.0732 10.0381C91.0732 9.85579 91.0322 9.68717 90.9502 9.53223C90.8727 9.37272 90.7109 9.22917 90.4648 9.10156C90.2233 8.9694 89.8587 8.85547 89.3711 8.75977C88.9609 8.67318 88.5895 8.57064 88.2568 8.45215C87.9287 8.33366 87.6484 8.1901 87.416 8.02148C87.1882 7.85286 87.0127 7.65462 86.8896 7.42676C86.7666 7.19889 86.7051 6.93229 86.7051 6.62695C86.7051 6.33529 86.7689 6.05957 86.8965 5.7998C87.0286 5.54004 87.2132 5.3099 87.4502 5.10938C87.6917 4.90885 87.9811 4.75163 88.3184 4.6377C88.6556 4.52376 89.0316 4.4668 89.4463 4.4668C90.0387 4.4668 90.5446 4.57161 90.9639 4.78125C91.3831 4.99089 91.7044 5.27116 91.9277 5.62207C92.151 5.96842 92.2627 6.35352 92.2627 6.77734H90.998C90.998 6.57227 90.9365 6.37402 90.8135 6.18262C90.695 5.98665 90.5195 5.82487 90.2871 5.69727C90.0592 5.56966 89.779 5.50586 89.4463 5.50586C89.0954 5.50586 88.8105 5.56055 88.5918 5.66992C88.3776 5.77474 88.2204 5.90918 88.1201 6.07324C88.0244 6.2373 87.9766 6.41048 87.9766 6.59277C87.9766 6.72949 87.9993 6.85254 88.0449 6.96191C88.0951 7.06673 88.1816 7.16471 88.3047 7.25586C88.4277 7.34245 88.6009 7.42448 88.8242 7.50195C89.0475 7.57943 89.3324 7.6569 89.6787 7.73438C90.2848 7.87109 90.7839 8.03516 91.1758 8.22656C91.5677 8.41797 91.8594 8.65267 92.0508 8.93066C92.2422 9.20866 92.3379 9.5459 92.3379 9.94238C92.3379 10.266 92.2695 10.5622 92.1328 10.8311C92.0007 11.0999 91.807 11.3324 91.5518 11.5283C91.3011 11.7197 91.0003 11.8701 90.6494 11.9795C90.3031 12.0843 89.9134 12.1367 89.4805 12.1367C88.8288 12.1367 88.2773 12.0205 87.8262 11.7881C87.375 11.5557 87.0332 11.2549 86.8008 10.8857C86.5684 10.5166 86.4521 10.127 86.4521 9.7168H87.7236C87.7419 10.0632 87.8421 10.3389 88.0244 10.5439C88.2067 10.7445 88.43 10.888 88.6943 10.9746C88.9587 11.0566 89.2207 11.0977 89.4805 11.0977C89.8268 11.0977 90.1162 11.0521 90.3486 10.9609C90.5856 10.8698 90.7656 10.7445 90.8887 10.585C91.0117 10.4255 91.0732 10.2432 91.0732 10.0381ZM97.0957 4.60352V5.57422H93.0967V4.60352H97.0957ZM94.4502 2.80566H95.7148V10.168C95.7148 10.4186 95.7536 10.6077 95.8311 10.7354C95.9085 10.863 96.0088 10.9473 96.1318 10.9883C96.2549 11.0293 96.387 11.0498 96.5283 11.0498C96.6331 11.0498 96.7425 11.0407 96.8564 11.0225C96.9749 10.9997 97.0638 10.9814 97.123 10.9678L97.1299 12C97.0296 12.0319 96.8975 12.0615 96.7334 12.0889C96.5739 12.1208 96.3802 12.1367 96.1523 12.1367C95.8424 12.1367 95.5576 12.0752 95.2979 11.9521C95.0381 11.8291 94.8307 11.624 94.6758 11.3369C94.5254 11.0452 94.4502 10.6533 94.4502 10.1611V2.80566ZM98.1074 8.38379V8.22656C98.1074 7.69336 98.1849 7.19889 98.3398 6.74316C98.4948 6.28288 98.7181 5.88411 99.0098 5.54688C99.3014 5.20508 99.6546 4.94076 100.069 4.75391C100.484 4.5625 100.949 4.4668 101.464 4.4668C101.983 4.4668 102.451 4.5625 102.865 4.75391C103.285 4.94076 103.64 5.20508 103.932 5.54688C104.228 5.88411 104.453 6.28288 104.608 6.74316C104.763 7.19889 104.841 7.69336 104.841 8.22656V8.38379C104.841 8.91699 104.763 9.41146 104.608 9.86719C104.453 10.3229 104.228 10.7217 103.932 11.0635C103.64 11.4007 103.287 11.665 102.872 11.8564C102.462 12.0433 101.997 12.1367 101.478 12.1367C100.958 12.1367 100.491 12.0433 100.076 11.8564C99.6615 11.665 99.306 11.4007 99.0098 11.0635C98.7181 10.7217 98.4948 10.3229 98.3398 9.86719C98.1849 9.41146 98.1074 8.91699 98.1074 8.38379ZM99.3721 8.22656V8.38379C99.3721 8.75293 99.4154 9.10156 99.502 9.42969C99.5885 9.75326 99.7184 10.0404 99.8916 10.291C100.069 10.5417 100.29 10.7399 100.555 10.8857C100.819 11.027 101.127 11.0977 101.478 11.0977C101.824 11.0977 102.127 11.027 102.387 10.8857C102.651 10.7399 102.87 10.5417 103.043 10.291C103.216 10.0404 103.346 9.75326 103.433 9.42969C103.524 9.10156 103.569 8.75293 103.569 8.38379V8.22656C103.569 7.86198 103.524 7.5179 103.433 7.19434C103.346 6.86621 103.214 6.57682 103.036 6.32617C102.863 6.07096 102.644 5.87044 102.38 5.72461C102.12 5.57878 101.815 5.50586 101.464 5.50586C101.118 5.50586 100.812 5.57878 100.548 5.72461C100.288 5.87044 100.069 6.07096 99.8916 6.32617C99.7184 6.57682 99.5885 6.86621 99.502 7.19434C99.4154 7.5179 99.3721 7.86198 99.3721 8.22656ZM107.685 6.07324V12H106.413V4.60352H107.616L107.685 6.07324ZM107.425 8.02148L106.837 8.00098C106.841 7.49512 106.908 7.02799 107.035 6.59961C107.163 6.16667 107.352 5.79069 107.603 5.47168C107.853 5.15267 108.165 4.90658 108.539 4.7334C108.913 4.55566 109.346 4.4668 109.838 4.4668C110.184 4.4668 110.503 4.51693 110.795 4.61719C111.087 4.71289 111.34 4.86556 111.554 5.0752C111.768 5.28483 111.934 5.55371 112.053 5.88184C112.171 6.20996 112.23 6.60645 112.23 7.07129V12H110.966V7.13281C110.966 6.74544 110.9 6.43555 110.768 6.20312C110.64 5.9707 110.458 5.80208 110.221 5.69727C109.984 5.58789 109.706 5.5332 109.387 5.5332C109.013 5.5332 108.701 5.59928 108.45 5.73145C108.2 5.86361 107.999 6.0459 107.849 6.27832C107.698 6.51074 107.589 6.77734 107.521 7.07812C107.457 7.37435 107.425 7.6888 107.425 8.02148ZM112.217 7.32422L111.369 7.58398C111.374 7.17839 111.44 6.78874 111.567 6.41504C111.7 6.04134 111.889 5.70866 112.135 5.41699C112.385 5.12533 112.693 4.89518 113.058 4.72656C113.422 4.55339 113.839 4.4668 114.309 4.4668C114.705 4.4668 115.056 4.51921 115.361 4.62402C115.671 4.72884 115.931 4.89062 116.141 5.10938C116.355 5.32357 116.517 5.59928 116.626 5.93652C116.735 6.27376 116.79 6.6748 116.79 7.13965V12H115.519V7.12598C115.519 6.71126 115.452 6.38997 115.32 6.16211C115.193 5.92969 115.01 5.7679 114.773 5.67676C114.541 5.58105 114.263 5.5332 113.939 5.5332C113.661 5.5332 113.415 5.58105 113.201 5.67676C112.987 5.77246 112.807 5.90462 112.661 6.07324C112.515 6.2373 112.404 6.42643 112.326 6.64062C112.253 6.85482 112.217 7.08268 112.217 7.32422ZM121.773 12.1367C121.258 12.1367 120.791 12.0501 120.372 11.877C119.957 11.6992 119.6 11.4508 119.299 11.1318C119.003 10.8128 118.775 10.4346 118.615 9.99707C118.456 9.55957 118.376 9.08105 118.376 8.56152V8.27441C118.376 7.67285 118.465 7.13737 118.643 6.66797C118.82 6.19401 119.062 5.79297 119.367 5.46484C119.673 5.13672 120.019 4.88835 120.406 4.71973C120.794 4.55111 121.195 4.4668 121.609 4.4668C122.138 4.4668 122.594 4.55794 122.977 4.74023C123.364 4.92253 123.681 5.17773 123.927 5.50586C124.173 5.82943 124.355 6.21224 124.474 6.6543C124.592 7.0918 124.651 7.57031 124.651 8.08984V8.65723H119.128V7.625H123.387V7.5293C123.368 7.20117 123.3 6.88216 123.182 6.57227C123.068 6.26237 122.885 6.00716 122.635 5.80664C122.384 5.60612 122.042 5.50586 121.609 5.50586C121.322 5.50586 121.058 5.56738 120.816 5.69043C120.575 5.80892 120.368 5.98665 120.194 6.22363C120.021 6.46061 119.887 6.75 119.791 7.0918C119.695 7.43359 119.647 7.8278 119.647 8.27441V8.56152C119.647 8.91243 119.695 9.24284 119.791 9.55273C119.891 9.85807 120.035 10.127 120.222 10.3594C120.413 10.5918 120.643 10.7741 120.912 10.9062C121.186 11.0384 121.495 11.1045 121.842 11.1045C122.288 11.1045 122.667 11.0133 122.977 10.8311C123.286 10.6488 123.558 10.4049 123.79 10.0996L124.556 10.708C124.396 10.9495 124.193 11.1797 123.947 11.3984C123.701 11.6172 123.398 11.7949 123.038 11.9316C122.683 12.0684 122.261 12.1367 121.773 12.1367ZM127.393 5.76562V12H126.128V4.60352H127.358L127.393 5.76562ZM129.703 4.5625L129.696 5.73828C129.591 5.71549 129.491 5.70182 129.396 5.69727C129.304 5.68815 129.2 5.68359 129.081 5.68359C128.789 5.68359 128.532 5.72917 128.309 5.82031C128.085 5.91146 127.896 6.03906 127.741 6.20312C127.586 6.36719 127.463 6.56315 127.372 6.79102C127.285 7.01432 127.229 7.26042 127.201 7.5293L126.846 7.73438C126.846 7.28776 126.889 6.86849 126.976 6.47656C127.067 6.08464 127.206 5.73828 127.393 5.4375C127.579 5.13216 127.816 4.89518 128.104 4.72656C128.395 4.55339 128.742 4.4668 129.143 4.4668C129.234 4.4668 129.339 4.47819 129.457 4.50098C129.576 4.51921 129.658 4.53971 129.703 4.5625Z" fill="white"/>
<path d="M0 7.75C0 3.89453 3.11719 0.75 7 0.75C10.8555 0.75 14 3.89453 14 7.75C14 11.6328 10.8555 14.75 7 14.75C3.11719 14.75 0 11.6328 0 7.75ZM10.1445 6.54688C10.4453 6.24609 10.4453 5.78125 10.1445 5.48047C9.84375 5.17969 9.37891 5.17969 9.07812 5.48047L6.125 8.43359L4.89453 7.23047C4.59375 6.92969 4.12891 6.92969 3.82812 7.23047C3.52734 7.53125 3.52734 7.99609 3.82812 8.29688L5.57812 10.0469C5.87891 10.3477 6.34375 10.3477 6.64453 10.0469L10.1445 6.54688Z" fill="#19AE55"/>
</svg>
