<svg width="34" height="36" viewBox="0 0 34 36" fill="none" xmlns="http://www.w3.org/2000/svg">
<path d="M16.5889 6.57422C16.5769 6.57422 16.5636 6.57422 16.5527 6.57422C13.628 6.57422 10.8749 7.71462 8.79942 9.78643C6.71552 11.8667 5.56787 14.6331 5.56787 17.5748C5.56787 20.404 6.64304 23.0871 8.59525 25.1299C9.57378 26.1544 10.1126 27.4204 10.1126 28.6949V29.6227C10.1126 30.8887 11.143 31.918 12.4079 31.918H20.7302C21.9962 31.918 23.0255 30.8887 23.0255 29.6227V28.6949C23.0255 27.4192 23.5642 26.1531 24.5428 25.1287C26.495 23.0859 27.5702 20.4028 27.5702 17.5748C27.5702 14.6331 26.4225 11.8667 24.3386 9.78643C22.2632 7.71462 19.5112 6.57422 16.5889 6.57422ZM22.9711 23.6259C21.6036 25.0574 20.8498 26.8562 20.8498 28.6937V29.6215C20.8498 29.6879 20.7954 29.7423 20.7289 29.7423H12.4067C12.3402 29.7423 12.2859 29.6879 12.2859 29.6215V28.6937C12.2859 26.8562 11.532 25.0562 10.1645 23.6259C8.60129 21.9902 7.74116 19.8399 7.74116 17.5735C7.74116 15.213 8.6617 12.9938 10.3336 11.3243C11.9983 9.66321 14.2055 8.74751 16.5539 8.74751C16.566 8.74872 16.5769 8.74751 16.5829 8.74751C18.9277 8.74751 21.1361 9.662 22.7996 11.3243C24.4715 12.9938 25.392 15.213 25.392 17.5735C25.3944 19.8411 24.5343 21.9902 22.9711 23.6259Z" fill="#9D9863"/>
<path d="M15.0705 11.5864C12.8453 12.1397 11.1238 13.8708 10.5778 16.1021C10.4352 16.6844 10.7916 17.2739 11.3751 17.4165C11.4609 17.4382 11.5491 17.4479 11.6348 17.4479C12.1229 17.4479 12.5674 17.1157 12.6895 16.6179C13.0374 15.1961 14.1778 14.0484 15.596 13.6969C16.1771 13.5519 16.5323 12.9624 16.3873 12.3789C16.2435 11.7966 15.6528 11.4451 15.0705 11.5864Z" fill="#9D9863"/>
<path d="M19.5342 33.8257H13.6026C13.0022 33.8257 12.5154 34.3125 12.5154 34.9129C12.5154 35.5133 13.0022 36.0002 13.6026 36.0002H19.5342C20.1346 36.0002 20.6214 35.5133 20.6214 34.9129C20.6214 34.3125 20.1346 33.8257 19.5342 33.8257Z" fill="#9D9863"/>
<path d="M16.5684 4.30309C17.1689 4.30309 17.6557 3.81624 17.6557 3.21584V1.08725C17.6557 0.486846 17.1689 0 16.5684 0C15.968 0 15.4812 0.486846 15.4812 1.08725V3.21584C15.4812 3.81624 15.968 4.30309 16.5684 4.30309Z" fill="#9D9863"/>
<path d="M32.0496 14.2661H29.921C29.3206 14.2661 28.8337 14.753 28.8337 15.3534C28.8337 15.9538 29.3206 16.4406 29.921 16.4406H32.0496C32.65 16.4406 33.1368 15.9538 33.1368 15.3534C33.1368 14.753 32.6512 14.2661 32.0496 14.2661Z" fill="#9D9863"/>
<path d="M3.21463 14.2661H1.08725C0.486846 14.2661 0 14.753 0 15.3534C0 15.9538 0.486846 16.4406 1.08725 16.4406H3.21584C3.81624 16.4406 4.30309 15.9538 4.30309 15.3534C4.30309 14.753 3.81503 14.2661 3.21463 14.2661Z" fill="#9D9863"/>
<path d="M7.21698 7.53926C7.4296 7.75188 7.70745 7.85819 7.98651 7.85819C8.26557 7.85819 8.54343 7.75188 8.75604 7.53926C9.18128 7.11523 9.18128 6.42664 8.75604 6.00261L7.2496 4.49617C6.82437 4.07094 6.13578 4.07094 5.71175 4.49617C5.28651 4.9202 5.28651 5.60879 5.71175 6.03282L7.21698 7.53926Z" fill="#9D9863"/>
<path d="M25.8874 4.49624L24.3822 6.00148C23.9569 6.4255 23.9569 7.1141 24.3822 7.53812C24.5948 7.75074 24.8726 7.85705 25.1517 7.85705C25.4307 7.85705 25.7086 7.75074 25.9212 7.53812L27.4265 6.03289C27.8517 5.60886 27.8517 4.92027 27.4265 4.49624C27.0012 4.07222 26.3114 4.07222 25.8874 4.49624Z" fill="#9D9863"/>
</svg>
