<svg width="31" height="31" viewBox="0 0 31 31" fill="none" xmlns="http://www.w3.org/2000/svg">
<g clip-path="url(#clip0_2178_29)">
<path d="M29.5833 16.1457V16.2707H29.7083H30.3541C30.7848 16.2707 31.1249 15.9305 31.1249 15.4998C31.1249 15.0691 30.7848 14.729 30.3541 14.729H29.7083H29.5833V14.854V16.1457Z" fill="#9D9863" stroke="#9D9863" stroke-width="0.25"/>
<path d="M16.1458 14.729H16.0208V14.854V16.1457V16.2707H16.1458H29.7083H29.8333V16.1457V14.854V14.729H29.7083H16.1458Z" fill="#9D9863" stroke="#9D9863" stroke-width="0.25"/>
<path d="M31 15.5H30.875C30.875 15.7926 30.6468 16.0208 30.3542 16.0208H29.7083H29.5833V16.1458V27.7708C29.5833 28.7739 28.7739 29.5833 27.7708 29.5833H16.1458H16.0208V29.7083V30.3542C16.0208 30.6468 15.7926 30.875 15.5 30.875V31V31.125H27.7708C29.6224 31.125 31.125 29.6224 31.125 27.7708V15.5H31Z" fill="#9D9863" stroke="#9D9863" stroke-width="0.25"/>
<path d="M29.5833 14.8542V14.9792H29.7083H30.3542C30.6468 14.9792 30.875 15.2074 30.875 15.5H31H31.125V3.22917C31.125 1.37763 29.6224 -0.125 27.7708 -0.125H15.5V0V0.125C15.7926 0.125 16.0208 0.353202 16.0208 0.645833V1.29167V1.41667H16.1458H27.7708C28.7739 1.41667 29.5833 2.22612 29.5833 3.22917V14.8542Z" fill="#9D9863" stroke="#9D9863" stroke-width="0.25"/>
<path d="M26.6041 8.39583C26.6041 7.96513 26.264 7.625 25.8333 7.625H20.6666C20.2359 7.625 19.8958 7.96513 19.8958 8.39583C19.8958 8.82654 20.2359 9.16667 20.6666 9.16667H25.8333C26.264 9.16667 26.6041 8.82654 26.6041 8.39583Z" fill="#9D9863" stroke="#9D9863" stroke-width="0.25"/>
<path d="M26.6041 21.3123C26.6041 20.8816 26.264 20.5415 25.8333 20.5415H20.6666C20.2359 20.5415 19.8958 20.8816 19.8958 21.3123C19.8958 21.743 20.2359 22.0832 20.6666 22.0832H25.8333C26.264 22.0832 26.6041 21.743 26.6041 21.3123Z" fill="#9D9863" stroke="#9D9863" stroke-width="0.25"/>
<path d="M26.6041 25.1873C26.6041 24.7566 26.264 24.4165 25.8333 24.4165H20.6666C20.2359 24.4165 19.8958 24.7566 19.8958 25.1873C19.8958 25.618 20.2359 25.9582 20.6666 25.9582H25.8333C26.264 25.9582 26.6041 25.618 26.6041 25.1873Z" fill="#9D9863" stroke="#9D9863" stroke-width="0.25"/>
<path d="M16.2709 29.7085V29.5835H16.1459H14.8542H14.7292V29.7085V30.3543C14.7292 30.785 15.0694 31.1252 15.5001 31.1252C15.9308 31.1252 16.2709 30.785 16.2709 30.3543V29.7085Z" fill="#9D9863" stroke="#9D9863" stroke-width="0.25"/>
<path d="M14.8542 16.021H14.7292V16.146V29.7085V29.8335H14.8542H16.1459H16.2709V29.7085V16.146V16.021H16.1459H14.8542Z" fill="#9D9863" stroke="#9D9863" stroke-width="0.25"/>
<path d="M14.8542 14.729H14.7292V14.854V16.1457V16.2707H14.8542H16.1459H16.2709V16.1457V14.854V14.729H16.1459H14.8542Z" fill="#9D9863" stroke="#9D9863" stroke-width="0.25"/>
<path d="M14.8542 1.1665H14.7292V1.2915V14.854V14.979H14.8542H16.1459H16.2709V14.854V1.2915V1.1665H16.1459H14.8542Z" fill="#9D9863" stroke="#9D9863" stroke-width="0.25"/>
<path d="M16.1459 1.41667H16.2709V1.29167V0.645833C16.2709 0.215131 15.9308 -0.125 15.5001 -0.125C15.0694 -0.125 14.7292 0.215131 14.7292 0.645833V1.29167V1.41667H14.8542H16.1459Z" fill="#9D9863" stroke="#9D9863" stroke-width="0.25"/>
<path d="M1.29175 14.729H1.16675V14.854V16.1457V16.2707H1.29175H14.8542H14.9792V16.1457V14.854V14.729H14.8542H1.29175Z" fill="#9D9863" stroke="#9D9863" stroke-width="0.25"/>
<path d="M8.27075 9.04167V9.16667H8.39575H10.3333C10.764 9.16667 11.1041 8.82654 11.1041 8.39583C11.1041 7.96513 10.764 7.625 10.3333 7.625H8.39575H8.27075V7.75V9.04167Z" fill="#9D9863" stroke="#9D9863" stroke-width="0.25"/>
<path d="M7.66161 24.0658L7.57322 24.1542L7.66161 24.2426L9.14482 25.7258C9.28753 25.8827 9.48976 25.9583 9.6875 25.9583C9.88479 25.9583 10.0865 25.8831 10.2292 25.7268C10.5355 25.4321 10.5347 24.9397 10.2269 24.6459L8.74255 23.1616L8.65417 23.0732L8.56578 23.1616L7.66161 24.0658Z" fill="#9D9863" stroke="#9D9863" stroke-width="0.25"/>
<path d="M8.56578 23.3382L8.65417 23.4266L8.74255 23.3382L10.2269 21.8539C10.5351 21.5598 10.5355 21.0664 10.228 20.7718C9.93342 20.4644 9.44005 20.4647 9.14595 20.7729L7.66161 22.2573L7.57322 22.3457L7.66161 22.4341L8.56578 23.3382Z" fill="#9D9863" stroke="#9D9863" stroke-width="0.25"/>
<path d="M6.75365 23.1601L6.66526 23.2485L6.75365 23.3369L7.65787 24.2411L7.74626 24.3295L7.83464 24.2411L8.73886 23.3369L8.82724 23.2485L8.73886 23.1601L7.83464 22.2559L7.74625 22.1675L7.65787 22.2559L6.75365 23.1601Z" fill="#9D9863" stroke="#9D9863" stroke-width="0.25"/>
<path d="M8.52091 9.0415V8.9165H8.39591H7.10425H6.97925V9.0415V10.979C6.97925 11.4097 7.31938 11.7498 7.75008 11.7498C8.18078 11.7498 8.52091 11.4097 8.52091 10.979V9.0415Z" fill="#9D9863" stroke="#9D9863" stroke-width="0.25"/>
<path d="M7.10425 7.625H6.97925V7.75V9.04167V9.16667H7.10425H8.39591H8.52091V9.04167V7.75V7.625H8.39591H7.10425Z" fill="#9D9863" stroke="#9D9863" stroke-width="0.25"/>
<path d="M8.39591 7.87484H8.52091V7.74984V5.81234C8.52091 5.38164 8.18078 5.0415 7.75008 5.0415C7.31938 5.0415 6.97925 5.38164 6.97925 5.81234V7.74984V7.87484H7.10425H8.39591Z" fill="#9D9863" stroke="#9D9863" stroke-width="0.25"/>
<path d="M7.83847 22.4341L7.92686 22.3457L7.83847 22.2573L6.35414 20.7729C6.06004 20.4647 5.56666 20.4644 5.27209 20.7718C4.9646 21.0664 4.96497 21.5598 5.27319 21.8539L6.75753 23.3382L6.84592 23.4266L6.9343 23.3382L7.83847 22.4341Z" fill="#9D9863" stroke="#9D9863" stroke-width="0.25"/>
<path d="M7.22909 7.75V7.625H7.10409H5.16659C4.73588 7.625 4.39575 7.96513 4.39575 8.39583C4.39575 8.82654 4.73588 9.16667 5.16659 9.16667H7.10409H7.22909V9.04167V7.75Z" fill="#9D9863" stroke="#9D9863" stroke-width="0.25"/>
<path d="M6.9343 23.1616L6.84592 23.0732L6.75753 23.1616L5.27319 24.6459C4.96537 24.9397 4.9646 25.4321 5.27089 25.7268C5.41354 25.8831 5.61529 25.9583 5.81258 25.9583C6.01033 25.9583 6.21255 25.8827 6.35526 25.7258L7.83847 24.2426L7.92686 24.1542L7.83847 24.0658L6.9343 23.1616Z" fill="#9D9863" stroke="#9D9863" stroke-width="0.25"/>
<path d="M1.41667 14.854V14.729H1.29167H0.645833C0.215131 14.729 -0.125 15.0691 -0.125 15.4998C-0.125 15.9305 0.215131 16.2707 0.645833 16.2707H1.29167H1.41667V16.1457V14.854Z" fill="#9D9863" stroke="#9D9863" stroke-width="0.25"/>
<path d="M14.8542 1.41667H14.9792V1.29167V0.645833C14.9792 0.353202 15.2074 0.125 15.5 0.125V0V-0.125H3.22917C1.37763 -0.125 -0.125 1.37763 -0.125 3.22917V15.5H0H0.125C0.125 15.2074 0.353202 14.9792 0.645833 14.9792H1.29167H1.41667V14.8542V3.22917C1.41667 2.22612 2.22612 1.41667 3.22917 1.41667H14.8542Z" fill="#9D9863" stroke="#9D9863" stroke-width="0.25"/>
<path d="M14.9792 29.7083V29.5833H14.8542H3.22917C2.22612 29.5833 1.41667 28.7739 1.41667 27.7708V16.1458V16.0208H1.29167H0.645833C0.353202 16.0208 0.125 15.7926 0.125 15.5H0H-0.125V27.7708C-0.125 29.6224 1.37763 31.125 3.22917 31.125H15.5V31V30.875C15.2074 30.875 14.9792 30.6468 14.9792 30.3542V29.7083Z" fill="#9D9863" stroke="#9D9863" stroke-width="0.25"/>
</g>
<defs>
<clipPath id="clip0_2178_29">
<rect width="31" height="31" fill="white"/>
</clipPath>
</defs>
</svg>
