<svg width="57" height="30" viewBox="0 0 57 30" fill="none" xmlns="http://www.w3.org/2000/svg">
<path d="M1.02545 0.000936528C0.190874 -0.0344159 -0.303607 0.938828 0.207298 1.61124L3.06393 5.48627C5.40403 13.4914 8.64302 19.5959 12.8695 23.7244C17.1322 27.8882 22.4074 30 28.5004 30C33.7536 30 39.0741 27.6447 43.0115 24.5787C43.5679 25.3612 44.5031 26.0016 45.6924 26.0016C46.7822 26.0016 47.615 25.3979 48.2105 24.8185C48.806 24.2391 49.2724 23.6502 49.7264 23.298C50.0337 23.0596 50.4793 22.8691 51.0096 22.5506C51.5399 22.2321 52.1628 21.7107 52.4963 20.8825C52.7268 20.3097 52.7627 19.6656 52.5377 19.0832C52.3127 18.5008 51.8074 18.0159 51.1861 17.8025C50.5017 17.5674 49.717 17.6422 48.846 17.979C50.9834 14.5504 52.4963 10.5453 53.9468 5.47221L56.7935 1.61124C57.2842 0.964665 56.8469 0.0246707 56.0444 0.000936528C55.7203 -0.00864688 55.4125 0.145051 55.2216 0.411711L52.3596 4.29455C49.007 6.90675 46.1473 8.55082 42.9324 10.054C42.2358 8.49258 41.1481 7.51531 39.897 7.22464C38.5159 6.94916 36.9423 7.48208 35.8377 8.16099C34.3376 9.11766 31.8032 11.0568 28.1703 13.9977C25.1151 13.9595 21.9806 13.3889 18.7654 12.2773C19.0563 10.9757 19.0115 9.73285 18.5597 8.62955C18.0492 7.38296 17.0495 6.38077 15.71 5.63308C15.0686 5.27506 14.4053 5.03329 13.7375 4.9193C13.0698 4.80531 12.3983 4.8183 11.742 4.97241C10.549 5.25255 9.44835 5.96522 8.43103 7.013C7.1779 6.17921 5.91461 5.27686 4.63882 4.29143L1.77914 0.411711C1.6027 0.164906 1.32513 0.0136255 1.02545 0.000936528ZM12.7966 6.83807C13.4137 6.81678 14.0492 6.98541 14.766 7.38551C15.8268 7.97763 16.4372 8.64538 16.7454 9.398C16.9943 10.0058 17.0598 10.7147 16.9004 11.5815C14.6866 10.6811 12.4338 9.51913 10.1441 8.11023C10.8554 7.45284 11.5372 7.07336 12.1834 6.92163C12.3873 6.87373 12.5909 6.84517 12.7966 6.83807ZM49.866 8.51241C49.5625 8.95325 49.2265 9.40975 48.8545 9.88296C47.5378 11.5575 46.1151 13.1631 44.5964 14.7068C44.2751 13.9169 43.9712 13.0155 43.6086 11.9368C45.7518 10.9401 47.7748 9.86619 49.866 8.51241ZM38.8969 9.12779C39.097 9.11876 39.2859 9.13354 39.4595 9.17387C40.1538 9.33517 40.8044 9.83415 41.3268 11.3402C42.4215 14.4961 42.7803 16.015 44.3738 18.5444C44.8809 19.3493 45.306 19.9411 45.73 20.3726C45.942 20.5883 46.1473 20.7737 46.453 20.913C46.7586 21.0523 47.2923 21.1057 47.6917 20.8482C48.4987 20.3435 49.5603 19.542 50.5575 19.6971C50.9894 19.9507 50.5735 20.4978 50.0103 20.8286C49.651 21.0444 49.1066 21.2646 48.5352 21.708C47.8083 22.2719 47.3054 22.9326 46.852 23.3737C46.3988 23.8148 46.1032 24.0024 45.6924 24.0024C44.9528 24.0024 44.8922 23.8919 44.5457 23.3308C44.1992 22.7696 43.8145 21.7268 43.099 20.4952C42.3846 19.2655 41.7175 18.5727 41.0674 18.0391C40.4174 17.5055 39.8391 17.1329 39.0189 16.2984C37.9738 15.2349 37.4514 14.1417 37.3381 12.913C37.2172 11.5832 35.256 11.771 35.381 13.1004C35.3819 13.1102 35.3839 13.1196 35.3849 13.1293C34.0965 13.4542 32.8201 13.6875 31.5535 13.8306C34.033 11.8656 35.8354 10.5228 36.8815 9.85563C37.5312 9.518 38.2402 9.16635 38.8969 9.12779ZM6.58522 9.8158C11.5451 15.3234 16.813 18.7461 22.3972 19.9813C23.7011 20.3025 24.1319 18.2861 22.8148 18.0274C18.2759 17.0234 13.8704 14.4035 9.60302 10.1157C18.4069 15.5872 26.404 17.4104 35.8645 15.0684C36.2504 16.023 36.8445 16.9128 37.6298 17.7119C38.0105 18.0992 38.3462 18.3948 38.6575 18.6553C36.4851 19.5358 33.7626 20.004 30.4652 20.004C29.1367 19.9848 29.1367 22.0223 30.4652 22.0032C34.4092 22.0032 37.7121 21.3837 40.3629 20.0821C40.6861 20.4111 41.0051 20.8168 41.409 21.5119C41.6684 21.9586 41.872 22.3829 42.0652 22.7935C38.4074 25.7108 33.2708 28.0008 28.5004 28.0008C22.3863 28.0008 17.3958 25.5606 13.8527 21.8962C17.4705 24.1184 22.0344 26.0016 28.5004 26.0016C29.8289 26.0207 29.8289 23.9833 28.5004 24.0024C19.1719 24.0024 14.3732 20.0307 9.92614 16.6998C8.56451 14.4333 7.21031 12.1539 6.58522 9.8158ZM49.6565 12.0352C48.7197 14.3022 47.6779 16.2739 46.4261 18.0649C46.0902 17.5854 45.7918 17.0833 45.512 16.603C46.9828 15.1404 48.3622 13.6161 49.6565 12.0352Z" fill="#9D9863"/>
</svg>
