<svg width="35" height="34" viewBox="0 0 35 34" fill="none" xmlns="http://www.w3.org/2000/svg">
<g clip-path="url(#clip0_2178_61)">
<path d="M26.3657 24.7244H25.0243C24.8477 24.7244 24.6782 24.6542 24.5533 24.5293C24.4284 24.4044 24.3582 24.235 24.3582 24.0584C24.3582 23.8817 24.4284 23.7123 24.5533 23.5874C24.6782 23.4625 24.8477 23.3923 25.0243 23.3923H27.1848C27.2943 23.3933 27.4029 23.3726 27.5044 23.3313C27.6059 23.2901 27.6982 23.2292 27.7759 23.1521C27.8537 23.075 27.9155 22.9832 27.9576 22.8821C27.9998 22.781 28.0215 22.6726 28.0215 22.563C28.0215 22.4535 27.9998 22.3451 27.9576 22.244C27.9155 22.1429 27.8537 22.0511 27.7759 21.974C27.6982 21.8969 27.6059 21.836 27.5044 21.7948C27.4029 21.7535 27.2943 21.7328 27.1848 21.7338H26.5242V21.4186C26.5242 21.1987 26.4369 20.9878 26.2813 20.8322C26.1258 20.6767 25.9149 20.5894 25.6949 20.5894C25.475 20.5894 25.2641 20.6767 25.1086 20.8322C24.953 20.9878 24.8657 21.1987 24.8657 21.4186V21.7398C24.2641 21.7806 23.7019 22.0535 23.2978 22.501C22.8937 22.9485 22.6793 23.5355 22.6998 24.1381C22.7204 24.7407 22.9744 25.3117 23.4081 25.7306C23.8418 26.1495 24.4213 26.3834 25.0243 26.383H26.3657C26.5424 26.383 26.7118 26.4531 26.8367 26.5781C26.9616 26.703 27.0318 26.8724 27.0318 27.049C27.0318 27.2257 26.9616 27.3951 26.8367 27.52C26.7118 27.6449 26.5424 27.7151 26.3657 27.7151H24.1942C23.9743 27.7151 23.7634 27.8024 23.6078 27.958C23.4523 28.1135 23.3649 28.3244 23.3649 28.5444C23.3649 28.7643 23.4523 28.9752 23.6078 29.1307C23.7634 29.2863 23.9743 29.3736 24.1942 29.3736H24.8658V29.6888C24.8658 29.9087 24.9532 30.1197 25.1087 30.2752C25.2642 30.4307 25.4751 30.5181 25.6951 30.5181C25.915 30.5181 26.1259 30.4307 26.2815 30.2752C26.437 30.1197 26.5244 29.9087 26.5244 29.6888V29.3676C27.1261 29.3271 27.6886 29.0543 28.0929 28.6068C28.4972 28.1592 28.7118 27.5721 28.6912 26.9693C28.6706 26.3665 28.4165 25.7954 27.9826 25.3765C27.5487 24.9576 26.9689 24.7238 26.3658 24.7244H26.3657Z" fill="#9D9863"/>
<path d="M25.6949 17.1118C24.0252 17.1118 22.3931 17.6069 21.0048 18.5345C19.6165 19.4622 18.5345 20.7806 17.8955 22.3232C17.2566 23.8657 17.0894 25.5631 17.4151 27.2007C17.7409 28.8383 18.5449 30.3425 19.7255 31.5231C20.9062 32.7038 22.4104 33.5078 24.0479 33.8335C25.6855 34.1593 27.3829 33.9921 28.9255 33.3531C30.4681 32.7142 31.7865 31.6322 32.7141 30.2439C33.6417 28.8556 34.1369 27.2234 34.1369 25.5538C34.1343 23.3156 33.2441 21.1698 31.6615 19.5872C30.0788 18.0046 27.9331 17.1143 25.6949 17.1118ZM25.6949 32.3372C24.3533 32.3372 23.0418 31.9393 21.9262 31.194C20.8107 30.4486 19.9413 29.3892 19.4278 28.1497C18.9144 26.9102 18.7801 25.5463 19.0418 24.2304C19.3036 22.9146 19.9496 21.7059 20.8983 20.7572C21.847 19.8085 23.0557 19.1625 24.3715 18.9007C25.6874 18.639 27.0513 18.7733 28.2908 19.2867C29.5303 19.8002 30.5897 20.6696 31.3351 21.7851C32.0805 22.9006 32.4783 24.2121 32.4783 25.5538C32.4763 27.3522 31.7609 29.0764 30.4892 30.3481C29.2175 31.6198 27.4933 32.3351 25.6949 32.3372Z" fill="#9D9863"/>
<path d="M27.105 13.3958H25.7119C25.482 13.3958 25.2614 13.4872 25.0988 13.6498C24.9362 13.8124 24.8449 14.0329 24.8449 14.2629C24.8449 14.4928 24.9362 14.7134 25.0988 14.876C25.2614 15.0386 25.482 15.1299 25.7119 15.1299H27.9764C28.2155 15.1209 28.4421 15.0206 28.6095 14.8497C28.777 14.6788 28.8727 14.4503 28.8769 14.211C28.8338 10.4283 27.3009 6.81522 24.6107 4.15558C21.9206 1.49595 18.2902 0.00434139 14.5073 0.00439453C6.58355 0.00439453 0.136963 6.45091 0.136963 14.3748C0.136963 22.2986 6.58355 28.7451 14.5073 28.7451C14.6932 28.745 14.8741 28.6853 15.0235 28.5746C15.1728 28.4639 15.2826 28.3081 15.3368 28.1303C15.3627 28.0562 15.3754 27.9781 15.3743 27.8995V25.4674C15.3723 25.2388 15.28 25.0202 15.1177 24.8592C14.9553 24.6982 14.7359 24.6079 14.5072 24.6079C14.2786 24.6079 14.0592 24.6982 13.8968 24.8592C13.7344 25.0202 13.6422 25.2388 13.6402 25.4674V26.9809C7.32498 26.5508 2.26907 21.4602 1.89407 15.1301H3.30275C3.53271 15.1301 3.75325 15.0387 3.91586 14.8761C4.07846 14.7135 4.16981 14.493 4.16981 14.263C4.16981 14.0331 4.07846 13.8125 3.91586 13.6499C3.75325 13.4873 3.53271 13.3959 3.30275 13.3959H1.90868C2.38813 7.16976 7.39942 2.19381 13.6403 1.76874V3.05829C13.6393 3.17278 13.661 3.28635 13.7041 3.39242C13.7473 3.49849 13.811 3.59497 13.8916 3.67629C13.9722 3.75761 14.0681 3.82216 14.1738 3.86621C14.2795 3.91026 14.3929 3.93294 14.5074 3.93294C14.6219 3.93294 14.7352 3.91026 14.8409 3.86621C14.9466 3.82216 15.0425 3.75761 15.1232 3.67629C15.2038 3.59497 15.2675 3.49849 15.3106 3.39242C15.3537 3.28635 15.3754 3.17278 15.3744 3.05829V1.76901C21.5908 2.19653 26.6235 7.18198 27.105 13.3958Z" fill="#9D9863"/>
<path d="M14.5072 8.4917C14.2773 8.4917 14.0567 8.58305 13.8941 8.74566C13.7315 8.90826 13.6402 9.12881 13.6402 9.35877V13.8736L7.77708 17.2527C7.67843 17.3096 7.59195 17.3853 7.52257 17.4756C7.45319 17.5659 7.40227 17.669 7.37273 17.7789C7.34318 17.8889 7.33557 18.0036 7.35035 18.1165C7.36513 18.2294 7.402 18.3383 7.45886 18.4369C7.51572 18.5355 7.59145 18.622 7.68173 18.6914C7.77201 18.7608 7.87508 18.8117 7.98503 18.8413C8.09499 18.8708 8.2097 18.8784 8.32259 18.8636C8.43549 18.8488 8.54437 18.812 8.64302 18.7551L14.9402 15.1259C14.9561 15.1167 14.97 15.1078 14.983 15.099C15.1032 15.0202 15.2019 14.9127 15.2702 14.7863C15.3385 14.6598 15.3743 14.5184 15.3742 14.3746V9.35877C15.3742 9.2449 15.3518 9.13216 15.3082 9.02696C15.2647 8.92176 15.2008 8.82618 15.1203 8.74566C15.0398 8.66515 14.9442 8.60128 14.839 8.5577C14.7338 8.51413 14.6211 8.4917 14.5072 8.4917Z" fill="#9D9863"/>
</g>
<defs>
<clipPath id="clip0_2178_61">
<rect width="34" height="34" fill="white" transform="translate(0.136963)"/>
</clipPath>
</defs>
</svg>
