<svg width="172" height="31" viewBox="0 0 172 31" fill="none" xmlns="http://www.w3.org/2000/svg">
<path d="M71.4609 25.8516H68.5312V24.1641H71.4609C71.9401 24.1641 72.3281 24.0859 72.625 23.9297C72.9271 23.7682 73.1484 23.5495 73.2891 23.2734C73.4297 22.9922 73.5 22.6719 73.5 22.3125C73.5 21.9635 73.4297 21.638 73.2891 21.3359C73.1484 21.0339 72.9271 20.7891 72.625 20.6016C72.3281 20.4141 71.9401 20.3203 71.4609 20.3203H69.2344V30H67.0859V18.625H71.4609C72.3464 18.625 73.1016 18.7839 73.7266 19.1016C74.3568 19.4141 74.8359 19.849 75.1641 20.4062C75.4974 20.9583 75.6641 21.5885 75.6641 22.2969C75.6641 23.0312 75.4974 23.6641 75.1641 24.1953C74.8359 24.7266 74.3568 25.1354 73.7266 25.4219C73.1016 25.7083 72.3464 25.8516 71.4609 25.8516ZM80.8828 30.1562C80.2422 30.1562 79.6667 30.0521 79.1562 29.8438C78.6458 29.6354 78.2109 29.3464 77.8516 28.9766C77.4974 28.6016 77.224 28.1667 77.0312 27.6719C76.8438 27.1719 76.75 26.6354 76.75 26.0625V25.75C76.75 25.099 76.8438 24.5078 77.0312 23.9766C77.2188 23.4401 77.4844 22.9792 77.8281 22.5938C78.1719 22.2083 78.5833 21.9115 79.0625 21.7031C79.5417 21.4948 80.0703 21.3906 80.6484 21.3906C81.2474 21.3906 81.776 21.4922 82.2344 21.6953C82.6927 21.8932 83.0755 22.1745 83.3828 22.5391C83.6901 22.9036 83.9219 23.3411 84.0781 23.8516C84.2344 24.3568 84.3125 24.9167 84.3125 25.5312V26.3984H77.6875V24.9766H82.2812V24.8203C82.2708 24.4922 82.2083 24.1927 82.0938 23.9219C81.9792 23.6458 81.8021 23.4271 81.5625 23.2656C81.3229 23.099 81.013 23.0156 80.6328 23.0156C80.3255 23.0156 80.0573 23.0833 79.8281 23.2188C79.6042 23.349 79.4167 23.5365 79.2656 23.7812C79.1198 24.0208 79.0104 24.3073 78.9375 24.6406C78.8646 24.974 78.8281 25.3438 78.8281 25.75V26.0625C78.8281 26.4167 78.875 26.7448 78.9688 27.0469C79.0677 27.349 79.2109 27.612 79.3984 27.8359C79.5911 28.0547 79.8203 28.2266 80.0859 28.3516C80.3568 28.4714 80.6641 28.5312 81.0078 28.5312C81.4401 28.5312 81.8307 28.4479 82.1797 28.2812C82.5339 28.1094 82.8411 27.8568 83.1016 27.5234L84.1406 28.6016C83.9635 28.862 83.724 29.112 83.4219 29.3516C83.125 29.5911 82.7656 29.7865 82.3438 29.9375C81.9219 30.0833 81.4349 30.1562 80.8828 30.1562ZM90.3516 28.2031V24.3047C90.3516 24.0182 90.3021 23.7708 90.2031 23.5625C90.1042 23.3542 89.9531 23.1927 89.75 23.0781C89.5469 22.9635 89.2891 22.9062 88.9766 22.9062C88.7005 22.9062 88.4583 22.9531 88.25 23.0469C88.0469 23.1406 87.8906 23.2734 87.7812 23.4453C87.6719 23.612 87.6172 23.8047 87.6172 24.0234H85.5469C85.5469 23.6745 85.6302 23.3438 85.7969 23.0312C85.9635 22.7135 86.2005 22.4323 86.5078 22.1875C86.8203 21.9375 87.1927 21.7422 87.625 21.6016C88.0625 21.4609 88.5521 21.3906 89.0938 21.3906C89.7344 21.3906 90.3047 21.5 90.8047 21.7188C91.3099 21.9323 91.7057 22.2552 91.9922 22.6875C92.2839 23.1198 92.4297 23.6641 92.4297 24.3203V28.0078C92.4297 28.4297 92.4557 28.7917 92.5078 29.0938C92.5651 29.3906 92.6484 29.6484 92.7578 29.8672V30H90.6562C90.5573 29.7865 90.4818 29.5156 90.4297 29.1875C90.3776 28.8542 90.3516 28.526 90.3516 28.2031ZM90.6406 24.8516L90.6562 26.0781H89.3516C89.0286 26.0781 88.7448 26.112 88.5 26.1797C88.2552 26.2422 88.0547 26.3359 87.8984 26.4609C87.7422 26.5807 87.625 26.7266 87.5469 26.8984C87.4688 27.0651 87.4297 27.2552 87.4297 27.4688C87.4297 27.6771 87.4766 27.8646 87.5703 28.0312C87.6693 28.1979 87.8099 28.3307 87.9922 28.4297C88.1797 28.5234 88.3984 28.5703 88.6484 28.5703C89.013 28.5703 89.3307 28.4974 89.6016 28.3516C89.8724 28.2005 90.0833 28.0182 90.2344 27.8047C90.3854 27.5911 90.4661 27.388 90.4766 27.1953L91.0703 28.0859C90.9974 28.2995 90.888 28.526 90.7422 28.7656C90.5964 29.0052 90.4089 29.2292 90.1797 29.4375C89.9505 29.6458 89.6745 29.8177 89.3516 29.9531C89.0286 30.0885 88.6536 30.1562 88.2266 30.1562C87.6797 30.1562 87.1901 30.0469 86.7578 29.8281C86.3255 29.6094 85.9844 29.3099 85.7344 28.9297C85.4844 28.5495 85.3594 28.1172 85.3594 27.6328C85.3594 27.1849 85.4427 26.7891 85.6094 26.4453C85.776 26.1016 86.0234 25.8125 86.3516 25.5781C86.6797 25.3385 87.0859 25.1589 87.5703 25.0391C88.0599 24.9141 88.6198 24.8516 89.25 24.8516H90.6406ZM97.7578 28.5312C98.0495 28.5312 98.3099 28.474 98.5391 28.3594C98.7682 28.2448 98.9505 28.0833 99.0859 27.875C99.2266 27.6667 99.3021 27.4245 99.3125 27.1484H101.258C101.247 27.7214 101.086 28.2344 100.773 28.6875C100.461 29.1406 100.044 29.5 99.5234 29.7656C99.0078 30.026 98.4297 30.1562 97.7891 30.1562C97.138 30.1562 96.5703 30.0469 96.0859 29.8281C95.6016 29.6094 95.1979 29.3047 94.875 28.9141C94.5573 28.5234 94.3177 28.0703 94.1562 27.5547C94 27.0391 93.9219 26.487 93.9219 25.8984V25.6484C93.9219 25.0599 94 24.5078 94.1562 23.9922C94.3177 23.4766 94.5573 23.0234 94.875 22.6328C95.1979 22.2422 95.6016 21.9375 96.0859 21.7188C96.5703 21.5 97.1354 21.3906 97.7812 21.3906C98.4635 21.3906 99.0625 21.5234 99.5781 21.7891C100.099 22.0547 100.505 22.4297 100.797 22.9141C101.094 23.3984 101.247 23.9688 101.258 24.625H99.3125C99.3021 24.3229 99.2344 24.0521 99.1094 23.8125C98.9844 23.5729 98.8073 23.3802 98.5781 23.2344C98.349 23.0885 98.0703 23.0156 97.7422 23.0156C97.3932 23.0156 97.1016 23.0885 96.8672 23.2344C96.638 23.3802 96.4583 23.5807 96.3281 23.8359C96.2031 24.0859 96.1146 24.3672 96.0625 24.6797C96.0156 24.987 95.9922 25.3099 95.9922 25.6484V25.8984C95.9922 26.2422 96.0156 26.5703 96.0625 26.8828C96.1146 27.1953 96.2031 27.4766 96.3281 27.7266C96.4583 27.9714 96.638 28.1667 96.8672 28.3125C97.1016 28.4583 97.3984 28.5312 97.7578 28.5312ZM106.43 30.1562C105.789 30.1562 105.214 30.0521 104.703 29.8438C104.193 29.6354 103.758 29.3464 103.398 28.9766C103.044 28.6016 102.771 28.1667 102.578 27.6719C102.391 27.1719 102.297 26.6354 102.297 26.0625V25.75C102.297 25.099 102.391 24.5078 102.578 23.9766C102.766 23.4401 103.031 22.9792 103.375 22.5938C103.719 22.2083 104.13 21.9115 104.609 21.7031C105.089 21.4948 105.617 21.3906 106.195 21.3906C106.794 21.3906 107.323 21.4922 107.781 21.6953C108.24 21.8932 108.622 22.1745 108.93 22.5391C109.237 22.9036 109.469 23.3411 109.625 23.8516C109.781 24.3568 109.859 24.9167 109.859 25.5312V26.3984H103.234V24.9766H107.828V24.8203C107.818 24.4922 107.755 24.1927 107.641 23.9219C107.526 23.6458 107.349 23.4271 107.109 23.2656C106.87 23.099 106.56 23.0156 106.18 23.0156C105.872 23.0156 105.604 23.0833 105.375 23.2188C105.151 23.349 104.964 23.5365 104.812 23.7812C104.667 24.0208 104.557 24.3073 104.484 24.6406C104.411 24.974 104.375 25.3438 104.375 25.75V26.0625C104.375 26.4167 104.422 26.7448 104.516 27.0469C104.615 27.349 104.758 27.612 104.945 27.8359C105.138 28.0547 105.367 28.2266 105.633 28.3516C105.904 28.4714 106.211 28.5312 106.555 28.5312C106.987 28.5312 107.378 28.4479 107.727 28.2812C108.081 28.1094 108.388 27.8568 108.648 27.5234L109.688 28.6016C109.51 28.862 109.271 29.112 108.969 29.3516C108.672 29.5911 108.312 29.7865 107.891 29.9375C107.469 30.0833 106.982 30.1562 106.43 30.1562ZM124.594 24.0234V24.6094C124.594 25.4688 124.479 26.2422 124.25 26.9297C124.021 27.612 123.695 28.1927 123.273 28.6719C122.852 29.151 122.349 29.5182 121.766 29.7734C121.182 30.0286 120.534 30.1562 119.82 30.1562C119.117 30.1562 118.471 30.0286 117.883 29.7734C117.299 29.5182 116.794 29.151 116.367 28.6719C115.94 28.1927 115.609 27.612 115.375 26.9297C115.141 26.2422 115.023 25.4688 115.023 24.6094V24.0234C115.023 23.1589 115.141 22.3854 115.375 21.7031C115.609 21.0208 115.938 20.4401 116.359 19.9609C116.781 19.4766 117.284 19.1068 117.867 18.8516C118.456 18.5964 119.102 18.4688 119.805 18.4688C120.518 18.4688 121.167 18.5964 121.75 18.8516C122.333 19.1068 122.836 19.4766 123.258 19.9609C123.685 20.4401 124.013 21.0208 124.242 21.7031C124.477 22.3854 124.594 23.1589 124.594 24.0234ZM122.422 24.6094V24.0078C122.422 23.388 122.365 22.8438 122.25 22.375C122.135 21.901 121.966 21.5026 121.742 21.1797C121.518 20.8568 121.242 20.6146 120.914 20.4531C120.586 20.2865 120.216 20.2031 119.805 20.2031C119.388 20.2031 119.018 20.2865 118.695 20.4531C118.378 20.6146 118.107 20.8568 117.883 21.1797C117.659 21.5026 117.487 21.901 117.367 22.375C117.253 22.8438 117.195 23.388 117.195 24.0078V24.6094C117.195 25.224 117.253 25.7682 117.367 26.2422C117.487 26.7161 117.659 27.1172 117.883 27.4453C118.112 27.7682 118.388 28.013 118.711 28.1797C119.034 28.3464 119.404 28.4297 119.82 28.4297C120.237 28.4297 120.607 28.3464 120.93 28.1797C121.253 28.013 121.523 27.7682 121.742 27.4453C121.966 27.1172 122.135 26.7161 122.25 26.2422C122.365 25.7682 122.422 25.224 122.422 24.6094ZM128.961 30H126.883V20.7656C126.883 20.1302 127.005 19.5964 127.25 19.1641C127.495 18.7266 127.844 18.3958 128.297 18.1719C128.75 17.9479 129.284 17.8359 129.898 17.8359C130.102 17.8359 130.294 17.849 130.477 17.875C130.664 17.901 130.849 17.9375 131.031 17.9844L130.992 19.5547C130.893 19.5286 130.784 19.5104 130.664 19.5C130.549 19.4896 130.422 19.4844 130.281 19.4844C130 19.4844 129.76 19.5339 129.562 19.6328C129.365 19.7318 129.214 19.8776 129.109 20.0703C129.01 20.2578 128.961 20.4896 128.961 20.7656V30ZM130.672 21.5469V23.0312H125.609V21.5469H130.672ZM137.023 18.625H138.883L141.992 27.1875L145.094 18.625H146.961L142.734 30H141.242L137.023 18.625ZM136.086 18.625H137.906L138.234 26.4922V30H136.086V18.625ZM146.07 18.625H147.898V30H145.75V26.4922L146.07 18.625ZM152.117 21.5469V30H150.047V21.5469H152.117ZM149.906 19.3359C149.906 19.0286 150.01 18.7734 150.219 18.5703C150.432 18.3672 150.719 18.2656 151.078 18.2656C151.438 18.2656 151.721 18.3672 151.93 18.5703C152.143 18.7734 152.25 19.0286 152.25 19.3359C152.25 19.638 152.143 19.8906 151.93 20.0938C151.721 20.2969 151.438 20.3984 151.078 20.3984C150.719 20.3984 150.432 20.2969 150.219 20.0938C150.01 19.8906 149.906 19.638 149.906 19.3359ZM156.109 23.3516V30H154.047V21.5469H155.984L156.109 23.3516ZM155.781 25.4688H155.172C155.177 24.8542 155.26 24.2969 155.422 23.7969C155.583 23.2969 155.81 22.8672 156.102 22.5078C156.398 22.1484 156.75 21.8724 157.156 21.6797C157.562 21.487 158.016 21.3906 158.516 21.3906C158.922 21.3906 159.289 21.4479 159.617 21.5625C159.945 21.6771 160.227 21.8594 160.461 22.1094C160.701 22.3594 160.883 22.6875 161.008 23.0938C161.138 23.4948 161.203 23.9896 161.203 24.5781V30H159.125V24.5625C159.125 24.1771 159.068 23.8724 158.953 23.6484C158.844 23.4245 158.682 23.2656 158.469 23.1719C158.26 23.0781 158.003 23.0312 157.695 23.0312C157.378 23.0312 157.099 23.0964 156.859 23.2266C156.625 23.3516 156.427 23.526 156.266 23.75C156.109 23.974 155.99 24.2318 155.906 24.5234C155.823 24.8151 155.781 25.1302 155.781 25.4688ZM168.094 28.2031V18H170.172V30H168.297L168.094 28.2031ZM162.664 25.875V25.7109C162.664 25.0651 162.737 24.4792 162.883 23.9531C163.034 23.4219 163.253 22.9661 163.539 22.5859C163.826 22.2057 164.172 21.9115 164.578 21.7031C164.99 21.4948 165.456 21.3906 165.977 21.3906C166.482 21.3906 166.922 21.4922 167.297 21.6953C167.677 21.8984 168 22.1875 168.266 22.5625C168.536 22.9375 168.753 23.3828 168.914 23.8984C169.076 24.4089 169.193 24.9714 169.266 25.5859V26.0312C169.193 26.6302 169.076 27.1797 168.914 27.6797C168.753 28.1797 168.536 28.6172 168.266 28.9922C168 29.362 167.677 29.6484 167.297 29.8516C166.917 30.0547 166.471 30.1562 165.961 30.1562C165.445 30.1562 164.982 30.0495 164.57 29.8359C164.164 29.6224 163.818 29.3229 163.531 28.9375C163.25 28.5521 163.034 28.099 162.883 27.5781C162.737 27.0573 162.664 26.4896 162.664 25.875ZM164.734 25.7109V25.875C164.734 26.2396 164.766 26.5807 164.828 26.8984C164.891 27.2161 164.992 27.4974 165.133 27.7422C165.273 27.9818 165.453 28.1693 165.672 28.3047C165.896 28.4401 166.167 28.5078 166.484 28.5078C166.891 28.5078 167.224 28.4193 167.484 28.2422C167.75 28.0599 167.956 27.8125 168.102 27.5C168.247 27.1823 168.341 26.8255 168.383 26.4297V25.2031C168.362 24.8906 168.307 24.6016 168.219 24.3359C168.135 24.0703 168.016 23.8411 167.859 23.6484C167.708 23.4557 167.521 23.3047 167.297 23.1953C167.073 23.0859 166.807 23.0312 166.5 23.0312C166.182 23.0312 165.911 23.1016 165.688 23.2422C165.464 23.3776 165.281 23.5677 165.141 23.8125C165 24.0573 164.896 24.3411 164.828 24.6641C164.766 24.987 164.734 25.3359 164.734 25.7109Z" fill="#224859"/>
<path d="M73.4512 10.2822V11H67.8525V10.2822H73.4512ZM68.1055 1.04688V11H67.2646V1.04688H68.1055ZM72.7539 5.51074V6.22852H67.8525V5.51074H72.7539ZM73.417 1.04688V1.77148H67.8525V1.04688H73.417ZM75.8574 5.18262V11H75.0439V3.60352H75.8232L75.8574 5.18262ZM75.6729 6.84375L75.3105 6.63867C75.3379 6.20117 75.4268 5.79102 75.5771 5.4082C75.7275 5.02539 75.9303 4.68815 76.1855 4.39648C76.4453 4.10482 76.7484 3.87695 77.0947 3.71289C77.4456 3.54883 77.833 3.4668 78.2568 3.4668C78.626 3.4668 78.9564 3.51693 79.248 3.61719C79.5397 3.71745 79.7881 3.87695 79.9932 4.0957C80.1982 4.31445 80.3532 4.59473 80.458 4.93652C80.5674 5.27832 80.6221 5.69531 80.6221 6.1875V11H79.8018V6.18066C79.8018 5.67025 79.7311 5.27148 79.5898 4.98438C79.4486 4.69271 79.248 4.48535 78.9883 4.3623C78.7285 4.23926 78.4209 4.17773 78.0654 4.17773C77.6735 4.17773 77.3294 4.26432 77.0332 4.4375C76.7415 4.60612 76.4954 4.82715 76.2949 5.10059C76.099 5.36947 75.9486 5.65885 75.8438 5.96875C75.7389 6.27409 75.682 6.56576 75.6729 6.84375ZM82.8027 3.60352H83.623V11.8818C83.623 12.333 83.5479 12.7158 83.3975 13.0303C83.2471 13.3447 83.0283 13.5817 82.7412 13.7412C82.4541 13.9053 82.1009 13.9873 81.6816 13.9873C81.5677 13.9873 81.4447 13.9759 81.3125 13.9531C81.1803 13.9303 81.0596 13.8984 80.9502 13.8574L80.9639 13.1738C81.0459 13.1966 81.1439 13.2171 81.2578 13.2354C81.3672 13.2581 81.4743 13.2695 81.5791 13.2695C81.8434 13.2695 82.0667 13.2171 82.249 13.1123C82.4313 13.012 82.568 12.8594 82.6592 12.6543C82.7549 12.4492 82.8027 12.1917 82.8027 11.8818V3.60352ZM82.6592 1.46387C82.6592 1.30892 82.7093 1.17904 82.8096 1.07422C82.9098 0.964844 83.0465 0.910156 83.2197 0.910156C83.3929 0.910156 83.5296 0.964844 83.6299 1.07422C83.7347 1.17904 83.7871 1.30892 83.7871 1.46387C83.7871 1.61426 83.7347 1.74414 83.6299 1.85352C83.5296 1.95833 83.3929 2.01074 83.2197 2.01074C83.0465 2.01074 82.9098 1.95833 82.8096 1.85352C82.7093 1.74414 82.6592 1.61426 82.6592 1.46387ZM85.4893 7.41797V7.19238C85.4893 6.65462 85.5667 6.15788 85.7217 5.70215C85.8766 5.24642 86.0977 4.85221 86.3848 4.51953C86.6764 4.18685 87.0251 3.92936 87.4307 3.74707C87.8363 3.56022 88.2874 3.4668 88.7842 3.4668C89.2855 3.4668 89.7389 3.56022 90.1445 3.74707C90.5501 3.92936 90.8988 4.18685 91.1904 4.51953C91.4821 4.85221 91.7054 5.24642 91.8604 5.70215C92.0153 6.15788 92.0928 6.65462 92.0928 7.19238V7.41797C92.0928 7.95573 92.0153 8.45247 91.8604 8.9082C91.7054 9.35938 91.4821 9.7513 91.1904 10.084C90.9033 10.4167 90.557 10.6764 90.1514 10.8633C89.7458 11.0456 89.2946 11.1367 88.7979 11.1367C88.2965 11.1367 87.8431 11.0456 87.4375 10.8633C87.0319 10.6764 86.6833 10.4167 86.3916 10.084C86.0999 9.7513 85.8766 9.35938 85.7217 8.9082C85.5667 8.45247 85.4893 7.95573 85.4893 7.41797ZM86.3027 7.19238V7.41797C86.3027 7.82357 86.3574 8.20866 86.4668 8.57324C86.5762 8.93327 86.7357 9.25456 86.9453 9.53711C87.1549 9.8151 87.4147 10.0339 87.7246 10.1934C88.0345 10.3529 88.3923 10.4326 88.7979 10.4326C89.1989 10.4326 89.5521 10.3529 89.8574 10.1934C90.1673 10.0339 90.4271 9.8151 90.6367 9.53711C90.8464 9.25456 91.0036 8.93327 91.1084 8.57324C91.2178 8.20866 91.2725 7.82357 91.2725 7.41797V7.19238C91.2725 6.79134 91.2178 6.41081 91.1084 6.05078C91.0036 5.69076 90.8441 5.36947 90.6299 5.08691C90.4202 4.80436 90.1605 4.58105 89.8506 4.41699C89.5407 4.25293 89.1852 4.1709 88.7842 4.1709C88.3831 4.1709 88.0277 4.25293 87.7178 4.41699C87.4124 4.58105 87.1527 4.80436 86.9385 5.08691C86.7288 5.36947 86.5693 5.69076 86.46 6.05078C86.3551 6.41081 86.3027 6.79134 86.3027 7.19238ZM95.873 10.2617L98.1768 3.60352H99.0586L95.9277 12.1895C95.8639 12.3581 95.7819 12.5449 95.6816 12.75C95.5859 12.9551 95.4583 13.151 95.2988 13.3379C95.1439 13.5293 94.9479 13.6842 94.7109 13.8027C94.4785 13.9258 94.1937 13.9873 93.8564 13.9873C93.7699 13.9873 93.6582 13.9759 93.5215 13.9531C93.3893 13.9349 93.2936 13.9167 93.2344 13.8984L93.2275 13.208C93.2777 13.2217 93.3506 13.2331 93.4463 13.2422C93.542 13.2513 93.6081 13.2559 93.6445 13.2559C93.9408 13.2559 94.1891 13.2057 94.3896 13.1055C94.5947 13.0052 94.7656 12.8548 94.9023 12.6543C95.0391 12.4583 95.1598 12.2122 95.2646 11.916L95.873 10.2617ZM93.7197 3.60352L96.0781 9.9541L96.2969 10.8086L95.7021 11.1436L92.8311 3.60352H93.7197Z" fill="#224859"/>
<path d="M1.02545 0.000936528C0.190874 -0.0344159 -0.303607 0.938828 0.207298 1.61124L3.06393 5.48627C5.40403 13.4914 8.64302 19.5959 12.8695 23.7244C17.1322 27.8882 22.4074 30 28.5004 30C33.7536 30 39.0741 27.6447 43.0115 24.5787C43.5679 25.3612 44.5031 26.0016 45.6924 26.0016C46.7822 26.0016 47.615 25.3979 48.2105 24.8185C48.806 24.2391 49.2724 23.6502 49.7264 23.298C50.0337 23.0596 50.4793 22.8691 51.0096 22.5506C51.5399 22.2321 52.1628 21.7107 52.4963 20.8825C52.7268 20.3097 52.7627 19.6656 52.5377 19.0832C52.3127 18.5008 51.8074 18.0159 51.1861 17.8025C50.5017 17.5674 49.717 17.6422 48.846 17.979C50.9834 14.5504 52.4963 10.5453 53.9468 5.47221L56.7935 1.61124C57.2842 0.964665 56.8469 0.0246707 56.0444 0.000936528C55.7203 -0.00864688 55.4125 0.145051 55.2216 0.411711L52.3596 4.29455C49.007 6.90675 46.1473 8.55082 42.9324 10.054C42.2358 8.49258 41.1481 7.51531 39.897 7.22464C38.5159 6.94916 36.9423 7.48208 35.8377 8.16099C34.3376 9.11766 31.8032 11.0568 28.1703 13.9977C25.1151 13.9595 21.9806 13.3889 18.7654 12.2773C19.0563 10.9757 19.0115 9.73285 18.5597 8.62955C18.0492 7.38296 17.0495 6.38077 15.71 5.63308C15.0686 5.27506 14.4053 5.03329 13.7375 4.9193C13.0698 4.80531 12.3983 4.8183 11.742 4.97241C10.549 5.25255 9.44835 5.96522 8.43103 7.013C7.1779 6.17921 5.91461 5.27686 4.63882 4.29143L1.77914 0.411711C1.6027 0.164906 1.32513 0.0136255 1.02545 0.000936528ZM12.7966 6.83807C13.4137 6.81678 14.0492 6.98541 14.766 7.38551C15.8268 7.97763 16.4372 8.64538 16.7454 9.398C16.9943 10.0058 17.0598 10.7147 16.9004 11.5815C14.6866 10.6811 12.4338 9.51913 10.1441 8.11023C10.8554 7.45284 11.5372 7.07336 12.1834 6.92163C12.3873 6.87373 12.5909 6.84517 12.7966 6.83807ZM49.866 8.51241C49.5625 8.95325 49.2265 9.40975 48.8545 9.88296C47.5378 11.5575 46.1151 13.1631 44.5964 14.7068C44.2751 13.9169 43.9712 13.0155 43.6086 11.9368C45.7518 10.9401 47.7748 9.86619 49.866 8.51241ZM38.8969 9.12779C39.097 9.11876 39.2859 9.13354 39.4595 9.17387C40.1538 9.33517 40.8044 9.83415 41.3268 11.3402C42.4215 14.4961 42.7803 16.015 44.3738 18.5444C44.8809 19.3493 45.306 19.9411 45.73 20.3726C45.942 20.5883 46.1473 20.7737 46.453 20.913C46.7586 21.0523 47.2923 21.1057 47.6917 20.8482C48.4987 20.3435 49.5603 19.542 50.5575 19.6971C50.9894 19.9507 50.5735 20.4978 50.0103 20.8286C49.651 21.0444 49.1066 21.2646 48.5352 21.708C47.8083 22.2719 47.3054 22.9326 46.852 23.3737C46.3988 23.8148 46.1032 24.0024 45.6924 24.0024C44.9528 24.0024 44.8922 23.8919 44.5457 23.3308C44.1992 22.7696 43.8145 21.7268 43.099 20.4952C42.3846 19.2655 41.7175 18.5727 41.0674 18.0391C40.4174 17.5055 39.8391 17.1329 39.0189 16.2984C37.9738 15.2349 37.4514 14.1417 37.3381 12.913C37.2172 11.5832 35.256 11.771 35.381 13.1004C35.3819 13.1102 35.3839 13.1196 35.3849 13.1293C34.0965 13.4542 32.8201 13.6875 31.5535 13.8306C34.033 11.8656 35.8354 10.5228 36.8815 9.85563C37.5312 9.518 38.2402 9.16635 38.8969 9.12779ZM6.58522 9.8158C11.5451 15.3234 16.813 18.7461 22.3972 19.9813C23.7011 20.3025 24.1319 18.2861 22.8148 18.0274C18.2759 17.0234 13.8704 14.4035 9.60302 10.1157C18.4069 15.5872 26.404 17.4104 35.8645 15.0684C36.2504 16.023 36.8445 16.9128 37.6298 17.7119C38.0105 18.0992 38.3462 18.3948 38.6575 18.6553C36.4851 19.5358 33.7626 20.004 30.4652 20.004C29.1367 19.9848 29.1367 22.0223 30.4652 22.0032C34.4092 22.0032 37.7121 21.3837 40.3629 20.0821C40.6861 20.4111 41.0051 20.8168 41.409 21.5119C41.6684 21.9586 41.872 22.3829 42.0652 22.7935C38.4074 25.7108 33.2708 28.0008 28.5004 28.0008C22.3863 28.0008 17.3958 25.5606 13.8527 21.8962C17.4705 24.1184 22.0344 26.0016 28.5004 26.0016C29.8289 26.0207 29.8289 23.9833 28.5004 24.0024C19.1719 24.0024 14.3732 20.0307 9.92614 16.6998C8.56451 14.4333 7.21031 12.1539 6.58522 9.8158ZM49.6565 12.0352C48.7197 14.3022 47.6779 16.2739 46.4261 18.0649C46.0902 17.5854 45.7918 17.0833 45.512 16.603C46.9828 15.1404 48.3622 13.6161 49.6565 12.0352Z" fill="#9D9863"/>
</svg>
