<svg width="117" height="36" viewBox="0 0 117 36" fill="none" xmlns="http://www.w3.org/2000/svg">
<path d="M42.926 25.8594L44.9963 24.5C45.3245 24.2812 45.551 24.0703 45.676 23.8672C45.801 23.6641 45.8635 23.4193 45.8635 23.1328C45.8635 22.8776 45.7646 22.6406 45.5667 22.4219C45.3739 22.1979 45.1005 22.0859 44.7463 22.0859C44.4963 22.0859 44.2854 22.1432 44.1135 22.2578C43.9417 22.3724 43.8114 22.526 43.7229 22.7188C43.6396 22.9062 43.5979 23.1146 43.5979 23.3438C43.5979 23.5781 43.6578 23.8177 43.7776 24.0625C43.9026 24.3073 44.0693 24.5651 44.2776 24.8359C44.4911 25.1016 44.7281 25.3906 44.9885 25.7031L50.3557 32H47.9963L43.6057 26.8906C43.2359 26.4323 42.9078 26.0104 42.6213 25.625C42.3349 25.2396 42.1109 24.8672 41.9495 24.5078C41.7932 24.1432 41.7151 23.7682 41.7151 23.3828C41.7151 22.7891 41.8401 22.2734 42.0901 21.8359C42.3401 21.3984 42.6917 21.0599 43.1448 20.8203C43.6031 20.5807 44.1396 20.4609 44.7542 20.4609C45.3375 20.4609 45.8401 20.5807 46.262 20.8203C46.689 21.0547 47.0198 21.3672 47.2542 21.7578C47.4885 22.1484 47.6057 22.5755 47.6057 23.0391C47.6057 23.3932 47.5406 23.7214 47.4104 24.0234C47.2802 24.3203 47.1005 24.5938 46.8713 24.8438C46.6422 25.0885 46.3765 25.3203 46.0745 25.5391L43.637 27.2891C43.4026 27.487 43.2255 27.6823 43.1057 27.875C42.9911 28.0625 42.913 28.237 42.8713 28.3984C42.8349 28.5599 42.8167 28.7109 42.8167 28.8516C42.8167 29.1693 42.8844 29.4557 43.0198 29.7109C43.1604 29.9609 43.3583 30.1615 43.6135 30.3125C43.8739 30.4583 44.1812 30.5312 44.5354 30.5312C44.9677 30.5312 45.3844 30.4349 45.7854 30.2422C46.1864 30.0495 46.5458 29.776 46.8635 29.4219C47.1864 29.0677 47.4417 28.6458 47.6292 28.1562C47.8219 27.6615 47.9182 27.1172 47.9182 26.5234H49.6838C49.6838 27.0911 49.6292 27.6302 49.5198 28.1406C49.4104 28.6458 49.2333 29.1146 48.9885 29.5469C48.7437 29.9792 48.4234 30.3646 48.0276 30.7031C47.9911 30.7344 47.9469 30.776 47.8948 30.8281C47.8479 30.8802 47.8062 30.9219 47.7698 30.9531C47.2958 31.3594 46.7828 31.6641 46.2307 31.8672C45.6838 32.0651 45.0875 32.1641 44.4417 32.1641C43.6812 32.1641 43.025 32.026 42.4729 31.75C41.9208 31.474 41.4937 31.0938 41.1917 30.6094C40.8948 30.125 40.7463 29.5703 40.7463 28.9453C40.7463 28.4818 40.8375 28.0781 41.0198 27.7344C41.2073 27.3854 41.4651 27.0625 41.7932 26.7656C42.1213 26.4635 42.4989 26.1615 42.926 25.8594ZM63.1448 25.3203V27.0078H57.1604V25.3203H63.1448ZM57.7463 20.625V32H55.5979V20.625H57.7463ZM64.7385 20.625V32H62.5901V20.625H64.7385ZM70.5667 32.1562C69.926 32.1562 69.3505 32.0521 68.8401 31.8438C68.3297 31.6354 67.8948 31.3464 67.5354 30.9766C67.1812 30.6016 66.9078 30.1667 66.7151 29.6719C66.5276 29.1719 66.4338 28.6354 66.4338 28.0625V27.75C66.4338 27.099 66.5276 26.5078 66.7151 25.9766C66.9026 25.4401 67.1682 24.9792 67.512 24.5938C67.8557 24.2083 68.2672 23.9115 68.7463 23.7031C69.2255 23.4948 69.7542 23.3906 70.3323 23.3906C70.9312 23.3906 71.4599 23.4922 71.9182 23.6953C72.3765 23.8932 72.7594 24.1745 73.0667 24.5391C73.3739 24.9036 73.6057 25.3411 73.762 25.8516C73.9182 26.3568 73.9963 26.9167 73.9963 27.5312V28.3984H67.3713V26.9766H71.9651V26.8203C71.9547 26.4922 71.8922 26.1927 71.7776 25.9219C71.663 25.6458 71.4859 25.4271 71.2463 25.2656C71.0068 25.099 70.6969 25.0156 70.3167 25.0156C70.0094 25.0156 69.7411 25.0833 69.512 25.2188C69.288 25.349 69.1005 25.5365 68.9495 25.7812C68.8036 26.0208 68.6943 26.3073 68.6213 26.6406C68.5484 26.974 68.512 27.3438 68.512 27.75V28.0625C68.512 28.4167 68.5588 28.7448 68.6526 29.0469C68.7515 29.349 68.8948 29.612 69.0823 29.8359C69.275 30.0547 69.5042 30.2266 69.7698 30.3516C70.0406 30.4714 70.3479 30.5312 70.6917 30.5312C71.1239 30.5312 71.5146 30.4479 71.8635 30.2812C72.2177 30.1094 72.525 29.8568 72.7854 29.5234L73.8245 30.6016C73.6474 30.862 73.4078 31.112 73.1057 31.3516C72.8088 31.5911 72.4495 31.7865 72.0276 31.9375C71.6057 32.0833 71.1187 32.1562 70.5667 32.1562ZM77.5667 20V32H75.4963V20H77.5667ZM81.5979 25.1719V35.25H79.5276V23.5469H81.4417L81.5979 25.1719ZM87.0276 27.6875V27.8516C87.0276 28.4661 86.9547 29.0365 86.8088 29.5625C86.6682 30.0833 86.4599 30.5391 86.1838 30.9297C85.9078 31.3151 85.564 31.6172 85.1526 31.8359C84.7463 32.0495 84.2776 32.1562 83.7463 32.1562C83.2255 32.1562 82.7724 32.0573 82.387 31.8594C82.0015 31.6562 81.676 31.3698 81.4104 31C81.1448 30.6302 80.9312 30.2005 80.7698 29.7109C80.6135 29.2161 80.4963 28.6771 80.4182 28.0938V27.5703C80.4963 26.9505 80.6135 26.388 80.7698 25.8828C80.9312 25.3724 81.1448 24.9323 81.4104 24.5625C81.676 24.1875 81.9989 23.8984 82.3792 23.6953C82.7646 23.4922 83.2151 23.3906 83.7307 23.3906C84.2672 23.3906 84.7385 23.4922 85.1448 23.6953C85.5562 23.8984 85.9026 24.1901 86.1838 24.5703C86.4651 24.9505 86.676 25.4036 86.8167 25.9297C86.9573 26.4557 87.0276 27.0417 87.0276 27.6875ZM84.9573 27.8516V27.6875C84.9573 27.3125 84.9234 26.9661 84.8557 26.6484C84.788 26.3255 84.6838 26.0443 84.5432 25.8047C84.4026 25.5599 84.2203 25.3698 83.9963 25.2344C83.7724 25.099 83.5015 25.0312 83.1838 25.0312C82.8661 25.0312 82.5927 25.0833 82.3635 25.1875C82.1344 25.2917 81.9469 25.4401 81.801 25.6328C81.6552 25.8255 81.5406 26.0547 81.4573 26.3203C81.3792 26.5807 81.3271 26.8698 81.301 27.1875V28.4844C81.3479 28.8698 81.439 29.2161 81.5745 29.5234C81.7099 29.8307 81.9078 30.0755 82.1682 30.2578C82.4338 30.4401 82.7776 30.5312 83.1995 30.5312C83.5172 30.5312 83.788 30.4609 84.012 30.3203C84.2359 30.1797 84.4182 29.987 84.5588 29.7422C84.6995 29.4922 84.801 29.2057 84.8635 28.8828C84.926 28.5599 84.9573 28.2161 84.9573 27.8516ZM91.2385 32H89.1604V22.7656C89.1604 22.1302 89.2828 21.5964 89.5276 21.1641C89.7724 20.7266 90.1213 20.3958 90.5745 20.1719C91.0276 19.9479 91.5614 19.8359 92.176 19.8359C92.3792 19.8359 92.5719 19.849 92.7542 19.875C92.9417 19.901 93.1265 19.9375 93.3088 19.9844L93.2698 21.5547C93.1708 21.5286 93.0614 21.5104 92.9417 21.5C92.8271 21.4896 92.6995 21.4844 92.5588 21.4844C92.2776 21.4844 92.038 21.5339 91.8401 21.6328C91.6422 21.7318 91.4911 21.8776 91.387 22.0703C91.288 22.2578 91.2385 22.4896 91.2385 22.7656V32ZM92.9495 23.5469V25.0312H87.887V23.5469H92.9495ZM99.2542 29.9922V23.5469H101.332V32H99.3792L99.2542 29.9922ZM99.5198 28.2422L100.16 28.2266C100.16 28.7943 100.098 29.3177 99.9729 29.7969C99.8479 30.276 99.6526 30.6927 99.387 31.0469C99.1265 31.3958 98.7958 31.6693 98.3948 31.8672C97.9937 32.0599 97.5198 32.1562 96.9729 32.1562C96.5562 32.1562 96.176 32.099 95.8323 31.9844C95.4885 31.8646 95.1917 31.6797 94.9417 31.4297C94.6969 31.1745 94.5068 30.849 94.3713 30.4531C94.2359 30.0521 94.1682 29.5703 94.1682 29.0078V23.5469H96.2307V29.0234C96.2307 29.3047 96.262 29.5391 96.3245 29.7266C96.3922 29.9141 96.4833 30.0677 96.5979 30.1875C96.7177 30.3021 96.8557 30.3854 97.012 30.4375C97.1734 30.4844 97.3453 30.5078 97.5276 30.5078C98.0276 30.5078 98.4208 30.4089 98.7073 30.2109C98.9989 30.0078 99.2073 29.737 99.3323 29.3984C99.4573 29.0547 99.5198 28.6693 99.5198 28.2422ZM105.348 20V32H103.278V20H105.348Z" fill="#224859"/>
<path d="M48.5881 12.2822V13H42.9895V12.2822H48.5881ZM43.2424 3.04688V13H42.4016V3.04688H43.2424ZM47.8909 7.51074V8.22852H42.9895V7.51074H47.8909ZM48.554 3.04688V3.77148H42.9895V3.04688H48.554ZM50.5022 5.60352L52.4983 8.59082L54.5012 5.60352H55.4719L52.9631 9.22656L55.5745 13H54.6174L52.5051 9.87598L50.3997 13H49.4426L52.054 9.22656L49.5452 5.60352H50.5022ZM57.8098 7.02539V15.8438H56.9895V5.60352H57.7551L57.8098 7.02539ZM62.9504 9.2334V9.37695C62.9504 9.92839 62.8866 10.4342 62.759 10.8945C62.6314 11.3548 62.4469 11.7536 62.2053 12.0908C61.9683 12.4235 61.6744 12.681 61.3235 12.8633C60.9726 13.0456 60.5738 13.1367 60.1272 13.1367C59.6851 13.1367 59.2909 13.0684 58.9446 12.9316C58.5982 12.7949 58.2997 12.6012 58.0491 12.3506C57.803 12.0954 57.6047 11.7992 57.4543 11.4619C57.3085 11.1201 57.206 10.7464 57.1467 10.3408V8.44727C57.2151 8.00065 57.3267 7.59505 57.4817 7.23047C57.6366 6.86589 57.8349 6.55143 58.0764 6.28711C58.3225 6.02279 58.6142 5.81999 58.9514 5.67871C59.2887 5.53743 59.6737 5.4668 60.1067 5.4668C60.5579 5.4668 60.9589 5.55566 61.3098 5.7334C61.6653 5.90658 61.9638 6.15951 62.2053 6.49219C62.4514 6.82031 62.636 7.2168 62.759 7.68164C62.8866 8.14193 62.9504 8.65918 62.9504 9.2334ZM62.1301 9.37695V9.2334C62.1301 8.80046 62.0846 8.39941 61.9934 8.03027C61.9068 7.66113 61.7724 7.33984 61.5901 7.06641C61.4124 6.78841 61.1845 6.57194 60.9065 6.41699C60.6331 6.26204 60.3072 6.18457 59.929 6.18457C59.537 6.18457 59.2021 6.25065 58.9241 6.38281C58.6506 6.51042 58.4228 6.68132 58.2405 6.89551C58.0582 7.10514 57.9146 7.33529 57.8098 7.58594C57.705 7.83659 57.6275 8.08268 57.5774 8.32422V10.5049C57.664 10.8512 57.803 11.1725 57.9944 11.4688C58.1858 11.7604 58.441 11.9951 58.76 12.1729C59.0836 12.346 59.4778 12.4326 59.9426 12.4326C60.3163 12.4326 60.6399 12.3551 60.9133 12.2002C61.1868 12.0452 61.4124 11.8288 61.5901 11.5508C61.7724 11.2728 61.9068 10.9492 61.9934 10.5801C62.0846 10.2109 62.1301 9.8099 62.1301 9.37695ZM67.6262 13.1367C67.1431 13.1367 66.6988 13.0479 66.2932 12.8701C65.8922 12.6924 65.5413 12.4417 65.2405 12.1182C64.9443 11.7946 64.7141 11.4118 64.55 10.9697C64.3905 10.5231 64.3108 10.0355 64.3108 9.50684V9.21289C64.3108 8.64323 64.3951 8.12826 64.5637 7.66797C64.7323 7.20768 64.9648 6.81348 65.261 6.48535C65.5572 6.15723 65.8944 5.90658 66.2727 5.7334C66.6555 5.55566 67.0566 5.4668 67.4758 5.4668C67.9452 5.4668 68.3622 5.55111 68.7268 5.71973C69.0914 5.88379 69.3967 6.11849 69.6428 6.42383C69.8935 6.72461 70.0826 7.08236 70.2102 7.49707C70.3378 7.90723 70.4016 8.36068 70.4016 8.85742V9.35645H64.803V8.65918H69.5881V8.56348C69.579 8.14876 69.4947 7.76139 69.3352 7.40137C69.1803 7.03678 68.9478 6.74056 68.6379 6.5127C68.328 6.28483 67.9407 6.1709 67.4758 6.1709C67.1295 6.1709 66.8105 6.24382 66.5188 6.38965C66.2317 6.53548 65.9833 6.74512 65.7737 7.01855C65.5686 7.28743 65.4091 7.60872 65.2952 7.98242C65.1858 8.35156 65.1311 8.76172 65.1311 9.21289V9.50684C65.1311 9.91699 65.1903 10.2998 65.3088 10.6553C65.4319 11.0062 65.6051 11.3161 65.8284 11.585C66.0562 11.8538 66.3251 12.0635 66.635 12.2139C66.9449 12.3643 67.2867 12.4395 67.6604 12.4395C68.0979 12.4395 68.4853 12.3597 68.8225 12.2002C69.1597 12.0361 69.4628 11.7786 69.7317 11.4277L70.2444 11.8242C70.0849 12.0612 69.8844 12.2799 69.6428 12.4805C69.4058 12.681 69.121 12.8405 68.7883 12.959C68.4556 13.0775 68.0683 13.1367 67.6262 13.1367ZM72.8284 6.82715V13H72.0149V5.60352H72.8079L72.8284 6.82715ZM75.4465 5.54883L75.426 6.30078C75.3349 6.28711 75.246 6.27572 75.1594 6.2666C75.0728 6.25749 74.9794 6.25293 74.8792 6.25293C74.5237 6.25293 74.2115 6.31901 73.9426 6.45117C73.6783 6.57878 73.455 6.75879 73.2727 6.99121C73.0904 7.21908 72.9514 7.48796 72.8557 7.79785C72.76 8.10319 72.7053 8.43132 72.6917 8.78223L72.3909 8.89844C72.3909 8.41536 72.441 7.96647 72.5413 7.55176C72.6415 7.13704 72.7942 6.77474 72.9993 6.46484C73.2089 6.15039 73.4709 5.90658 73.7854 5.7334C74.1044 5.55566 74.4781 5.4668 74.9065 5.4668C75.0113 5.4668 75.1139 5.47591 75.2141 5.49414C75.3189 5.50781 75.3964 5.52604 75.4465 5.54883ZM77.6409 5.60352V13H76.8274V5.60352H77.6409ZM76.6838 3.46387C76.6838 3.30892 76.7317 3.17904 76.8274 3.07422C76.9277 2.96484 77.0644 2.91016 77.2375 2.91016C77.4107 2.91016 77.5474 2.96484 77.6477 3.07422C77.7525 3.17904 77.8049 3.30892 77.8049 3.46387C77.8049 3.61426 77.7525 3.74414 77.6477 3.85352C77.5474 3.95833 77.4107 4.01074 77.2375 4.01074C77.0644 4.01074 76.9277 3.95833 76.8274 3.85352C76.7317 3.74414 76.6838 3.61426 76.6838 3.46387ZM82.7336 13.1367C82.2506 13.1367 81.8062 13.0479 81.4006 12.8701C80.9996 12.6924 80.6487 12.4417 80.3479 12.1182C80.0517 11.7946 79.8215 11.4118 79.6575 10.9697C79.498 10.5231 79.4182 10.0355 79.4182 9.50684V9.21289C79.4182 8.64323 79.5025 8.12826 79.6711 7.66797C79.8398 7.20768 80.0722 6.81348 80.3684 6.48535C80.6646 6.15723 81.0019 5.90658 81.3801 5.7334C81.7629 5.55566 82.164 5.4668 82.5833 5.4668C83.0527 5.4668 83.4696 5.55111 83.8342 5.71973C84.1988 5.88379 84.5042 6.11849 84.7502 6.42383C85.0009 6.72461 85.19 7.08236 85.3176 7.49707C85.4452 7.90723 85.509 8.36068 85.509 8.85742V9.35645H79.9104V8.65918H84.6956V8.56348C84.6864 8.14876 84.6021 7.76139 84.4426 7.40137C84.2877 7.03678 84.0553 6.74056 83.7454 6.5127C83.4355 6.28483 83.0481 6.1709 82.5833 6.1709C82.2369 6.1709 81.9179 6.24382 81.6262 6.38965C81.3391 6.53548 81.0907 6.74512 80.8811 7.01855C80.676 7.28743 80.5165 7.60872 80.4026 7.98242C80.2932 8.35156 80.2385 8.76172 80.2385 9.21289V9.50684C80.2385 9.91699 80.2978 10.2998 80.4163 10.6553C80.5393 11.0062 80.7125 11.3161 80.9358 11.585C81.1637 11.8538 81.4325 12.0635 81.7424 12.2139C82.0523 12.3643 82.3941 12.4395 82.7678 12.4395C83.2053 12.4395 83.5927 12.3597 83.9299 12.2002C84.2672 12.0361 84.5702 11.7786 84.8391 11.4277L85.3518 11.8242C85.1923 12.0612 84.9918 12.2799 84.7502 12.4805C84.5133 12.681 84.2284 12.8405 83.8958 12.959C83.5631 13.0775 83.1757 13.1367 82.7336 13.1367ZM87.9358 7.18262V13H87.1223V5.60352H87.9016L87.9358 7.18262ZM87.7512 8.84375L87.3889 8.63867C87.4163 8.20117 87.5051 7.79102 87.6555 7.4082C87.8059 7.02539 88.0087 6.68815 88.2639 6.39648C88.5237 6.10482 88.8267 5.87695 89.1731 5.71289C89.524 5.54883 89.9114 5.4668 90.3352 5.4668C90.7043 5.4668 91.0347 5.51693 91.3264 5.61719C91.6181 5.71745 91.8665 5.87695 92.0715 6.0957C92.2766 6.31445 92.4316 6.59473 92.5364 6.93652C92.6458 7.27832 92.7004 7.69531 92.7004 8.1875V13H91.8801V8.18066C91.8801 7.67025 91.8095 7.27148 91.6682 6.98438C91.5269 6.69271 91.3264 6.48535 91.0667 6.3623C90.8069 6.23926 90.4993 6.17773 90.1438 6.17773C89.7519 6.17773 89.4078 6.26432 89.1116 6.4375C88.8199 6.60612 88.5738 6.82715 88.3733 7.10059C88.1773 7.36947 88.0269 7.65885 87.9221 7.96875C87.8173 8.27409 87.7603 8.56576 87.7512 8.84375ZM97.5471 12.4326C97.8935 12.4326 98.217 12.3688 98.5178 12.2412C98.8232 12.109 99.0738 11.9154 99.2698 11.6602C99.4703 11.4004 99.5842 11.0837 99.6116 10.71H100.391C100.368 11.1794 100.225 11.5986 99.9602 11.9678C99.7004 12.3324 99.3586 12.6195 98.9348 12.8291C98.5155 13.0342 98.053 13.1367 97.5471 13.1367C97.0321 13.1367 96.5764 13.0433 96.1799 12.8564C95.788 12.6696 95.4599 12.4098 95.1956 12.0771C94.9312 11.7399 94.7307 11.348 94.594 10.9014C94.4618 10.4502 94.3958 9.96484 94.3958 9.44531V9.1582C94.3958 8.63867 94.4618 8.1556 94.594 7.70898C94.7307 7.25781 94.9312 6.86589 95.1956 6.5332C95.4599 6.19596 95.788 5.93392 96.1799 5.74707C96.5719 5.56022 97.0253 5.4668 97.5403 5.4668C98.0689 5.4668 98.5429 5.57389 98.9622 5.78809C99.386 6.00228 99.7232 6.30534 99.9739 6.69727C100.229 7.08919 100.368 7.55404 100.391 8.0918H99.6116C99.5888 7.69531 99.484 7.35352 99.2971 7.06641C99.1103 6.7793 98.8642 6.55827 98.5588 6.40332C98.2535 6.24837 97.914 6.1709 97.5403 6.1709C97.121 6.1709 96.7633 6.25293 96.467 6.41699C96.1708 6.5765 95.9293 6.79753 95.7424 7.08008C95.5601 7.35807 95.4257 7.67708 95.3391 8.03711C95.2525 8.39258 95.2092 8.76628 95.2092 9.1582V9.44531C95.2092 9.8418 95.2502 10.2201 95.3323 10.5801C95.4189 10.9355 95.5533 11.2523 95.7356 11.5303C95.9224 11.8083 96.164 12.0293 96.4602 12.1934C96.761 12.3529 97.1233 12.4326 97.5471 12.4326ZM104.896 13.1367C104.413 13.1367 103.968 13.0479 103.563 12.8701C103.162 12.6924 102.811 12.4417 102.51 12.1182C102.214 11.7946 101.984 11.4118 101.82 10.9697C101.66 10.5231 101.58 10.0355 101.58 9.50684V9.21289C101.58 8.64323 101.665 8.12826 101.833 7.66797C102.002 7.20768 102.234 6.81348 102.531 6.48535C102.827 6.15723 103.164 5.90658 103.542 5.7334C103.925 5.55566 104.326 5.4668 104.745 5.4668C105.215 5.4668 105.632 5.55111 105.996 5.71973C106.361 5.88379 106.666 6.11849 106.912 6.42383C107.163 6.72461 107.352 7.08236 107.48 7.49707C107.607 7.90723 107.671 8.36068 107.671 8.85742V9.35645H102.073V8.65918H106.858V8.56348C106.849 8.14876 106.764 7.76139 106.605 7.40137C106.45 7.03678 106.217 6.74056 105.907 6.5127C105.598 6.28483 105.21 6.1709 104.745 6.1709C104.399 6.1709 104.08 6.24382 103.788 6.38965C103.501 6.53548 103.253 6.74512 103.043 7.01855C102.838 7.28743 102.679 7.60872 102.565 7.98242C102.455 8.35156 102.401 8.76172 102.401 9.21289V9.50684C102.401 9.91699 102.46 10.2998 102.578 10.6553C102.701 11.0062 102.875 11.3161 103.098 11.585C103.326 11.8538 103.595 12.0635 103.905 12.2139C104.214 12.3643 104.556 12.4395 104.93 12.4395C105.367 12.4395 105.755 12.3597 106.092 12.2002C106.429 12.0361 106.732 11.7786 107.001 11.4277L107.514 11.8242C107.354 12.0612 107.154 12.2799 106.912 12.4805C106.675 12.681 106.391 12.8405 106.058 12.959C105.725 13.0775 105.338 13.1367 104.896 13.1367ZM114.09 11.5645V2.5H114.91V13H114.145L114.09 11.5645ZM108.956 9.37695V9.2334C108.956 8.65918 109.022 8.14193 109.155 7.68164C109.287 7.2168 109.476 6.82031 109.722 6.49219C109.973 6.15951 110.273 5.90658 110.624 5.7334C110.975 5.55566 111.372 5.4668 111.814 5.4668C112.247 5.4668 112.629 5.53743 112.962 5.67871C113.295 5.81999 113.58 6.02279 113.817 6.28711C114.058 6.55143 114.252 6.86589 114.398 7.23047C114.548 7.59505 114.657 8.00065 114.726 8.44727V10.2725C114.671 10.6917 114.571 11.0768 114.425 11.4277C114.279 11.7741 114.086 12.0771 113.844 12.3369C113.602 12.5921 113.311 12.7904 112.969 12.9316C112.632 13.0684 112.242 13.1367 111.8 13.1367C111.363 13.1367 110.968 13.0456 110.617 12.8633C110.267 12.681 109.968 12.4235 109.722 12.0908C109.476 11.7536 109.287 11.3548 109.155 10.8945C109.022 10.4342 108.956 9.92839 108.956 9.37695ZM109.777 9.2334V9.37695C109.777 9.8099 109.82 10.2109 109.906 10.5801C109.993 10.9492 110.125 11.2705 110.303 11.5439C110.481 11.8174 110.706 12.0316 110.98 12.1865C111.253 12.3415 111.577 12.4189 111.95 12.4189C112.42 12.4189 112.814 12.3301 113.133 12.1523C113.452 11.9701 113.707 11.7308 113.899 11.4346C114.09 11.1338 114.229 10.8057 114.316 10.4502V8.32422C114.261 8.08268 114.181 7.83659 114.076 7.58594C113.972 7.33529 113.828 7.10514 113.646 6.89551C113.468 6.68132 113.24 6.51042 112.962 6.38281C112.689 6.25065 112.356 6.18457 111.964 6.18457C111.586 6.18457 111.26 6.26204 110.987 6.41699C110.713 6.57194 110.485 6.78841 110.303 7.06641C110.125 7.33984 109.993 7.66113 109.906 8.03027C109.82 8.39941 109.777 8.80046 109.777 9.2334Z" fill="black"/>
<path d="M16.5889 6.57422C16.5769 6.57422 16.5636 6.57422 16.5527 6.57422C13.628 6.57422 10.8749 7.71462 8.79942 9.78643C6.71552 11.8667 5.56787 14.6331 5.56787 17.5748C5.56787 20.404 6.64304 23.0871 8.59525 25.1299C9.57378 26.1544 10.1126 27.4204 10.1126 28.6949V29.6227C10.1126 30.8887 11.143 31.918 12.4079 31.918H20.7302C21.9962 31.918 23.0255 30.8887 23.0255 29.6227V28.6949C23.0255 27.4192 23.5642 26.1531 24.5428 25.1287C26.495 23.0859 27.5702 20.4028 27.5702 17.5748C27.5702 14.6331 26.4225 11.8667 24.3386 9.78643C22.2632 7.71462 19.5112 6.57422 16.5889 6.57422ZM22.9711 23.6259C21.6036 25.0574 20.8498 26.8562 20.8498 28.6937V29.6215C20.8498 29.6879 20.7954 29.7423 20.7289 29.7423H12.4067C12.3402 29.7423 12.2859 29.6879 12.2859 29.6215V28.6937C12.2859 26.8562 11.532 25.0562 10.1645 23.6259C8.60129 21.9902 7.74116 19.8399 7.74116 17.5735C7.74116 15.213 8.6617 12.9938 10.3336 11.3243C11.9983 9.66321 14.2055 8.74751 16.5539 8.74751C16.566 8.74872 16.5769 8.74751 16.5829 8.74751C18.9277 8.74751 21.1361 9.662 22.7996 11.3243C24.4715 12.9938 25.392 15.213 25.392 17.5735C25.3944 19.8411 24.5343 21.9902 22.9711 23.6259Z" fill="#9D9863"/>
<path d="M15.0705 11.5864C12.8453 12.1397 11.1238 13.8708 10.5778 16.1021C10.4352 16.6844 10.7916 17.2739 11.3751 17.4165C11.4609 17.4382 11.5491 17.4479 11.6348 17.4479C12.1229 17.4479 12.5674 17.1157 12.6895 16.6179C13.0374 15.1961 14.1778 14.0484 15.596 13.6969C16.1771 13.5519 16.5323 12.9624 16.3873 12.3789C16.2435 11.7966 15.6528 11.4451 15.0705 11.5864Z" fill="#9D9863"/>
<path d="M19.5342 33.8257H13.6026C13.0022 33.8257 12.5154 34.3125 12.5154 34.9129C12.5154 35.5133 13.0022 36.0002 13.6026 36.0002H19.5342C20.1346 36.0002 20.6214 35.5133 20.6214 34.9129C20.6214 34.3125 20.1346 33.8257 19.5342 33.8257Z" fill="#9D9863"/>
<path d="M16.5684 4.30309C17.1689 4.30309 17.6557 3.81624 17.6557 3.21584V1.08725C17.6557 0.486846 17.1689 0 16.5684 0C15.968 0 15.4812 0.486846 15.4812 1.08725V3.21584C15.4812 3.81624 15.968 4.30309 16.5684 4.30309Z" fill="#9D9863"/>
<path d="M32.0496 14.2661H29.921C29.3206 14.2661 28.8337 14.753 28.8337 15.3534C28.8337 15.9538 29.3206 16.4406 29.921 16.4406H32.0496C32.65 16.4406 33.1368 15.9538 33.1368 15.3534C33.1368 14.753 32.6512 14.2661 32.0496 14.2661Z" fill="#9D9863"/>
<path d="M3.21463 14.2661H1.08725C0.486846 14.2661 0 14.753 0 15.3534C0 15.9538 0.486846 16.4406 1.08725 16.4406H3.21584C3.81624 16.4406 4.30309 15.9538 4.30309 15.3534C4.30309 14.753 3.81503 14.2661 3.21463 14.2661Z" fill="#9D9863"/>
<path d="M7.21698 7.53926C7.4296 7.75188 7.70745 7.85819 7.98651 7.85819C8.26557 7.85819 8.54343 7.75188 8.75604 7.53926C9.18128 7.11523 9.18128 6.42664 8.75604 6.00261L7.2496 4.49617C6.82437 4.07094 6.13578 4.07094 5.71175 4.49617C5.28651 4.9202 5.28651 5.60879 5.71175 6.03282L7.21698 7.53926Z" fill="#9D9863"/>
<path d="M25.8874 4.49624L24.3822 6.00148C23.9569 6.4255 23.9569 7.1141 24.3822 7.53812C24.5948 7.75074 24.8726 7.85705 25.1517 7.85705C25.4307 7.85705 25.7086 7.75074 25.9212 7.53812L27.4265 6.03289C27.8517 5.60886 27.8517 4.92027 27.4265 4.49624C27.0012 4.07222 26.3114 4.07222 25.8874 4.49624Z" fill="#9D9863"/>
</svg>
