<svg width="147" height="36" viewBox="0 0 147 36" fill="none" xmlns="http://www.w3.org/2000/svg">
<path d="M48.1057 20.625V32H45.9651V20.625H48.1057ZM51.637 20.625V22.3203H42.4729V20.625H51.637ZM55.0979 23.5469V32H53.0276V23.5469H55.0979ZM52.887 21.3359C52.887 21.0286 52.9911 20.7734 53.1995 20.5703C53.413 20.3672 53.6995 20.2656 54.0588 20.2656C54.4182 20.2656 54.7021 20.3672 54.9104 20.5703C55.1239 20.7734 55.2307 21.0286 55.2307 21.3359C55.2307 21.638 55.1239 21.8906 54.9104 22.0938C54.7021 22.2969 54.4182 22.3984 54.0588 22.3984C53.6995 22.3984 53.413 22.2969 53.1995 22.0938C52.9911 21.8906 52.887 21.638 52.887 21.3359ZM59.1213 25.2812V32H57.0588V23.5469H59.0042L59.1213 25.2812ZM58.8167 27.4688H58.1838C58.1838 26.8802 58.2542 26.3385 58.3948 25.8438C58.5406 25.349 58.7542 24.9193 59.0354 24.5547C59.3167 24.1849 59.663 23.8984 60.0745 23.6953C60.4911 23.4922 60.9729 23.3906 61.5198 23.3906C61.9 23.3906 62.2489 23.4479 62.5667 23.5625C62.8844 23.6719 63.1578 23.8464 63.387 24.0859C63.6213 24.3203 63.801 24.6276 63.926 25.0078C64.051 25.3828 64.1135 25.8333 64.1135 26.3594V32H62.051V26.5703C62.051 26.1745 61.9937 25.8646 61.8792 25.6406C61.7698 25.4167 61.6109 25.2604 61.4026 25.1719C61.1943 25.0781 60.9443 25.0312 60.6526 25.0312C60.3297 25.0312 60.051 25.0964 59.8167 25.2266C59.5875 25.3516 59.3974 25.526 59.2463 25.75C59.1005 25.974 58.9911 26.2318 58.9182 26.5234C58.8505 26.8151 58.8167 27.1302 58.8167 27.4688ZM63.9573 27.0859L63.1057 27.2422C63.1109 26.7109 63.1838 26.2135 63.3245 25.75C63.4651 25.2812 63.6708 24.8724 63.9417 24.5234C64.2177 24.1693 64.5588 23.8932 64.9651 23.6953C65.3765 23.4922 65.8505 23.3906 66.387 23.3906C66.8036 23.3906 67.1786 23.4505 67.512 23.5703C67.8505 23.6849 68.1396 23.8698 68.3792 24.125C68.6187 24.375 68.801 24.7005 68.926 25.1016C69.0562 25.5026 69.1213 25.9922 69.1213 26.5703V32H67.0432V26.5625C67.0432 26.151 66.9859 25.8359 66.8713 25.6172C66.762 25.3984 66.6031 25.2474 66.3948 25.1641C66.1864 25.0755 65.9417 25.0312 65.6604 25.0312C65.3739 25.0312 65.1239 25.0859 64.9104 25.1953C64.7021 25.2995 64.525 25.4453 64.3792 25.6328C64.2385 25.8203 64.1318 26.0391 64.0588 26.2891C63.9911 26.5339 63.9573 26.7995 63.9573 27.0859ZM74.7698 32.1562C74.1292 32.1562 73.5536 32.0521 73.0432 31.8438C72.5328 31.6354 72.0979 31.3464 71.7385 30.9766C71.3844 30.6016 71.1109 30.1667 70.9182 29.6719C70.7307 29.1719 70.637 28.6354 70.637 28.0625V27.75C70.637 27.099 70.7307 26.5078 70.9182 25.9766C71.1057 25.4401 71.3713 24.9792 71.7151 24.5938C72.0588 24.2083 72.4703 23.9115 72.9495 23.7031C73.4286 23.4948 73.9573 23.3906 74.5354 23.3906C75.1344 23.3906 75.663 23.4922 76.1213 23.6953C76.5797 23.8932 76.9625 24.1745 77.2698 24.5391C77.5771 24.9036 77.8088 25.3411 77.9651 25.8516C78.1213 26.3568 78.1995 26.9167 78.1995 27.5312V28.3984H71.5745V26.9766H76.1682V26.8203C76.1578 26.4922 76.0953 26.1927 75.9807 25.9219C75.8661 25.6458 75.689 25.4271 75.4495 25.2656C75.2099 25.099 74.9 25.0156 74.5198 25.0156C74.2125 25.0156 73.9443 25.0833 73.7151 25.2188C73.4911 25.349 73.3036 25.5365 73.1526 25.7812C73.0068 26.0208 72.8974 26.3073 72.8245 26.6406C72.7515 26.974 72.7151 27.3438 72.7151 27.75V28.0625C72.7151 28.4167 72.762 28.7448 72.8557 29.0469C72.9547 29.349 73.0979 29.612 73.2854 29.8359C73.4781 30.0547 73.7073 30.2266 73.9729 30.3516C74.2437 30.4714 74.551 30.5312 74.8948 30.5312C75.3271 30.5312 75.7177 30.4479 76.0667 30.2812C76.4208 30.1094 76.7281 29.8568 76.9885 29.5234L78.0276 30.6016C77.8505 30.862 77.6109 31.112 77.3088 31.3516C77.012 31.5911 76.6526 31.7865 76.2307 31.9375C75.8088 32.0833 75.3219 32.1562 74.7698 32.1562ZM85.426 25.8594L87.4963 24.5C87.8245 24.2812 88.051 24.0703 88.176 23.8672C88.301 23.6641 88.3635 23.4193 88.3635 23.1328C88.3635 22.8776 88.2646 22.6406 88.0667 22.4219C87.8739 22.1979 87.6005 22.0859 87.2463 22.0859C86.9963 22.0859 86.7854 22.1432 86.6135 22.2578C86.4417 22.3724 86.3114 22.526 86.2229 22.7188C86.1396 22.9062 86.0979 23.1146 86.0979 23.3438C86.0979 23.5781 86.1578 23.8177 86.2776 24.0625C86.4026 24.3073 86.5693 24.5651 86.7776 24.8359C86.9911 25.1016 87.2281 25.3906 87.4885 25.7031L92.8557 32H90.4963L86.1057 26.8906C85.7359 26.4323 85.4078 26.0104 85.1213 25.625C84.8349 25.2396 84.6109 24.8672 84.4495 24.5078C84.2932 24.1432 84.2151 23.7682 84.2151 23.3828C84.2151 22.7891 84.3401 22.2734 84.5901 21.8359C84.8401 21.3984 85.1917 21.0599 85.6448 20.8203C86.1031 20.5807 86.6396 20.4609 87.2542 20.4609C87.8375 20.4609 88.3401 20.5807 88.762 20.8203C89.189 21.0547 89.5198 21.3672 89.7542 21.7578C89.9885 22.1484 90.1057 22.5755 90.1057 23.0391C90.1057 23.3932 90.0406 23.7214 89.9104 24.0234C89.7802 24.3203 89.6005 24.5938 89.3713 24.8438C89.1422 25.0885 88.8765 25.3203 88.5745 25.5391L86.137 27.2891C85.9026 27.487 85.7255 27.6823 85.6057 27.875C85.4911 28.0625 85.413 28.237 85.3713 28.3984C85.3349 28.5599 85.3167 28.7109 85.3167 28.8516C85.3167 29.1693 85.3844 29.4557 85.5198 29.7109C85.6604 29.9609 85.8583 30.1615 86.1135 30.3125C86.3739 30.4583 86.6812 30.5312 87.0354 30.5312C87.4677 30.5312 87.8844 30.4349 88.2854 30.2422C88.6864 30.0495 89.0458 29.776 89.3635 29.4219C89.6864 29.0677 89.9417 28.6458 90.1292 28.1562C90.3219 27.6615 90.4182 27.1172 90.4182 26.5234H92.1838C92.1838 27.0911 92.1292 27.6302 92.0198 28.1406C91.9104 28.6458 91.7333 29.1146 91.4885 29.5469C91.2437 29.9792 90.9234 30.3646 90.5276 30.7031C90.4911 30.7344 90.4469 30.776 90.3948 30.8281C90.3479 30.8802 90.3062 30.9219 90.2698 30.9531C89.7958 31.3594 89.2828 31.6641 88.7307 31.8672C88.1838 32.0651 87.5875 32.1641 86.9417 32.1641C86.1812 32.1641 85.525 32.026 84.9729 31.75C84.4208 31.474 83.9937 31.0938 83.6917 30.6094C83.3948 30.125 83.2463 29.5703 83.2463 28.9453C83.2463 28.4818 83.3375 28.0781 83.5198 27.7344C83.7073 27.3854 83.9651 27.0625 84.2932 26.7656C84.6213 26.4635 84.9989 26.1615 85.426 25.8594ZM99.0354 20.625H100.895L104.004 29.1875L107.106 20.625H108.973L104.746 32H103.254L99.0354 20.625ZM98.0979 20.625H99.9182L100.246 28.4922V32H98.0979V20.625ZM108.082 20.625H109.91V32H107.762V28.4922L108.082 20.625ZM111.574 27.8594V27.6953C111.574 27.0755 111.663 26.5052 111.84 25.9844C112.017 25.4583 112.275 25.0026 112.614 24.6172C112.952 24.2318 113.366 23.9323 113.856 23.7188C114.345 23.5 114.903 23.3906 115.528 23.3906C116.163 23.3906 116.726 23.5 117.215 23.7188C117.71 23.9323 118.127 24.2318 118.465 24.6172C118.804 25.0026 119.061 25.4583 119.239 25.9844C119.416 26.5052 119.504 27.0755 119.504 27.6953V27.8594C119.504 28.474 119.416 29.0443 119.239 29.5703C119.061 30.0911 118.804 30.5469 118.465 30.9375C118.127 31.3229 117.712 31.6224 117.223 31.8359C116.733 32.0495 116.173 32.1562 115.543 32.1562C114.918 32.1562 114.358 32.0495 113.864 31.8359C113.369 31.6224 112.952 31.3229 112.614 30.9375C112.275 30.5469 112.017 30.0911 111.84 29.5703C111.663 29.0443 111.574 28.474 111.574 27.8594ZM113.637 27.6953V27.8594C113.637 28.2292 113.673 28.5755 113.746 28.8984C113.819 29.2214 113.931 29.5052 114.082 29.75C114.233 29.9948 114.429 30.1875 114.668 30.3281C114.913 30.4635 115.205 30.5312 115.543 30.5312C115.877 30.5312 116.163 30.4635 116.403 30.3281C116.642 30.1875 116.837 29.9948 116.989 29.75C117.145 29.5052 117.259 29.2214 117.332 28.8984C117.405 28.5755 117.442 28.2292 117.442 27.8594V27.6953C117.442 27.3307 117.405 26.9896 117.332 26.6719C117.259 26.349 117.145 26.0651 116.989 25.8203C116.837 25.5703 116.64 25.375 116.395 25.2344C116.155 25.0885 115.866 25.0156 115.528 25.0156C115.194 25.0156 114.908 25.0885 114.668 25.2344C114.429 25.375 114.233 25.5703 114.082 25.8203C113.931 26.0651 113.819 26.349 113.746 26.6719C113.673 26.9896 113.637 27.3307 113.637 27.6953ZM123.028 25.3516V32H120.965V23.5469H122.903L123.028 25.3516ZM122.699 27.4688H122.09C122.095 26.8542 122.179 26.2969 122.34 25.7969C122.502 25.2969 122.728 24.8672 123.02 24.5078C123.317 24.1484 123.668 23.8724 124.074 23.6797C124.481 23.487 124.934 23.3906 125.434 23.3906C125.84 23.3906 126.207 23.4479 126.535 23.5625C126.864 23.6771 127.145 23.8594 127.379 24.1094C127.619 24.3594 127.801 24.6875 127.926 25.0938C128.056 25.4948 128.121 25.9896 128.121 26.5781V32H126.043V26.5625C126.043 26.1771 125.986 25.8724 125.871 25.6484C125.762 25.4245 125.601 25.2656 125.387 25.1719C125.179 25.0781 124.921 25.0312 124.614 25.0312C124.296 25.0312 124.017 25.0964 123.778 25.2266C123.543 25.3516 123.345 25.526 123.184 25.75C123.028 25.974 122.908 26.2318 122.824 26.5234C122.741 26.8151 122.699 27.1302 122.699 27.4688ZM133.739 32.1562C133.098 32.1562 132.522 32.0521 132.012 31.8438C131.502 31.6354 131.067 31.3464 130.707 30.9766C130.353 30.6016 130.08 30.1667 129.887 29.6719C129.699 29.1719 129.606 28.6354 129.606 28.0625V27.75C129.606 27.099 129.699 26.5078 129.887 25.9766C130.074 25.4401 130.34 24.9792 130.684 24.5938C131.028 24.2083 131.439 23.9115 131.918 23.7031C132.397 23.4948 132.926 23.3906 133.504 23.3906C134.103 23.3906 134.632 23.4922 135.09 23.6953C135.548 23.8932 135.931 24.1745 136.239 24.5391C136.546 24.9036 136.778 25.3411 136.934 25.8516C137.09 26.3568 137.168 26.9167 137.168 27.5312V28.3984H130.543V26.9766H135.137V26.8203C135.127 26.4922 135.064 26.1927 134.949 25.9219C134.835 25.6458 134.658 25.4271 134.418 25.2656C134.179 25.099 133.869 25.0156 133.489 25.0156C133.181 25.0156 132.913 25.0833 132.684 25.2188C132.46 25.349 132.272 25.5365 132.121 25.7812C131.976 26.0208 131.866 26.3073 131.793 26.6406C131.72 26.974 131.684 27.3438 131.684 27.75V28.0625C131.684 28.4167 131.731 28.7448 131.824 29.0469C131.923 29.349 132.067 29.612 132.254 29.8359C132.447 30.0547 132.676 30.2266 132.942 30.3516C133.212 30.4714 133.52 30.5312 133.864 30.5312C134.296 30.5312 134.686 30.4479 135.035 30.2812C135.39 30.1094 135.697 29.8568 135.957 29.5234L136.996 30.6016C136.819 30.862 136.58 31.112 136.278 31.3516C135.981 31.5911 135.621 31.7865 135.199 31.9375C134.778 32.0833 134.291 32.1562 133.739 32.1562ZM140.918 31.0625L143.184 23.5469H145.395L142.004 33.2812C141.926 33.4896 141.824 33.7161 141.699 33.9609C141.58 34.2057 141.418 34.4375 141.215 34.6562C141.012 34.8802 140.757 35.0625 140.449 35.2031C140.147 35.3438 139.78 35.4141 139.348 35.4141C139.16 35.4141 138.994 35.401 138.848 35.375C138.702 35.349 138.548 35.3151 138.387 35.2734V33.7266C138.439 33.7318 138.499 33.7344 138.567 33.7344C138.64 33.7396 138.702 33.7422 138.754 33.7422C139.056 33.7422 139.306 33.7057 139.504 33.6328C139.702 33.5651 139.861 33.4531 139.981 33.2969C140.106 33.1458 140.21 32.9479 140.293 32.7031L140.918 31.0625ZM139.801 23.5469L141.715 29.7734L142.051 31.9531L140.629 32.2109L137.574 23.5469H139.801Z" fill="#224859"/>
<path d="M49.0344 10.5527C49.0344 10.2793 48.9889 10.0355 48.8977 9.82129C48.8066 9.6071 48.6562 9.41569 48.4465 9.24707C48.2415 9.07389 47.9635 8.91439 47.6125 8.76855C47.2662 8.61816 46.8333 8.47005 46.3137 8.32422C45.817 8.18294 45.3681 8.02799 44.967 7.85938C44.566 7.69076 44.2219 7.49707 43.9348 7.27832C43.6523 7.05957 43.4358 6.80436 43.2854 6.5127C43.135 6.21647 43.0598 5.8724 43.0598 5.48047C43.0598 5.09766 43.1418 4.74902 43.3059 4.43457C43.47 4.12012 43.7001 3.84896 43.9963 3.62109C44.2971 3.39323 44.6503 3.21777 45.0559 3.09473C45.4661 2.97168 45.915 2.91016 46.4026 2.91016C47.0999 2.91016 47.7014 3.04232 48.2073 3.30664C48.7177 3.57096 49.1119 3.92871 49.3899 4.37988C49.6724 4.8265 49.8137 5.3278 49.8137 5.88379H48.9729C48.9729 5.45085 48.8704 5.06576 48.6653 4.72852C48.4648 4.38672 48.1731 4.12012 47.7903 3.92871C47.412 3.73275 46.9495 3.63477 46.4026 3.63477C45.8557 3.63477 45.3954 3.71908 45.0217 3.8877C44.6526 4.05176 44.3723 4.27279 44.1809 4.55078C43.9941 4.82422 43.9006 5.12956 43.9006 5.4668C43.9006 5.70378 43.9462 5.92253 44.0374 6.12305C44.1285 6.31901 44.2766 6.50358 44.4817 6.67676C44.6913 6.84538 44.967 7.00488 45.3088 7.15527C45.6506 7.30111 46.0722 7.4401 46.5735 7.57227C47.1021 7.7181 47.5715 7.87988 47.9817 8.05762C48.3918 8.23535 48.7382 8.44043 49.0208 8.67285C49.3033 8.90072 49.5175 9.16732 49.6633 9.47266C49.8092 9.77799 49.8821 10.1335 49.8821 10.5391C49.8821 10.9447 49.7955 11.3092 49.6223 11.6328C49.4537 11.9518 49.2144 12.223 48.9045 12.4463C48.5992 12.6696 48.2369 12.8405 47.8176 12.959C47.4029 13.0775 46.9495 13.1367 46.4573 13.1367C46.0152 13.1367 45.5754 13.0798 45.1379 12.9658C44.7004 12.8519 44.2994 12.6764 43.9348 12.4395C43.5748 12.1979 43.2854 11.888 43.0667 11.5098C42.8525 11.1315 42.7454 10.6803 42.7454 10.1562H43.5793C43.5793 10.5755 43.6637 10.9287 43.8323 11.2158C44.0009 11.5029 44.2242 11.7354 44.5022 11.9131C44.7847 12.0908 45.0946 12.2207 45.4319 12.3027C45.7737 12.3802 46.1155 12.4189 46.4573 12.4189C46.9814 12.4189 47.4348 12.3415 47.8176 12.1865C48.205 12.0316 48.5035 11.8151 48.7131 11.5371C48.9273 11.2546 49.0344 10.9264 49.0344 10.5527ZM56.0071 11.6738V7.85938C56.0071 7.50846 55.9342 7.2054 55.7883 6.9502C55.6425 6.69499 55.4283 6.49902 55.1458 6.3623C54.8632 6.22559 54.5146 6.15723 54.0999 6.15723C53.717 6.15723 53.3752 6.22559 53.0745 6.3623C52.7782 6.49447 52.5435 6.67448 52.3704 6.90234C52.2017 7.12565 52.1174 7.37402 52.1174 7.64746L51.2971 7.64062C51.2971 7.36263 51.3655 7.09375 51.5022 6.83398C51.6389 6.57422 51.8326 6.3418 52.0833 6.13672C52.3339 5.93164 52.6324 5.76986 52.9788 5.65137C53.3297 5.52832 53.7148 5.4668 54.134 5.4668C54.6627 5.4668 55.1275 5.55566 55.5286 5.7334C55.9342 5.91113 56.2509 6.17773 56.4788 6.5332C56.7066 6.88867 56.8206 7.33529 56.8206 7.87305V11.4482C56.8206 11.7035 56.8388 11.9678 56.8752 12.2412C56.9163 12.5146 56.9732 12.7402 57.0461 12.918V13H56.178C56.1233 12.8359 56.08 12.6309 56.0481 12.3848C56.0208 12.1341 56.0071 11.8971 56.0071 11.6738ZM56.1985 8.69336L56.2122 9.32227H54.6057C54.1864 9.32227 53.8105 9.361 53.4778 9.43848C53.1497 9.51139 52.8717 9.62077 52.6438 9.7666C52.4159 9.90788 52.2405 10.0788 52.1174 10.2793C51.9989 10.4798 51.9397 10.7077 51.9397 10.9629C51.9397 11.2272 52.0058 11.4688 52.1379 11.6875C52.2747 11.9062 52.4661 12.0817 52.7122 12.2139C52.9628 12.3415 53.259 12.4053 53.6008 12.4053C54.0566 12.4053 54.4576 12.321 54.804 12.1523C55.1549 11.9837 55.4443 11.7627 55.6721 11.4893C55.9 11.2158 56.0527 10.9173 56.1301 10.5938L56.4856 11.0654C56.4264 11.2933 56.317 11.528 56.1575 11.7695C56.0025 12.0065 55.7997 12.2298 55.5491 12.4395C55.2984 12.6445 55.0022 12.8132 54.6604 12.9453C54.3232 13.0729 53.9403 13.1367 53.512 13.1367C53.0289 13.1367 52.6073 13.0456 52.2473 12.8633C51.8918 12.681 51.6139 12.4326 51.4133 12.1182C51.2174 11.7992 51.1194 11.4391 51.1194 11.0381C51.1194 10.6735 51.1969 10.3477 51.3518 10.0605C51.5068 9.76888 51.7301 9.52279 52.0217 9.32227C52.318 9.11719 52.6734 8.96224 53.0881 8.85742C53.5074 8.74805 53.9768 8.69336 54.4963 8.69336H56.1985ZM61.0862 12.2139L63.4583 5.60352H64.2991L61.5305 13H60.9358L61.0862 12.2139ZM58.9397 5.60352L61.3391 12.2344L61.469 13H60.8674L58.092 5.60352H58.9397ZM68.4075 13.1367C67.9244 13.1367 67.4801 13.0479 67.0745 12.8701C66.6734 12.6924 66.3225 12.4417 66.0217 12.1182C65.7255 11.7946 65.4954 11.4118 65.3313 10.9697C65.1718 10.5231 65.092 10.0355 65.092 9.50684V9.21289C65.092 8.64323 65.1764 8.12826 65.345 7.66797C65.5136 7.20768 65.746 6.81348 66.0422 6.48535C66.3385 6.15723 66.6757 5.90658 67.054 5.7334C67.4368 5.55566 67.8378 5.4668 68.2571 5.4668C68.7265 5.4668 69.1435 5.55111 69.5081 5.71973C69.8726 5.88379 70.178 6.11849 70.4241 6.42383C70.6747 6.72461 70.8639 7.08236 70.9915 7.49707C71.1191 7.90723 71.1829 8.36068 71.1829 8.85742V9.35645H65.5842V8.65918H70.3694V8.56348C70.3603 8.14876 70.276 7.76139 70.1165 7.40137C69.9615 7.03678 69.7291 6.74056 69.4192 6.5127C69.1093 6.28483 68.7219 6.1709 68.2571 6.1709C67.9107 6.1709 67.5917 6.24382 67.3 6.38965C67.0129 6.53548 66.7646 6.74512 66.5549 7.01855C66.3499 7.28743 66.1903 7.60872 66.0764 7.98242C65.967 8.35156 65.9124 8.76172 65.9124 9.21289V9.50684C65.9124 9.91699 65.9716 10.2998 66.0901 10.6553C66.2131 11.0062 66.3863 11.3161 66.6096 11.585C66.8375 11.8538 67.1064 12.0635 67.4163 12.2139C67.7262 12.3643 68.068 12.4395 68.4417 12.4395C68.8792 12.4395 69.2665 12.3597 69.6038 12.2002C69.941 12.0361 70.2441 11.7786 70.5129 11.4277L71.0256 11.8242C70.8661 12.0612 70.6656 12.2799 70.4241 12.4805C70.1871 12.681 69.9023 12.8405 69.5696 12.959C69.2369 13.0775 68.8495 13.1367 68.4075 13.1367Z" fill="black"/>
<g clip-path="url(#clip0_2178_57)">
<path d="M26.3657 24.7244H25.0243C24.8477 24.7244 24.6782 24.6542 24.5533 24.5293C24.4284 24.4044 24.3582 24.235 24.3582 24.0584C24.3582 23.8817 24.4284 23.7123 24.5533 23.5874C24.6782 23.4625 24.8477 23.3923 25.0243 23.3923H27.1848C27.2943 23.3933 27.4029 23.3726 27.5044 23.3313C27.6059 23.2901 27.6982 23.2292 27.7759 23.1521C27.8537 23.075 27.9155 22.9832 27.9576 22.8821C27.9998 22.781 28.0215 22.6726 28.0215 22.563C28.0215 22.4535 27.9998 22.3451 27.9576 22.244C27.9155 22.1429 27.8537 22.0511 27.7759 21.974C27.6982 21.8969 27.6059 21.836 27.5044 21.7948C27.4029 21.7535 27.2943 21.7328 27.1848 21.7338H26.5242V21.4186C26.5242 21.1987 26.4369 20.9878 26.2813 20.8322C26.1258 20.6767 25.9149 20.5894 25.6949 20.5894C25.475 20.5894 25.2641 20.6767 25.1086 20.8322C24.953 20.9878 24.8657 21.1987 24.8657 21.4186V21.7398C24.2641 21.7806 23.7019 22.0535 23.2978 22.501C22.8937 22.9485 22.6793 23.5355 22.6998 24.1381C22.7204 24.7407 22.9744 25.3117 23.4081 25.7306C23.8418 26.1495 24.4213 26.3834 25.0243 26.383H26.3657C26.5424 26.383 26.7118 26.4531 26.8367 26.5781C26.9616 26.703 27.0318 26.8724 27.0318 27.049C27.0318 27.2257 26.9616 27.3951 26.8367 27.52C26.7118 27.6449 26.5424 27.7151 26.3657 27.7151H24.1942C23.9743 27.7151 23.7634 27.8024 23.6078 27.958C23.4523 28.1135 23.3649 28.3244 23.3649 28.5444C23.3649 28.7643 23.4523 28.9752 23.6078 29.1307C23.7634 29.2863 23.9743 29.3736 24.1942 29.3736H24.8658V29.6888C24.8658 29.9087 24.9532 30.1197 25.1087 30.2752C25.2642 30.4307 25.4751 30.5181 25.6951 30.5181C25.915 30.5181 26.1259 30.4307 26.2815 30.2752C26.437 30.1197 26.5244 29.9087 26.5244 29.6888V29.3676C27.1261 29.3271 27.6886 29.0543 28.0929 28.6068C28.4972 28.1592 28.7118 27.5721 28.6912 26.9693C28.6706 26.3665 28.4165 25.7954 27.9826 25.3765C27.5487 24.9576 26.9689 24.7238 26.3658 24.7244H26.3657Z" fill="#9D9863"/>
<path d="M25.6949 17.1118C24.0252 17.1118 22.3931 17.6069 21.0048 18.5345C19.6165 19.4622 18.5345 20.7806 17.8955 22.3232C17.2566 23.8657 17.0894 25.5631 17.4151 27.2007C17.7409 28.8383 18.5449 30.3425 19.7255 31.5231C20.9062 32.7038 22.4104 33.5078 24.0479 33.8335C25.6855 34.1593 27.3829 33.9921 28.9255 33.3531C30.4681 32.7142 31.7865 31.6322 32.7141 30.2439C33.6417 28.8556 34.1369 27.2234 34.1369 25.5538C34.1343 23.3156 33.2441 21.1698 31.6615 19.5872C30.0788 18.0046 27.9331 17.1143 25.6949 17.1118ZM25.6949 32.3372C24.3533 32.3372 23.0418 31.9393 21.9262 31.194C20.8107 30.4486 19.9413 29.3892 19.4278 28.1497C18.9144 26.9102 18.7801 25.5463 19.0418 24.2304C19.3036 22.9146 19.9496 21.7059 20.8983 20.7572C21.847 19.8085 23.0557 19.1625 24.3715 18.9007C25.6874 18.639 27.0513 18.7733 28.2908 19.2867C29.5303 19.8002 30.5897 20.6696 31.3351 21.7851C32.0805 22.9006 32.4783 24.2121 32.4783 25.5538C32.4763 27.3522 31.7609 29.0764 30.4892 30.3481C29.2175 31.6198 27.4933 32.3351 25.6949 32.3372Z" fill="#9D9863"/>
<path d="M27.105 13.3958H25.7119C25.482 13.3958 25.2614 13.4872 25.0988 13.6498C24.9362 13.8124 24.8449 14.0329 24.8449 14.2629C24.8449 14.4928 24.9362 14.7134 25.0988 14.876C25.2614 15.0386 25.482 15.1299 25.7119 15.1299H27.9764C28.2155 15.1209 28.4421 15.0206 28.6095 14.8497C28.777 14.6788 28.8727 14.4503 28.8769 14.211C28.8338 10.4283 27.3009 6.81522 24.6107 4.15558C21.9206 1.49595 18.2902 0.00434139 14.5073 0.00439453C6.58355 0.00439453 0.136963 6.45091 0.136963 14.3748C0.136963 22.2986 6.58355 28.7451 14.5073 28.7451C14.6932 28.745 14.8741 28.6853 15.0235 28.5746C15.1728 28.4639 15.2826 28.3081 15.3368 28.1303C15.3627 28.0562 15.3754 27.9781 15.3743 27.8995V25.4674C15.3723 25.2388 15.28 25.0202 15.1177 24.8592C14.9553 24.6982 14.7359 24.6079 14.5072 24.6079C14.2786 24.6079 14.0592 24.6982 13.8968 24.8592C13.7344 25.0202 13.6422 25.2388 13.6402 25.4674V26.9809C7.32498 26.5508 2.26907 21.4602 1.89407 15.1301H3.30275C3.53271 15.1301 3.75325 15.0387 3.91586 14.8761C4.07846 14.7135 4.16981 14.493 4.16981 14.263C4.16981 14.0331 4.07846 13.8125 3.91586 13.6499C3.75325 13.4873 3.53271 13.3959 3.30275 13.3959H1.90868C2.38813 7.16976 7.39942 2.19381 13.6403 1.76874V3.05829C13.6393 3.17278 13.661 3.28635 13.7041 3.39242C13.7473 3.49849 13.811 3.59497 13.8916 3.67629C13.9722 3.75761 14.0681 3.82216 14.1738 3.86621C14.2795 3.91026 14.3929 3.93294 14.5074 3.93294C14.6219 3.93294 14.7352 3.91026 14.8409 3.86621C14.9466 3.82216 15.0425 3.75761 15.1232 3.67629C15.2038 3.59497 15.2675 3.49849 15.3106 3.39242C15.3537 3.28635 15.3754 3.17278 15.3744 3.05829V1.76901C21.5908 2.19653 26.6235 7.18198 27.105 13.3958Z" fill="#9D9863"/>
<path d="M14.5072 8.4917C14.2773 8.4917 14.0567 8.58305 13.8941 8.74566C13.7315 8.90826 13.6402 9.12881 13.6402 9.35877V13.8736L7.77708 17.2527C7.67843 17.3096 7.59195 17.3853 7.52257 17.4756C7.45319 17.5659 7.40227 17.669 7.37273 17.7789C7.34318 17.8889 7.33557 18.0036 7.35035 18.1165C7.36513 18.2294 7.402 18.3383 7.45886 18.4369C7.51572 18.5355 7.59145 18.622 7.68173 18.6914C7.77201 18.7608 7.87508 18.8117 7.98503 18.8413C8.09499 18.8708 8.2097 18.8784 8.32259 18.8636C8.43549 18.8488 8.54437 18.812 8.64302 18.7551L14.9402 15.1259C14.9561 15.1167 14.97 15.1078 14.983 15.099C15.1032 15.0202 15.2019 14.9127 15.2702 14.7863C15.3385 14.6598 15.3743 14.5184 15.3742 14.3746V9.35877C15.3742 9.2449 15.3518 9.13216 15.3082 9.02696C15.2647 8.92176 15.2008 8.82618 15.1203 8.74566C15.0398 8.66515 14.9442 8.60128 14.839 8.5577C14.7338 8.51413 14.6211 8.4917 14.5072 8.4917Z" fill="#9D9863"/>
</g>
<defs>
<clipPath id="clip0_2178_57">
<rect width="34" height="34" fill="white" transform="translate(0.136963)"/>
</clipPath>
</defs>
</svg>
