<svg width="181" height="31" viewBox="0 0 181 31" fill="none" xmlns="http://www.w3.org/2000/svg">
<path d="M46.4609 25.8516H43.5312V24.1641H46.4609C46.9401 24.1641 47.3281 24.0859 47.625 23.9297C47.9271 23.7682 48.1484 23.5495 48.2891 23.2734C48.4297 22.9922 48.5 22.6719 48.5 22.3125C48.5 21.9635 48.4297 21.638 48.2891 21.3359C48.1484 21.0339 47.9271 20.7891 47.625 20.6016C47.3281 20.4141 46.9401 20.3203 46.4609 20.3203H44.2344V30H42.0859V18.625H46.4609C47.3464 18.625 48.1016 18.7839 48.7266 19.1016C49.3568 19.4141 49.8359 19.849 50.1641 20.4062C50.4974 20.9583 50.6641 21.5885 50.6641 22.2969C50.6641 23.0312 50.4974 23.6641 50.1641 24.1953C49.8359 24.7266 49.3568 25.1354 48.7266 25.4219C48.1016 25.7083 47.3464 25.8516 46.4609 25.8516ZM57.2266 27.9922V21.5469H59.3047V30H57.3516L57.2266 27.9922ZM57.4922 26.2422L58.1328 26.2266C58.1328 26.7943 58.0703 27.3177 57.9453 27.7969C57.8203 28.276 57.625 28.6927 57.3594 29.0469C57.099 29.3958 56.7682 29.6693 56.3672 29.8672C55.9661 30.0599 55.4922 30.1562 54.9453 30.1562C54.5286 30.1562 54.1484 30.099 53.8047 29.9844C53.4609 29.8646 53.1641 29.6797 52.9141 29.4297C52.6693 29.1745 52.4792 28.849 52.3438 28.4531C52.2083 28.0521 52.1406 27.5703 52.1406 27.0078V21.5469H54.2031V27.0234C54.2031 27.3047 54.2344 27.5391 54.2969 27.7266C54.3646 27.9141 54.4557 28.0677 54.5703 28.1875C54.6901 28.3021 54.8281 28.3854 54.9844 28.4375C55.1458 28.4844 55.3177 28.5078 55.5 28.5078C56 28.5078 56.3932 28.4089 56.6797 28.2109C56.9714 28.0078 57.1797 27.737 57.3047 27.3984C57.4297 27.0547 57.4922 26.6693 57.4922 26.2422ZM61.125 18H63.1953V28.1328L62.9922 30H61.125V18ZM68.6328 25.6875V25.8516C68.6328 26.4818 68.5625 27.0599 68.4219 27.5859C68.2865 28.112 68.0807 28.5677 67.8047 28.9531C67.5286 29.3333 67.1849 29.6302 66.7734 29.8438C66.3672 30.0521 65.8906 30.1562 65.3438 30.1562C64.8229 30.1562 64.3698 30.0547 63.9844 29.8516C63.6042 29.6484 63.2839 29.362 63.0234 28.9922C62.763 28.6172 62.5547 28.1771 62.3984 27.6719C62.2422 27.1615 62.125 26.6042 62.0469 26V25.5547C62.125 24.9453 62.2422 24.388 62.3984 23.8828C62.5547 23.3776 62.763 22.9375 63.0234 22.5625C63.2839 22.1875 63.6042 21.8984 63.9844 21.6953C64.3646 21.4922 64.8125 21.3906 65.3281 21.3906C65.8802 21.3906 66.362 21.4974 66.7734 21.7109C67.1901 21.9193 67.5339 22.2161 67.8047 22.6016C68.0807 22.9818 68.2865 23.4349 68.4219 23.9609C68.5625 24.4818 68.6328 25.0573 68.6328 25.6875ZM66.5625 25.8516V25.6875C66.5625 25.3281 66.5339 24.9896 66.4766 24.6719C66.4193 24.349 66.3255 24.0651 66.1953 23.8203C66.0651 23.5755 65.888 23.3828 65.6641 23.2422C65.4401 23.1016 65.1589 23.0312 64.8203 23.0312C64.4974 23.0312 64.2214 23.0859 63.9922 23.1953C63.7682 23.3047 63.5807 23.4557 63.4297 23.6484C63.2839 23.8411 63.1693 24.0677 63.0859 24.3281C63.0078 24.5885 62.9557 24.8698 62.9297 25.1719V26.3906C62.9661 26.7917 63.0521 27.1536 63.1875 27.4766C63.3229 27.7943 63.5234 28.0469 63.7891 28.2344C64.0599 28.4219 64.4089 28.5156 64.8359 28.5156C65.1693 28.5156 65.4479 28.4505 65.6719 28.3203C65.8958 28.1849 66.0729 27.9974 66.2031 27.7578C66.3333 27.513 66.4245 27.2292 66.4766 26.9062C66.5339 26.5833 66.5625 26.2318 66.5625 25.8516ZM72.3203 18V30H70.25V18H72.3203ZM76.4766 21.5469V30H74.4062V21.5469H76.4766ZM74.2656 19.3359C74.2656 19.0286 74.3698 18.7734 74.5781 18.5703C74.7917 18.3672 75.0781 18.2656 75.4375 18.2656C75.7969 18.2656 76.0807 18.3672 76.2891 18.5703C76.5026 18.7734 76.6094 19.0286 76.6094 19.3359C76.6094 19.638 76.5026 19.8906 76.2891 20.0938C76.0807 20.2969 75.7969 20.3984 75.4375 20.3984C75.0781 20.3984 74.7917 20.2969 74.5781 20.0938C74.3698 19.8906 74.2656 19.638 74.2656 19.3359ZM81.9141 28.5312C82.2057 28.5312 82.4661 28.474 82.6953 28.3594C82.9245 28.2448 83.1068 28.0833 83.2422 27.875C83.3828 27.6667 83.4583 27.4245 83.4688 27.1484H85.4141C85.4036 27.7214 85.2422 28.2344 84.9297 28.6875C84.6172 29.1406 84.2005 29.5 83.6797 29.7656C83.1641 30.026 82.5859 30.1562 81.9453 30.1562C81.2943 30.1562 80.7266 30.0469 80.2422 29.8281C79.7578 29.6094 79.3542 29.3047 79.0312 28.9141C78.7135 28.5234 78.474 28.0703 78.3125 27.5547C78.1562 27.0391 78.0781 26.487 78.0781 25.8984V25.6484C78.0781 25.0599 78.1562 24.5078 78.3125 23.9922C78.474 23.4766 78.7135 23.0234 79.0312 22.6328C79.3542 22.2422 79.7578 21.9375 80.2422 21.7188C80.7266 21.5 81.2917 21.3906 81.9375 21.3906C82.6198 21.3906 83.2188 21.5234 83.7344 21.7891C84.2552 22.0547 84.6615 22.4297 84.9531 22.9141C85.25 23.3984 85.4036 23.9688 85.4141 24.625H83.4688C83.4583 24.3229 83.3906 24.0521 83.2656 23.8125C83.1406 23.5729 82.9635 23.3802 82.7344 23.2344C82.5052 23.0885 82.2266 23.0156 81.8984 23.0156C81.5495 23.0156 81.2578 23.0885 81.0234 23.2344C80.7943 23.3802 80.6146 23.5807 80.4844 23.8359C80.3594 24.0859 80.2708 24.3672 80.2188 24.6797C80.1719 24.987 80.1484 25.3099 80.1484 25.6484V25.8984C80.1484 26.2422 80.1719 26.5703 80.2188 26.8828C80.2708 27.1953 80.3594 27.4766 80.4844 27.7266C80.6146 27.9714 80.7943 28.1667 81.0234 28.3125C81.2578 28.4583 81.5547 28.5312 81.9141 28.5312ZM95.4531 20.3516L92.2109 30H89.9375L94.1875 18.625H95.6406L95.4531 20.3516ZM98.1641 30L94.9062 20.3516L94.7109 18.625H96.1719L100.445 30H98.1641ZM98.0156 25.7734V27.4688H91.9141V25.7734H98.0156ZM104.93 28.5312C105.221 28.5312 105.482 28.474 105.711 28.3594C105.94 28.2448 106.122 28.0833 106.258 27.875C106.398 27.6667 106.474 27.4245 106.484 27.1484H108.43C108.419 27.7214 108.258 28.2344 107.945 28.6875C107.633 29.1406 107.216 29.5 106.695 29.7656C106.18 30.026 105.602 30.1562 104.961 30.1562C104.31 30.1562 103.742 30.0469 103.258 29.8281C102.773 29.6094 102.37 29.3047 102.047 28.9141C101.729 28.5234 101.49 28.0703 101.328 27.5547C101.172 27.0391 101.094 26.487 101.094 25.8984V25.6484C101.094 25.0599 101.172 24.5078 101.328 23.9922C101.49 23.4766 101.729 23.0234 102.047 22.6328C102.37 22.2422 102.773 21.9375 103.258 21.7188C103.742 21.5 104.307 21.3906 104.953 21.3906C105.635 21.3906 106.234 21.5234 106.75 21.7891C107.271 22.0547 107.677 22.4297 107.969 22.9141C108.266 23.3984 108.419 23.9688 108.43 24.625H106.484C106.474 24.3229 106.406 24.0521 106.281 23.8125C106.156 23.5729 105.979 23.3802 105.75 23.2344C105.521 23.0885 105.242 23.0156 104.914 23.0156C104.565 23.0156 104.273 23.0885 104.039 23.2344C103.81 23.3802 103.63 23.5807 103.5 23.8359C103.375 24.0859 103.286 24.3672 103.234 24.6797C103.188 24.987 103.164 25.3099 103.164 25.6484V25.8984C103.164 26.2422 103.188 26.5703 103.234 26.8828C103.286 27.1953 103.375 27.4766 103.5 27.7266C103.63 27.9714 103.81 28.1667 104.039 28.3125C104.273 28.4583 104.57 28.5312 104.93 28.5312ZM113.273 28.5312C113.565 28.5312 113.826 28.474 114.055 28.3594C114.284 28.2448 114.466 28.0833 114.602 27.875C114.742 27.6667 114.818 27.4245 114.828 27.1484H116.773C116.763 27.7214 116.602 28.2344 116.289 28.6875C115.977 29.1406 115.56 29.5 115.039 29.7656C114.523 30.026 113.945 30.1562 113.305 30.1562C112.654 30.1562 112.086 30.0469 111.602 29.8281C111.117 29.6094 110.714 29.3047 110.391 28.9141C110.073 28.5234 109.833 28.0703 109.672 27.5547C109.516 27.0391 109.438 26.487 109.438 25.8984V25.6484C109.438 25.0599 109.516 24.5078 109.672 23.9922C109.833 23.4766 110.073 23.0234 110.391 22.6328C110.714 22.2422 111.117 21.9375 111.602 21.7188C112.086 21.5 112.651 21.3906 113.297 21.3906C113.979 21.3906 114.578 21.5234 115.094 21.7891C115.615 22.0547 116.021 22.4297 116.312 22.9141C116.609 23.3984 116.763 23.9688 116.773 24.625H114.828C114.818 24.3229 114.75 24.0521 114.625 23.8125C114.5 23.5729 114.323 23.3802 114.094 23.2344C113.865 23.0885 113.586 23.0156 113.258 23.0156C112.909 23.0156 112.617 23.0885 112.383 23.2344C112.154 23.3802 111.974 23.5807 111.844 23.8359C111.719 24.0859 111.63 24.3672 111.578 24.6797C111.531 24.987 111.508 25.3099 111.508 25.6484V25.8984C111.508 26.2422 111.531 26.5703 111.578 26.8828C111.63 27.1953 111.719 27.4766 111.844 27.7266C111.974 27.9714 112.154 28.1667 112.383 28.3125C112.617 28.4583 112.914 28.5312 113.273 28.5312ZM117.781 25.8594V25.6953C117.781 25.0755 117.87 24.5052 118.047 23.9844C118.224 23.4583 118.482 23.0026 118.82 22.6172C119.159 22.2318 119.573 21.9323 120.062 21.7188C120.552 21.5 121.109 21.3906 121.734 21.3906C122.37 21.3906 122.932 21.5 123.422 21.7188C123.917 21.9323 124.333 22.2318 124.672 22.6172C125.01 23.0026 125.268 23.4583 125.445 23.9844C125.622 24.5052 125.711 25.0755 125.711 25.6953V25.8594C125.711 26.474 125.622 27.0443 125.445 27.5703C125.268 28.0911 125.01 28.5469 124.672 28.9375C124.333 29.3229 123.919 29.6224 123.43 29.8359C122.94 30.0495 122.38 30.1562 121.75 30.1562C121.125 30.1562 120.565 30.0495 120.07 29.8359C119.576 29.6224 119.159 29.3229 118.82 28.9375C118.482 28.5469 118.224 28.0911 118.047 27.5703C117.87 27.0443 117.781 26.474 117.781 25.8594ZM119.844 25.6953V25.8594C119.844 26.2292 119.88 26.5755 119.953 26.8984C120.026 27.2214 120.138 27.5052 120.289 27.75C120.44 27.9948 120.635 28.1875 120.875 28.3281C121.12 28.4635 121.411 28.5312 121.75 28.5312C122.083 28.5312 122.37 28.4635 122.609 28.3281C122.849 28.1875 123.044 27.9948 123.195 27.75C123.352 27.5052 123.466 27.2214 123.539 26.8984C123.612 26.5755 123.648 26.2292 123.648 25.8594V25.6953C123.648 25.3307 123.612 24.9896 123.539 24.6719C123.466 24.349 123.352 24.0651 123.195 23.8203C123.044 23.5703 122.846 23.375 122.602 23.2344C122.362 23.0885 122.073 23.0156 121.734 23.0156C121.401 23.0156 121.115 23.0885 120.875 23.2344C120.635 23.375 120.44 23.5703 120.289 23.8203C120.138 24.0651 120.026 24.349 119.953 24.6719C119.88 24.9896 119.844 25.3307 119.844 25.6953ZM132.242 27.9922V21.5469H134.32V30H132.367L132.242 27.9922ZM132.508 26.2422L133.148 26.2266C133.148 26.7943 133.086 27.3177 132.961 27.7969C132.836 28.276 132.641 28.6927 132.375 29.0469C132.115 29.3958 131.784 29.6693 131.383 29.8672C130.982 30.0599 130.508 30.1562 129.961 30.1562C129.544 30.1562 129.164 30.099 128.82 29.9844C128.477 29.8646 128.18 29.6797 127.93 29.4297C127.685 29.1745 127.495 28.849 127.359 28.4531C127.224 28.0521 127.156 27.5703 127.156 27.0078V21.5469H129.219V27.0234C129.219 27.3047 129.25 27.5391 129.312 27.7266C129.38 27.9141 129.471 28.0677 129.586 28.1875C129.706 28.3021 129.844 28.3854 130 28.4375C130.161 28.4844 130.333 28.5078 130.516 28.5078C131.016 28.5078 131.409 28.4089 131.695 28.2109C131.987 28.0078 132.195 27.737 132.32 27.3984C132.445 27.0547 132.508 26.6693 132.508 26.2422ZM138.172 23.3516V30H136.109V21.5469H138.047L138.172 23.3516ZM137.844 25.4688H137.234C137.24 24.8542 137.323 24.2969 137.484 23.7969C137.646 23.2969 137.872 22.8672 138.164 22.5078C138.461 22.1484 138.812 21.8724 139.219 21.6797C139.625 21.487 140.078 21.3906 140.578 21.3906C140.984 21.3906 141.352 21.4479 141.68 21.5625C142.008 21.6771 142.289 21.8594 142.523 22.1094C142.763 22.3594 142.945 22.6875 143.07 23.0938C143.201 23.4948 143.266 23.9896 143.266 24.5781V30H141.188V24.5625C141.188 24.1771 141.13 23.8724 141.016 23.6484C140.906 23.4245 140.745 23.2656 140.531 23.1719C140.323 23.0781 140.065 23.0312 139.758 23.0312C139.44 23.0312 139.161 23.0964 138.922 23.2266C138.688 23.3516 138.49 23.526 138.328 23.75C138.172 23.974 138.052 24.2318 137.969 24.5234C137.885 24.8151 137.844 25.1302 137.844 25.4688ZM149.086 21.5469V23.0312H144.242V21.5469H149.086ZM145.539 19.4688H147.609V27.5625C147.609 27.8125 147.643 28.0052 147.711 28.1406C147.779 28.276 147.88 28.3672 148.016 28.4141C148.151 28.4609 148.312 28.4844 148.5 28.4844C148.635 28.4844 148.76 28.4766 148.875 28.4609C148.99 28.4453 149.086 28.4297 149.164 28.4141L149.172 29.9609C149 30.0182 148.805 30.0651 148.586 30.1016C148.372 30.138 148.13 30.1562 147.859 30.1562C147.396 30.1562 146.99 30.0781 146.641 29.9219C146.292 29.7604 146.021 29.5026 145.828 29.1484C145.635 28.7891 145.539 28.3151 145.539 27.7266V19.4688ZM155.117 28.2031V24.3047C155.117 24.0182 155.068 23.7708 154.969 23.5625C154.87 23.3542 154.719 23.1927 154.516 23.0781C154.312 22.9635 154.055 22.9062 153.742 22.9062C153.466 22.9062 153.224 22.9531 153.016 23.0469C152.812 23.1406 152.656 23.2734 152.547 23.4453C152.438 23.612 152.383 23.8047 152.383 24.0234H150.312C150.312 23.6745 150.396 23.3438 150.562 23.0312C150.729 22.7135 150.966 22.4323 151.273 22.1875C151.586 21.9375 151.958 21.7422 152.391 21.6016C152.828 21.4609 153.318 21.3906 153.859 21.3906C154.5 21.3906 155.07 21.5 155.57 21.7188C156.076 21.9323 156.471 22.2552 156.758 22.6875C157.049 23.1198 157.195 23.6641 157.195 24.3203V28.0078C157.195 28.4297 157.221 28.7917 157.273 29.0938C157.331 29.3906 157.414 29.6484 157.523 29.8672V30H155.422C155.323 29.7865 155.247 29.5156 155.195 29.1875C155.143 28.8542 155.117 28.526 155.117 28.2031ZM155.406 24.8516L155.422 26.0781H154.117C153.794 26.0781 153.51 26.112 153.266 26.1797C153.021 26.2422 152.82 26.3359 152.664 26.4609C152.508 26.5807 152.391 26.7266 152.312 26.8984C152.234 27.0651 152.195 27.2552 152.195 27.4688C152.195 27.6771 152.242 27.8646 152.336 28.0312C152.435 28.1979 152.576 28.3307 152.758 28.4297C152.945 28.5234 153.164 28.5703 153.414 28.5703C153.779 28.5703 154.096 28.4974 154.367 28.3516C154.638 28.2005 154.849 28.0182 155 27.8047C155.151 27.5911 155.232 27.388 155.242 27.1953L155.836 28.0859C155.763 28.2995 155.654 28.526 155.508 28.7656C155.362 29.0052 155.174 29.2292 154.945 29.4375C154.716 29.6458 154.44 29.8177 154.117 29.9531C153.794 30.0885 153.419 30.1562 152.992 30.1562C152.445 30.1562 151.956 30.0469 151.523 29.8281C151.091 29.6094 150.75 29.3099 150.5 28.9297C150.25 28.5495 150.125 28.1172 150.125 27.6328C150.125 27.1849 150.208 26.7891 150.375 26.4453C150.542 26.1016 150.789 25.8125 151.117 25.5781C151.445 25.3385 151.852 25.1589 152.336 25.0391C152.826 24.9141 153.385 24.8516 154.016 24.8516H155.406ZM161.078 23.3516V30H159.016V21.5469H160.953L161.078 23.3516ZM160.75 25.4688H160.141C160.146 24.8542 160.229 24.2969 160.391 23.7969C160.552 23.2969 160.779 22.8672 161.07 22.5078C161.367 22.1484 161.719 21.8724 162.125 21.6797C162.531 21.487 162.984 21.3906 163.484 21.3906C163.891 21.3906 164.258 21.4479 164.586 21.5625C164.914 21.6771 165.195 21.8594 165.43 22.1094C165.669 22.3594 165.852 22.6875 165.977 23.0938C166.107 23.4948 166.172 23.9896 166.172 24.5781V30H164.094V24.5625C164.094 24.1771 164.036 23.8724 163.922 23.6484C163.812 23.4245 163.651 23.2656 163.438 23.1719C163.229 23.0781 162.971 23.0312 162.664 23.0312C162.346 23.0312 162.068 23.0964 161.828 23.2266C161.594 23.3516 161.396 23.526 161.234 23.75C161.078 23.974 160.958 24.2318 160.875 24.5234C160.792 24.8151 160.75 25.1302 160.75 25.4688ZM171.992 21.5469V23.0312H167.148V21.5469H171.992ZM168.445 19.4688H170.516V27.5625C170.516 27.8125 170.549 28.0052 170.617 28.1406C170.685 28.276 170.786 28.3672 170.922 28.4141C171.057 28.4609 171.219 28.4844 171.406 28.4844C171.542 28.4844 171.667 28.4766 171.781 28.4609C171.896 28.4453 171.992 28.4297 172.07 28.4141L172.078 29.9609C171.906 30.0182 171.711 30.0651 171.492 30.1016C171.279 30.138 171.036 30.1562 170.766 30.1562C170.302 30.1562 169.896 30.0781 169.547 29.9219C169.198 29.7604 168.927 29.5026 168.734 29.1484C168.542 28.7891 168.445 28.3151 168.445 27.7266V19.4688ZM178.016 27.6875C178.016 27.5104 177.969 27.3516 177.875 27.2109C177.781 27.0703 177.604 26.9427 177.344 26.8281C177.089 26.7083 176.714 26.5964 176.219 26.4922C175.781 26.3984 175.378 26.2812 175.008 26.1406C174.638 26 174.32 25.8307 174.055 25.6328C173.789 25.4297 173.581 25.1927 173.43 24.9219C173.284 24.6458 173.211 24.3281 173.211 23.9688C173.211 23.6198 173.286 23.2917 173.438 22.9844C173.589 22.6719 173.807 22.3984 174.094 22.1641C174.38 21.9245 174.729 21.737 175.141 21.6016C175.552 21.4609 176.016 21.3906 176.531 21.3906C177.25 21.3906 177.867 21.5078 178.383 21.7422C178.904 21.9766 179.302 22.2995 179.578 22.7109C179.854 23.1172 179.992 23.5755 179.992 24.0859H177.93C177.93 23.862 177.878 23.6589 177.773 23.4766C177.674 23.2943 177.521 23.1484 177.312 23.0391C177.104 22.9245 176.841 22.8672 176.523 22.8672C176.237 22.8672 175.995 22.9141 175.797 23.0078C175.604 23.1016 175.458 23.224 175.359 23.375C175.26 23.526 175.211 23.6927 175.211 23.875C175.211 24.0104 175.237 24.1328 175.289 24.2422C175.346 24.3464 175.438 24.4427 175.562 24.5312C175.688 24.6198 175.857 24.7005 176.07 24.7734C176.289 24.8464 176.557 24.9167 176.875 24.9844C177.505 25.1094 178.055 25.276 178.523 25.4844C178.997 25.6875 179.367 25.9583 179.633 26.2969C179.898 26.6354 180.031 27.0677 180.031 27.5938C180.031 27.9688 179.951 28.3125 179.789 28.625C179.628 28.9323 179.393 29.2005 179.086 29.4297C178.779 29.6589 178.411 29.8385 177.984 29.9688C177.557 30.0938 177.076 30.1562 176.539 30.1562C175.763 30.1562 175.107 30.0182 174.57 29.7422C174.034 29.4609 173.628 29.1068 173.352 28.6797C173.076 28.2474 172.938 27.7995 172.938 27.3359H174.914C174.93 27.6641 175.018 27.9271 175.18 28.125C175.341 28.3229 175.544 28.4661 175.789 28.5547C176.039 28.638 176.302 28.6797 176.578 28.6797C176.891 28.6797 177.154 28.638 177.367 28.5547C177.581 28.4661 177.742 28.349 177.852 28.2031C177.961 28.0521 178.016 27.8802 178.016 27.6875Z" fill="#224859"/>
<path d="M48.4648 7.89648H49.3057C49.2373 8.56641 49.0527 9.14518 48.752 9.63281C48.4512 10.1159 48.041 10.4873 47.5215 10.7471C47.002 11.0068 46.3753 11.1367 45.6416 11.1367C45.0765 11.1367 44.5638 11.0296 44.1035 10.8154C43.6478 10.6012 43.2559 10.2982 42.9277 9.90625C42.5996 9.50977 42.3467 9.03581 42.1689 8.48438C41.9912 7.93294 41.9023 7.31999 41.9023 6.64551V5.40137C41.9023 4.72689 41.9912 4.11621 42.1689 3.56934C42.3467 3.0179 42.6019 2.54395 42.9346 2.14746C43.2673 1.75098 43.666 1.44564 44.1309 1.23145C44.5957 1.01725 45.1198 0.910156 45.7031 0.910156C46.4095 0.910156 47.0202 1.04004 47.5352 1.2998C48.0501 1.55501 48.4557 1.92415 48.752 2.40723C49.0527 2.8903 49.2373 3.47363 49.3057 4.15723H48.4648C48.401 3.61947 48.2598 3.16374 48.041 2.79004C47.8223 2.41634 47.5192 2.13151 47.1318 1.93555C46.749 1.73503 46.2728 1.63477 45.7031 1.63477C45.2383 1.63477 44.8236 1.72363 44.459 1.90137C44.0944 2.0791 43.7845 2.33431 43.5293 2.66699C43.2741 2.99512 43.0781 3.38932 42.9414 3.84961C42.8092 4.3099 42.7432 4.82259 42.7432 5.3877V6.64551C42.7432 7.19238 42.807 7.69596 42.9346 8.15625C43.0622 8.61654 43.249 9.0153 43.4951 9.35254C43.7458 9.68978 44.0511 9.95182 44.4111 10.1387C44.7712 10.3255 45.1813 10.4189 45.6416 10.4189C46.2295 10.4189 46.7194 10.3255 47.1113 10.1387C47.5078 9.94727 47.8154 9.66471 48.0342 9.29102C48.2529 8.91732 48.3965 8.45247 48.4648 7.89648ZM54.0225 11.1367C53.5394 11.1367 53.0951 11.0479 52.6895 10.8701C52.2884 10.6924 51.9375 10.4417 51.6367 10.1182C51.3405 9.7946 51.1104 9.41178 50.9463 8.96973C50.7868 8.52311 50.707 8.03548 50.707 7.50684V7.21289C50.707 6.64323 50.7913 6.12826 50.96 5.66797C51.1286 5.20768 51.361 4.81348 51.6572 4.48535C51.9535 4.15723 52.2907 3.90658 52.6689 3.7334C53.0518 3.55566 53.4528 3.4668 53.8721 3.4668C54.3415 3.4668 54.7585 3.55111 55.123 3.71973C55.4876 3.88379 55.793 4.11849 56.0391 4.42383C56.2897 4.72461 56.4788 5.08236 56.6064 5.49707C56.734 5.90723 56.7979 6.36068 56.7979 6.85742V7.35645H51.1992V6.65918H55.9844V6.56348C55.9753 6.14876 55.891 5.76139 55.7314 5.40137C55.5765 5.03678 55.3441 4.74056 55.0342 4.5127C54.7243 4.28483 54.3369 4.1709 53.8721 4.1709C53.5257 4.1709 53.2067 4.24382 52.915 4.38965C52.6279 4.53548 52.3796 4.74512 52.1699 5.01855C51.9648 5.28743 51.8053 5.60872 51.6914 5.98242C51.582 6.35156 51.5273 6.76172 51.5273 7.21289V7.50684C51.5273 7.91699 51.5866 8.2998 51.7051 8.65527C51.8281 9.00618 52.0013 9.31608 52.2246 9.58496C52.4525 9.85384 52.7214 10.0635 53.0312 10.2139C53.3411 10.3643 53.6829 10.4395 54.0566 10.4395C54.4941 10.4395 54.8815 10.3597 55.2188 10.2002C55.556 10.0361 55.859 9.77865 56.1279 9.42773L56.6406 9.82422C56.4811 10.0612 56.2806 10.2799 56.0391 10.4805C55.8021 10.681 55.5173 10.8405 55.1846 10.959C54.8519 11.0775 54.4645 11.1367 54.0225 11.1367ZM59.2246 4.82715V11H58.4111V3.60352H59.2041L59.2246 4.82715ZM61.8428 3.54883L61.8223 4.30078C61.7311 4.28711 61.6423 4.27572 61.5557 4.2666C61.4691 4.25749 61.3757 4.25293 61.2754 4.25293C60.9199 4.25293 60.6077 4.31901 60.3389 4.45117C60.0745 4.57878 59.8512 4.75879 59.6689 4.99121C59.4867 5.21908 59.3477 5.48796 59.252 5.79785C59.1562 6.10319 59.1016 6.43132 59.0879 6.78223L58.7871 6.89844C58.7871 6.41536 58.8372 5.96647 58.9375 5.55176C59.0378 5.13704 59.1904 4.77474 59.3955 4.46484C59.6051 4.15039 59.8672 3.90658 60.1816 3.7334C60.5007 3.55566 60.8743 3.4668 61.3027 3.4668C61.4076 3.4668 61.5101 3.47591 61.6104 3.49414C61.7152 3.50781 61.7926 3.52604 61.8428 3.54883ZM66.2656 3.60352V4.27344H62.5605V3.60352H66.2656ZM63.9209 1.70312H64.7344V9.20215C64.7344 9.54395 64.7799 9.80143 64.8711 9.97461C64.9622 10.1478 65.0807 10.264 65.2266 10.3232C65.3724 10.3825 65.5296 10.4121 65.6982 10.4121C65.8213 10.4121 65.9398 10.4053 66.0537 10.3916C66.1676 10.3734 66.2702 10.3551 66.3613 10.3369L66.3955 11.0273C66.2952 11.0592 66.1654 11.0843 66.0059 11.1025C65.8464 11.1253 65.6868 11.1367 65.5273 11.1367C65.2129 11.1367 64.9349 11.0798 64.6934 10.9658C64.4518 10.8473 64.2627 10.6468 64.126 10.3643C63.9893 10.0771 63.9209 9.6875 63.9209 9.19531V1.70312ZM68.8906 3.60352V11H68.0771V3.60352H68.8906ZM67.9336 1.46387C67.9336 1.30892 67.9814 1.17904 68.0771 1.07422C68.1774 0.964844 68.3141 0.910156 68.4873 0.910156C68.6605 0.910156 68.7972 0.964844 68.8975 1.07422C69.0023 1.17904 69.0547 1.30892 69.0547 1.46387C69.0547 1.61426 69.0023 1.74414 68.8975 1.85352C68.7972 1.95833 68.6605 2.01074 68.4873 2.01074C68.3141 2.01074 68.1774 1.95833 68.0771 1.85352C67.9814 1.74414 67.9336 1.61426 67.9336 1.46387ZM72.4316 11H71.6182V2.82422C71.6182 2.29102 71.7161 1.84212 71.9121 1.47754C72.1126 1.1084 72.3952 0.830404 72.7598 0.643555C73.1289 0.452148 73.5664 0.356445 74.0723 0.356445C74.3776 0.356445 74.6875 0.390625 75.002 0.458984C75.3164 0.527344 75.6331 0.627604 75.9521 0.759766L75.8223 1.4707C75.5807 1.36589 75.3278 1.2793 75.0635 1.21094C74.7992 1.14258 74.4847 1.1084 74.1201 1.1084C73.5641 1.1084 73.1426 1.25423 72.8555 1.5459C72.5729 1.83757 72.4316 2.26367 72.4316 2.82422V11ZM74.1611 3.60352V4.27344H70.3877V3.60352H74.1611ZM76.3965 3.60352V11H75.583V3.60352H76.3965ZM81.5166 11.1367C81.0335 11.1367 80.5892 11.0479 80.1836 10.8701C79.7826 10.6924 79.4316 10.4417 79.1309 10.1182C78.8346 9.7946 78.6045 9.41178 78.4404 8.96973C78.2809 8.52311 78.2012 8.03548 78.2012 7.50684V7.21289C78.2012 6.64323 78.2855 6.12826 78.4541 5.66797C78.6227 5.20768 78.8551 4.81348 79.1514 4.48535C79.4476 4.15723 79.7848 3.90658 80.1631 3.7334C80.5459 3.55566 80.9469 3.4668 81.3662 3.4668C81.8356 3.4668 82.2526 3.55111 82.6172 3.71973C82.9818 3.88379 83.2871 4.11849 83.5332 4.42383C83.7839 4.72461 83.973 5.08236 84.1006 5.49707C84.2282 5.90723 84.292 6.36068 84.292 6.85742V7.35645H78.6934V6.65918H83.4785V6.56348C83.4694 6.14876 83.3851 5.76139 83.2256 5.40137C83.0706 5.03678 82.8382 4.74056 82.5283 4.5127C82.2184 4.28483 81.8311 4.1709 81.3662 4.1709C81.0199 4.1709 80.7008 4.24382 80.4092 4.38965C80.1221 4.53548 79.8737 4.74512 79.6641 5.01855C79.459 5.28743 79.2995 5.60872 79.1855 5.98242C79.0762 6.35156 79.0215 6.76172 79.0215 7.21289V7.50684C79.0215 7.91699 79.0807 8.2998 79.1992 8.65527C79.3223 9.00618 79.4954 9.31608 79.7188 9.58496C79.9466 9.85384 80.2155 10.0635 80.5254 10.2139C80.8353 10.3643 81.1771 10.4395 81.5508 10.4395C81.9883 10.4395 82.3757 10.3597 82.7129 10.2002C83.0501 10.0361 83.3532 9.77865 83.6221 9.42773L84.1348 9.82422C83.9753 10.0612 83.7747 10.2799 83.5332 10.4805C83.2962 10.681 83.0114 10.8405 82.6787 10.959C82.346 11.0775 81.9587 11.1367 81.5166 11.1367ZM90.7109 9.56445V0.5H91.5312V11H90.7656L90.7109 9.56445ZM85.5771 7.37695V7.2334C85.5771 6.65918 85.6432 6.14193 85.7754 5.68164C85.9076 5.2168 86.0967 4.82031 86.3428 4.49219C86.5934 4.15951 86.8942 3.90658 87.2451 3.7334C87.596 3.55566 87.9925 3.4668 88.4346 3.4668C88.8675 3.4668 89.2503 3.53743 89.583 3.67871C89.9157 3.81999 90.2005 4.02279 90.4375 4.28711C90.679 4.55143 90.8727 4.86589 91.0186 5.23047C91.1689 5.59505 91.2783 6.00065 91.3467 6.44727V8.27246C91.292 8.69173 91.1917 9.07682 91.0459 9.42773C90.9001 9.77409 90.7064 10.0771 90.4648 10.3369C90.2233 10.5921 89.9316 10.7904 89.5898 10.9316C89.2526 11.0684 88.863 11.1367 88.4209 11.1367C87.9834 11.1367 87.5892 11.0456 87.2383 10.8633C86.8874 10.681 86.5889 10.4235 86.3428 10.0908C86.0967 9.75358 85.9076 9.35482 85.7754 8.89453C85.6432 8.43424 85.5771 7.92839 85.5771 7.37695ZM86.3975 7.2334V7.37695C86.3975 7.8099 86.4408 8.21094 86.5273 8.58008C86.6139 8.94922 86.7461 9.27051 86.9238 9.54395C87.1016 9.81738 87.3271 10.0316 87.6006 10.1865C87.874 10.3415 88.1976 10.4189 88.5713 10.4189C89.0407 10.4189 89.4349 10.3301 89.7539 10.1523C90.0729 9.97005 90.3281 9.73079 90.5195 9.43457C90.7109 9.13379 90.8499 8.80566 90.9365 8.4502V6.32422C90.8818 6.08268 90.8021 5.83659 90.6973 5.58594C90.5924 5.33529 90.4489 5.10514 90.2666 4.89551C90.0889 4.68132 89.861 4.51042 89.583 4.38281C89.3096 4.25065 88.9769 4.18457 88.585 4.18457C88.2067 4.18457 87.8809 4.26204 87.6074 4.41699C87.334 4.57194 87.1061 4.78841 86.9238 5.06641C86.7461 5.33984 86.6139 5.66113 86.5273 6.03027C86.4408 6.39941 86.3975 6.80046 86.3975 7.2334Z" fill="black"/>
<g clip-path="url(#clip0_2178_25)">
<path d="M29.5833 16.1457V16.2707H29.7083H30.3541C30.7848 16.2707 31.1249 15.9305 31.1249 15.4998C31.1249 15.0691 30.7848 14.729 30.3541 14.729H29.7083H29.5833V14.854V16.1457Z" fill="#9D9863" stroke="#9D9863" stroke-width="0.25"/>
<path d="M16.1458 14.729H16.0208V14.854V16.1457V16.2707H16.1458H29.7083H29.8333V16.1457V14.854V14.729H29.7083H16.1458Z" fill="#9D9863" stroke="#9D9863" stroke-width="0.25"/>
<path d="M31 15.5H30.875C30.875 15.7926 30.6468 16.0208 30.3542 16.0208H29.7083H29.5833V16.1458V27.7708C29.5833 28.7739 28.7739 29.5833 27.7708 29.5833H16.1458H16.0208V29.7083V30.3542C16.0208 30.6468 15.7926 30.875 15.5 30.875V31V31.125H27.7708C29.6224 31.125 31.125 29.6224 31.125 27.7708V15.5H31Z" fill="#9D9863" stroke="#9D9863" stroke-width="0.25"/>
<path d="M29.5833 14.8542V14.9792H29.7083H30.3542C30.6468 14.9792 30.875 15.2074 30.875 15.5H31H31.125V3.22917C31.125 1.37763 29.6224 -0.125 27.7708 -0.125H15.5V0V0.125C15.7926 0.125 16.0208 0.353202 16.0208 0.645833V1.29167V1.41667H16.1458H27.7708C28.7739 1.41667 29.5833 2.22612 29.5833 3.22917V14.8542Z" fill="#9D9863" stroke="#9D9863" stroke-width="0.25"/>
<path d="M26.6041 8.39583C26.6041 7.96513 26.264 7.625 25.8333 7.625H20.6666C20.2359 7.625 19.8958 7.96513 19.8958 8.39583C19.8958 8.82654 20.2359 9.16667 20.6666 9.16667H25.8333C26.264 9.16667 26.6041 8.82654 26.6041 8.39583Z" fill="#9D9863" stroke="#9D9863" stroke-width="0.25"/>
<path d="M26.6041 21.3123C26.6041 20.8816 26.264 20.5415 25.8333 20.5415H20.6666C20.2359 20.5415 19.8958 20.8816 19.8958 21.3123C19.8958 21.743 20.2359 22.0832 20.6666 22.0832H25.8333C26.264 22.0832 26.6041 21.743 26.6041 21.3123Z" fill="#9D9863" stroke="#9D9863" stroke-width="0.25"/>
<path d="M26.6041 25.1873C26.6041 24.7566 26.264 24.4165 25.8333 24.4165H20.6666C20.2359 24.4165 19.8958 24.7566 19.8958 25.1873C19.8958 25.618 20.2359 25.9582 20.6666 25.9582H25.8333C26.264 25.9582 26.6041 25.618 26.6041 25.1873Z" fill="#9D9863" stroke="#9D9863" stroke-width="0.25"/>
<path d="M16.2709 29.7085V29.5835H16.1459H14.8542H14.7292V29.7085V30.3543C14.7292 30.785 15.0694 31.1252 15.5001 31.1252C15.9308 31.1252 16.2709 30.785 16.2709 30.3543V29.7085Z" fill="#9D9863" stroke="#9D9863" stroke-width="0.25"/>
<path d="M14.8542 16.021H14.7292V16.146V29.7085V29.8335H14.8542H16.1459H16.2709V29.7085V16.146V16.021H16.1459H14.8542Z" fill="#9D9863" stroke="#9D9863" stroke-width="0.25"/>
<path d="M14.8542 14.729H14.7292V14.854V16.1457V16.2707H14.8542H16.1459H16.2709V16.1457V14.854V14.729H16.1459H14.8542Z" fill="#9D9863" stroke="#9D9863" stroke-width="0.25"/>
<path d="M14.8542 1.1665H14.7292V1.2915V14.854V14.979H14.8542H16.1459H16.2709V14.854V1.2915V1.1665H16.1459H14.8542Z" fill="#9D9863" stroke="#9D9863" stroke-width="0.25"/>
<path d="M16.1459 1.41667H16.2709V1.29167V0.645833C16.2709 0.215131 15.9308 -0.125 15.5001 -0.125C15.0694 -0.125 14.7292 0.215131 14.7292 0.645833V1.29167V1.41667H14.8542H16.1459Z" fill="#9D9863" stroke="#9D9863" stroke-width="0.25"/>
<path d="M1.29175 14.729H1.16675V14.854V16.1457V16.2707H1.29175H14.8542H14.9792V16.1457V14.854V14.729H14.8542H1.29175Z" fill="#9D9863" stroke="#9D9863" stroke-width="0.25"/>
<path d="M8.27075 9.04167V9.16667H8.39575H10.3333C10.764 9.16667 11.1041 8.82654 11.1041 8.39583C11.1041 7.96513 10.764 7.625 10.3333 7.625H8.39575H8.27075V7.75V9.04167Z" fill="#9D9863" stroke="#9D9863" stroke-width="0.25"/>
<path d="M7.66161 24.0658L7.57322 24.1542L7.66161 24.2426L9.14482 25.7258C9.28753 25.8827 9.48976 25.9583 9.6875 25.9583C9.88479 25.9583 10.0865 25.8831 10.2292 25.7268C10.5355 25.4321 10.5347 24.9397 10.2269 24.6459L8.74255 23.1616L8.65417 23.0732L8.56578 23.1616L7.66161 24.0658Z" fill="#9D9863" stroke="#9D9863" stroke-width="0.25"/>
<path d="M8.56578 23.3382L8.65417 23.4266L8.74255 23.3382L10.2269 21.8539C10.5351 21.5598 10.5355 21.0664 10.228 20.7718C9.93342 20.4644 9.44005 20.4647 9.14595 20.7729L7.66161 22.2573L7.57322 22.3457L7.66161 22.4341L8.56578 23.3382Z" fill="#9D9863" stroke="#9D9863" stroke-width="0.25"/>
<path d="M6.75365 23.1601L6.66526 23.2485L6.75365 23.3369L7.65787 24.2411L7.74626 24.3295L7.83464 24.2411L8.73886 23.3369L8.82724 23.2485L8.73886 23.1601L7.83464 22.2559L7.74625 22.1675L7.65787 22.2559L6.75365 23.1601Z" fill="#9D9863" stroke="#9D9863" stroke-width="0.25"/>
<path d="M8.52091 9.0415V8.9165H8.39591H7.10425H6.97925V9.0415V10.979C6.97925 11.4097 7.31938 11.7498 7.75008 11.7498C8.18078 11.7498 8.52091 11.4097 8.52091 10.979V9.0415Z" fill="#9D9863" stroke="#9D9863" stroke-width="0.25"/>
<path d="M7.10425 7.625H6.97925V7.75V9.04167V9.16667H7.10425H8.39591H8.52091V9.04167V7.75V7.625H8.39591H7.10425Z" fill="#9D9863" stroke="#9D9863" stroke-width="0.25"/>
<path d="M8.39591 7.87484H8.52091V7.74984V5.81234C8.52091 5.38164 8.18078 5.0415 7.75008 5.0415C7.31938 5.0415 6.97925 5.38164 6.97925 5.81234V7.74984V7.87484H7.10425H8.39591Z" fill="#9D9863" stroke="#9D9863" stroke-width="0.25"/>
<path d="M7.83847 22.4341L7.92686 22.3457L7.83847 22.2573L6.35414 20.7729C6.06004 20.4647 5.56666 20.4644 5.27209 20.7718C4.9646 21.0664 4.96497 21.5598 5.27319 21.8539L6.75753 23.3382L6.84592 23.4266L6.9343 23.3382L7.83847 22.4341Z" fill="#9D9863" stroke="#9D9863" stroke-width="0.25"/>
<path d="M7.22909 7.75V7.625H7.10409H5.16659C4.73588 7.625 4.39575 7.96513 4.39575 8.39583C4.39575 8.82654 4.73588 9.16667 5.16659 9.16667H7.10409H7.22909V9.04167V7.75Z" fill="#9D9863" stroke="#9D9863" stroke-width="0.25"/>
<path d="M6.9343 23.1616L6.84592 23.0732L6.75753 23.1616L5.27319 24.6459C4.96537 24.9397 4.9646 25.4321 5.27089 25.7268C5.41354 25.8831 5.61529 25.9583 5.81258 25.9583C6.01033 25.9583 6.21255 25.8827 6.35526 25.7258L7.83847 24.2426L7.92686 24.1542L7.83847 24.0658L6.9343 23.1616Z" fill="#9D9863" stroke="#9D9863" stroke-width="0.25"/>
<path d="M1.41667 14.854V14.729H1.29167H0.645833C0.215131 14.729 -0.125 15.0691 -0.125 15.4998C-0.125 15.9305 0.215131 16.2707 0.645833 16.2707H1.29167H1.41667V16.1457V14.854Z" fill="#9D9863" stroke="#9D9863" stroke-width="0.25"/>
<path d="M14.8542 1.41667H14.9792V1.29167V0.645833C14.9792 0.353202 15.2074 0.125 15.5 0.125V0V-0.125H3.22917C1.37763 -0.125 -0.125 1.37763 -0.125 3.22917V15.5H0H0.125C0.125 15.2074 0.353202 14.9792 0.645833 14.9792H1.29167H1.41667V14.8542V3.22917C1.41667 2.22612 2.22612 1.41667 3.22917 1.41667H14.8542Z" fill="#9D9863" stroke="#9D9863" stroke-width="0.25"/>
<path d="M14.9792 29.7083V29.5833H14.8542H3.22917C2.22612 29.5833 1.41667 28.7739 1.41667 27.7708V16.1458V16.0208H1.29167H0.645833C0.353202 16.0208 0.125 15.7926 0.125 15.5H0H-0.125V27.7708C-0.125 29.6224 1.37763 31.125 3.22917 31.125H15.5V31V30.875C15.2074 30.875 14.9792 30.6468 14.9792 30.3542V29.7083Z" fill="#9D9863" stroke="#9D9863" stroke-width="0.25"/>
</g>
<defs>
<clipPath id="clip0_2178_25">
<rect width="31" height="31" fill="white"/>
</clipPath>
</defs>
</svg>
